SplineFontDB: 3.0
FontName: eh17-Bold
FullName: eh17 Bold
FamilyName: eh17
Weight: Bold
Copyright: Copyright (C) 2011-2012 Severin Meyer\nModified 2016 by Jiska Classen
Version: 2.0
DefaultBaseFilename: eh17-Bold
ItalicAngle: 0
UnderlinePosition: -75
UnderlineWidth: 70
Ascent: 800
Descent: 200
sfntRevision: 0x00020000
LayerCount: 2
Layer: 0 0 "Back"  1
Layer: 1 0 "Fore"  0
XUID: [1021 978 1458175891 13805965]
FSType: 0
OS2Version: 3
OS2_WeightWidthSlopeOnly: 0
OS2_UseTypoMetrics: 1
CreationTime: 1293620299
ModificationTime: 1467828818
PfmFamily: 17
TTFWeight: 700
TTFWidth: 5
LineGap: 90
VLineGap: 0
Panose: 2 0 8 3 0 0 0 0 0 0
OS2TypoAscent: 800
OS2TypoAOffset: 0
OS2TypoDescent: -200
OS2TypoDOffset: 0
OS2TypoLinegap: 90
OS2WinAscent: 890
OS2WinAOffset: 0
OS2WinDescent: 225
OS2WinDOffset: 0
HheadAscent: 890
HheadAOffset: 0
HheadDescent: -225
HheadDOffset: 0
OS2SubXSize: 650
OS2SubYSize: 699
OS2SubXOff: 0
OS2SubYOff: 140
OS2SupXSize: 650
OS2SupYSize: 699
OS2SupXOff: 0
OS2SupYOff: 479
OS2StrikeYSize: 49
OS2StrikeYPos: 258
OS2Vendor: 'PfEd'
OS2CodePages: 2000009f.00000000
OS2UnicodeRanges: a00002ef.4000205b.00000000.00000000
Lookup: 258 0 0 "'kern' Horizontal Kerning in Latin lookup 0"  {"'kern' Horizontal Kerning in Latin lookup 0 per glyph data 0"  "'kern' Horizontal Kerning in Latin lookup 0 kerning class 1"  } ['kern' ('latn' <'dflt' > ) ]
Lookup: 258 0 0 "'kern' Horizontal Kerning in Greek lookup 1"  {"'kern' Horizontal Kerning in Greek lookup 1 subtable"  } ['kern' ('grek' <'dflt' > ) ]
Lookup: 258 0 0 "'kern' Horizontal Kerning in Cyrillic lookup 2"  {"'kern' Horizontal Kerning in Cyrillic lookup 2 per glyph data 0"  "'kern' Horizontal Kerning in Cyrillic lookup 2 kerning class 1"  } ['kern' ('cyrl' <'dflt' > ) ]
MarkAttachClasses: 1
DEI: 91125
KernClass2: 28 21 "'kern' Horizontal Kerning in Latin lookup 0 kerning class 1" 
 84 A Agrave Aacute Acircumflex Atilde Adieresis Aring Amacron Abreve Aogonek Aringacute
 33 D Eth Thorn Dcaron Dcroat uni1E0A
 9 F uni1E1E

StartChar: .notdef
Encoding: 65536 -1 0
Width: 740
Flags: MW
HStem: 0 70<220 520 220 640> 590 70<220 520 220 220>
VStem: 100 120<70 70 70 590> 520 120<70 590 590 590>
LayerCount: 2
Fore
SplineSet
100 0 m 1
 100 660 l 1
 640 660 l 1
 640 0 l 1
 100 0 l 1
220 70 m 1
 520 70 l 1
 520 590 l 1
 220 590 l 1
 220 70 l 1
EndSplineSet
EndChar

StartChar: exclam
Encoding: 33 33 2
Width: 320
GlyphClass: 2
Flags: MW
HStem: 0 140<75 245 75 245> 220 21G<75 75 75 245> 640 20G<75 245 245 245>
VStem: 75 170<0 140 0 140 220 660>
LayerCount: 2
Fore
SplineSet
75 0 m 1
 75 140 l 1
 245 140 l 1
 245 0 l 1
 75 0 l 1
75 220 m 1
 75 660 l 1
 245 660 l 1
 245 220 l 1
 75 220 l 1
EndSplineSet
EndChar

StartChar: quotedbl
Encoding: 34 34 3
Width: 550
GlyphClass: 2
Flags: MW
HStem: 410 250<75 215 75 215 75 335 335 475>
VStem: 75 140<410 660 410 660> 335 140<410 660 410 660>
LayerCount: 2
Fore
SplineSet
335 410 m 1
 335 660 l 1
 475 660 l 1
 475 410 l 1
 335 410 l 1
75 410 m 1
 75 660 l 1
 215 660 l 1
 215 410 l 1
 75 410 l 1
EndSplineSet
EndChar

StartChar: numbersign
Encoding: 35 35 4
Width: 930
GlyphClass: 2
Flags: MW
HStem: 0 21G<80 230 80 80 480 630 480 480> 150 105<60 130 60 165 315 530 715 830> 405 105<100 215 100 250 400 615 800 870> 640 20G<300 450 450 450 700 850 850 850>
LayerCount: 2
Fore
SplineSet
300 660 m 1
 450 660 l 1
 400 510 l 1
 650 510 l 1
 700 660 l 1
 850 660 l 1
 800 510 l 1
 870 510 l 1
 870 405 l 1
 765 405 l 1
 715 255 l 1
 830 255 l 1
 830 150 l 1
 680 150 l 1
 630 0 l 1
 480 0 l 1
 530 150 l 1
 280 150 l 1
 230 0 l 1
 80 0 l 1
 130 150 l 1
 60 150 l 1
 60 255 l 1
 165 255 l 1
 215 405 l 1
 100 405 l 1
 100 510 l 1
 250 510 l 1
 300 660 l 1
365 405 m 1
 315 255 l 1
 565 255 l 1
 615 405 l 1
 365 405 l 1
EndSplineSet
EndChar

StartChar: dollar
Encoding: 36 36 5
Width: 950
GlyphClass: 2
Flags: MW
HStem: 0 105<70 405 70 405 545 640> 305 110<300 310 310 405 545 640 640 650> 555 105<285 405 310 405 310 405 545 830>
VStem: 70 170<440 450 450 520 432.5 525 432.5 592.5> 70 335<-85 105 -85 105 440 525 525 555> 405 140<-85 0 -85 0 105 305 415 555 660 745> 545 335<-85 135 -85 135 105 135 135 280 67.5 305 105 105 67.5 555 67.5 415> 710 170<140 270 270 280 67.5 287.5>
CounterMasks: 1 15
LayerCount: 2
Fore
SplineSet
70 0 m 1xf5
 70 105 l 1
 405 105 l 1
 405 305 l 1
 310 305 l 2
 190 305 70 305 70 440 c 2
 70 525 l 2
 70 660 190 660 310 660 c 2
 405 660 l 1
 405 745 l 1
 545 745 l 1
 545 660 l 1
 830 660 l 1
 830 555 l 1
 545 555 l 1
 545 415 l 1
 640 415 l 2
 760 415 880 415 880 280 c 2
 880 135 l 2
 880 0 760 0 640 0 c 2
 545 0 l 1
 545 -85 l 1
 405 -85 l 1
 405 0 l 1
 70 0 l 1xf5
240 450 m 2
 240 415 270 415 300 415 c 2
 405 415 l 1
 405 555 l 1
 300 555 l 2
 270 555 240 555 240 520 c 2
 240 450 l 2
545 105 m 1
 650 105 l 2
 680 105 710 105 710 140 c 2
 710 270 l 2
 710 305 680 305 650 305 c 2
 545 305 l 1
 545 105 l 1
EndSplineSet
EndChar

StartChar: percent
Encoding: 37 37 6
Width: 1230
GlyphClass: 2
Flags: MW
HStem: 0 21<380 380 380 520 850 890 890 1010> 640 20<220 340 340 380 710 850 850 850>
VStem: 60 130<410 415 415 565> 370 130<415 565 565 570> 730 130<90 95 95 245> 1040 130<95 245 245 250>
LayerCount: 2
Fore
SplineSet
730 90 m 2
 730 250 l 2
 730 340 810 340 890 340 c 2
 1010 340 l 2
 1090 340 1170 340 1170 250 c 2
 1170 90 l 2
 1170 0 1090 0 1010 0 c 2
 890 0 l 2
 810 0 730 0 730 90 c 2
860 95 m 2
 860 70 880 70 900 70 c 2
 1000 70 l 2
 1020 70 1040 70 1040 95 c 2
 1040 245 l 2
 1040 270 1020 270 1000 270 c 2
 900 270 l 2
 880 270 860 270 860 245 c 2
 860 95 l 2
60 410 m 2
 60 570 l 2
 60 660 140 660 220 660 c 2
 340 660 l 2
 420 660 500 660 500 570 c 2
 500 410 l 2
 500 320 420 320 340 320 c 2
 220 320 l 2
 140 320 60 320 60 410 c 2
190 415 m 2
 190 390 210 390 230 390 c 2
 330 390 l 2
 350 390 370 390 370 415 c 2
 370 565 l 2
 370 590 350 590 330 590 c 2
 230 590 l 2
 210 590 190 590 190 565 c 2
 190 415 l 2
380 0 m 1
 710 660 l 1
 850 660 l 1
 520 0 l 1
 380 0 l 1
EndSplineSet
EndChar

StartChar: ampersand
Encoding: 38 38 7
Width: 930
GlyphClass: 2
Flags: MW
HStem: 0 110<300 310 310 520 300 620> 550 110<365 510 390 510 510 520>
VStem: 70 170<135 145 145 270 127.5 290 127.5 335> 150 170<507.5 532.5 507.5 592.5> 580 170<485 515 515 525 485 532.5> 690 170<130 135 135 300 67.5 300>
LayerCount: 2
Fore
SplineSet
320 515 m 0xd4
 320 500 330 490 340 480 c 2
 690 130 l 1
 690 300 l 1
 860 300 l 1
 860 135 l 2
 860 0 740 0 620 0 c 2
 310 0 l 2
 190 0 70 0 70 135 c 2
 70 290 l 2xe4
 70 380 155 410 220 410 c 1
 165 465 150 480 150 525 c 0
 150 660 270 660 390 660 c 2
 510 660 l 2
 630 660 750 660 750 525 c 2
 750 485 l 1
 580 485 l 1
 580 515 l 2
 580 550 550 550 520 550 c 2
 380 550 l 2
 350 550 320 550 320 515 c 0xd4
240 145 m 2
 240 110 270 110 300 110 c 2
 520 110 l 1
 325 305 l 1
 300 305 l 2
 270 305 240 305 240 270 c 2
 240 145 l 2
EndSplineSet
EndChar

StartChar: quotesingle
Encoding: 39 39 8
Width: 290
GlyphClass: 2
Flags: MW
HStem: 410 250<75 215 75 215>
VStem: 75 140<410 660 410 660>
LayerCount: 2
Fore
SplineSet
75 410 m 1
 75 660 l 1
 215 660 l 1
 215 410 l 1
 75 410 l 1
EndSplineSet
EndChar

StartChar: parenleft
Encoding: 40 40 9
Width: 420
GlyphClass: 2
Flags: MW
HStem: -225 21G<235 360 235 235> 640 20G<235 360 360 360>
VStem: 75 145<140 300>
LayerCount: 2
Fore
SplineSet
75 220 m 0
 75 380 135 540 235 660 c 1
 360 660 l 1
 270 540 220 380 220 220 c 0
 220 60 270 -105 360 -225 c 1
 235 -225 l 1
 135 -105 75 60 75 220 c 0
EndSplineSet
EndChar

StartChar: parenright
Encoding: 41 41 10
Width: 420
GlyphClass: 2
Flags: MW
HStem: -225 21G<60 60 60 185> 640 20G<60 185 185 185>
VStem: 200 145<140 300>
LayerCount: 2
Fore
SplineSet
60 -225 m 1
 150 -105 200 60 200 220 c 0
 200 380 150 540 60 660 c 1
 185 660 l 1
 285 540 345 380 345 220 c 0
 345 60 285 -105 185 -225 c 1
 60 -225 l 1
EndSplineSet
EndChar

StartChar: asterisk
Encoding: 42 42 11
Width: 654
GlyphClass: 2
Flags: MW
HStem: 188 21G<239 239 416 416> 640 20G<262 392 392 392>
VStem: 262 130<509 660 509 660>
LayerCount: 2
Fore
SplineSet
60 439 m 1
 100 562 l 1
 262 509 l 1
 262 660 l 1
 392 660 l 1
 392 509 l 1
 555 562 l 1
 594 439 l 1
 433 386 l 1
 521 264 l 1
 416 188 l 1
 327 309 l 1
 239 188 l 1
 134 264 l 1
 222 386 l 1
 60 439 l 1
EndSplineSet
EndChar

StartChar: plus
Encoding: 43 43 12
Width: 720
GlyphClass: 2
Flags: MW
HStem: 0 21G<275 445 275 275> 180 120<60 275 60 275 445 660> 460 20G<275 445 445 445>
VStem: 275 170<0 180 0 180 300 480>
LayerCount: 2
Fore
SplineSet
60 180 m 1
 60 300 l 1
 275 300 l 1
 275 480 l 1
 445 480 l 1
 445 300 l 1
 660 300 l 1
 660 180 l 1
 445 180 l 1
 445 0 l 1
 275 0 l 1
 275 180 l 1
 60 180 l 1
EndSplineSet
EndChar

StartChar: comma
Encoding: 44 44 13
Width: 350
GlyphClass: 2
Flags: MW
HStem: -150 270<45 275 105 155>
LayerCount: 2
Fore
SplineSet
45 -150 m 1
 105 120 l 1
 275 120 l 1
 155 -150 l 1
 45 -150 l 1
EndSplineSet
EndChar

StartChar: hyphen
Encoding: 45 45 14
Width: 540
GlyphClass: 2
Flags: MW
HStem: 180 120<60 480 60 480>
VStem: 60 420<180 300 180 300>
LayerCount: 2
Fore
SplineSet
60 180 m 1
 60 300 l 1
 480 300 l 1
 480 180 l 1
 60 180 l 1
EndSplineSet
EndChar

StartChar: period
Encoding: 46 46 15
Width: 320
GlyphClass: 2
Flags: MW
HStem: 0 140<75 245 75 245>
VStem: 75 170<0 140 0 140>
LayerCount: 2
Fore
SplineSet
75 0 m 1
 75 140 l 1
 245 140 l 1
 245 0 l 1
 75 0 l 1
EndSplineSet
EndChar

StartChar: slash
Encoding: 47 47 16
Width: 650
GlyphClass: 2
Flags: MW
HStem: -100 21G<60 60 60 210> 640 20G<440 590 590 590>
LayerCount: 2
Fore
SplineSet
60 -100 m 1
 440 660 l 1
 590 660 l 1
 210 -100 l 1
 60 -100 l 1
EndSplineSet
EndChar

StartChar: zero
Encoding: 48 48 17
Width: 910
GlyphClass: 2
Flags: MW
HStem: 0 110<290 300 300 610> 550 110<275 610 300 610 610 620>
VStem: 60 170<135 145 145 515> 680 170<145 515 515 525>
LayerCount: 2
Fore
SplineSet
60 135 m 2
 60 525 l 2
 60 660 180 660 300 660 c 2
 610 660 l 2
 730 660 850 660 850 525 c 2
 850 135 l 2
 850 0 730 0 610 0 c 2
 300 0 l 2
 180 0 60 0 60 135 c 2
230 145 m 2
 230 110 260 110 290 110 c 2
 620 110 l 2
 650 110 680 110 680 145 c 2
 680 515 l 2
 680 550 650 550 620 550 c 2
 290 550 l 2
 260 550 230 550 230 515 c 2
 230 145 l 2
EndSplineSet
EndChar

StartChar: one
Encoding: 49 49 18
Width: 510
GlyphClass: 2
Flags: HMWO
HStem: 0 21G<500 670 500 500> 550 110<280 500 280 670>
VStem: 280 21G<550 660 660 660> 500 170<0 550 550 550>
LayerCount: 2
Fore
SplineSet
450 660 m 1
 450 0 l 1
 280 0 l 1
 280 550 l 1
 60 550 l 1
 60 660 l 1
 450 660 l 1
EndSplineSet
EndChar

StartChar: two
Encoding: 50 50 19
Width: 910
GlyphClass: 2
Flags: MW
HStem: 0 110<230 850 230 850> 305 110<275 620 300 610> 550 110<110 610 610 620 110 610>
VStem: 60 170<110 270 110 280 110 347.5> 680 170<450 515 515 525>
LayerCount: 2
Fore
SplineSet
60 0 m 1
 60 280 l 2
 60 415 180 415 300 415 c 2
 620 415 l 2
 650 415 680 415 680 450 c 2
 680 515 l 2
 680 550 650 550 620 550 c 2
 110 550 l 1
 110 660 l 1
 610 660 l 2
 730 660 850 660 850 525 c 2
 850 440 l 2
 850 305 730 305 610 305 c 2
 290 305 l 2
 260 305 230 305 230 270 c 2
 230 110 l 1
 850 110 l 1
 850 0 l 1
 60 0 l 1
EndSplineSet
EndChar

StartChar: three
Encoding: 51 51 20
Width: 910
GlyphClass: 2
Flags: MW
HStem: 0 110<90 620 90 610> 305 110<180 620 180 620> 550 110<90 610 610 620 90 610>
VStem: 680 170<145 265 67.5 270 67.5 287.5 450 465 465 515 515 525>
LayerCount: 2
Fore
SplineSet
90 0 m 1
 90 110 l 1
 620 110 l 2
 650 110 680 110 680 145 c 2
 680 270 l 2
 680 305 650 305 620 305 c 2
 180 305 l 1
 180 415 l 1
 620 415 l 2
 650 415 680 415 680 450 c 2
 680 515 l 2
 680 550 650 550 620 550 c 2
 90 550 l 1
 90 660 l 1
 610 660 l 2
 730 660 850 660 850 525 c 2
 850 465 l 2
 850 405 810 375 770 365 c 1
 810 355 850 325 850 265 c 2
 850 135 l 2
 850 0 730 0 610 0 c 2
 90 0 l 1
EndSplineSet
EndChar

StartChar: four
Encoding: 52 52 21
Width: 910
GlyphClass: 2
Flags: MW
HStem: 0 21G<680 850 680 680> 130 110<60 60 284 680> 640 20G<600 850 850 850>
VStem: 60 21G<130 240 240 240> 680 170<0 130 130 130 240 548 548 548>
LayerCount: 2
Fore
SplineSet
60 130 m 1
 60 240 l 1
 600 660 l 1
 850 660 l 1
 850 0 l 1
 680 0 l 1
 680 130 l 1
 60 130 l 1
284 240 m 1
 680 240 l 1
 680 548 l 1
 284 240 l 1
EndSplineSet
EndChar

StartChar: five
Encoding: 53 53 22
Width: 910
GlyphClass: 2
Flags: MW
HStem: 0 110<60 620 60 610> 305 110<230 610 610 620> 550 110<230 800 230 230>
VStem: 60 170<415 550 415 660 415 660> 680 170<145 270 270 280 67.5 287.5>
LayerCount: 2
Fore
SplineSet
60 0 m 1
 60 110 l 1
 620 110 l 2
 650 110 680 110 680 145 c 2
 680 270 l 2
 680 305 650 305 620 305 c 2
 60 305 l 1
 60 660 l 1
 800 660 l 1
 800 550 l 1
 230 550 l 1
 230 415 l 1
 610 415 l 2
 730 415 850 415 850 280 c 2
 850 135 l 2
 850 0 730 0 610 0 c 2
 60 0 l 1
EndSplineSet
EndChar

StartChar: six
Encoding: 54 54 23
Width: 910
GlyphClass: 2
Flags: MW
HStem: 0 110<290 300 300 610> 305 110<275 290 290 610 610 620> 550 110<335 800 380 800 380 800>
VStem: 60 170<135 145 145 270 415 470> 680 170<145 270 270 280 67.5 287.5>
LayerCount: 2
Fore
SplineSet
60 135 m 2
 60 480 l 2
 60 660 215 660 380 660 c 2
 800 660 l 1
 800 550 l 1
 370 550 l 2
 300 550 230 550 230 470 c 2
 230 415 l 1
 610 415 l 2
 730 415 850 415 850 280 c 2
 850 135 l 2
 850 0 730 0 610 0 c 2
 300 0 l 2
 180 0 60 0 60 135 c 2
230 145 m 2
 230 110 260 110 290 110 c 2
 620 110 l 2
 650 110 680 110 680 145 c 2
 680 270 l 2
 680 305 650 305 620 305 c 2
 290 305 l 2
 260 305 230 305 230 270 c 2
 230 145 l 2
EndSplineSet
EndChar

StartChar: seven
Encoding: 55 55 24
Width: 910
GlyphClass: 2
Flags: MW
HStem: 0 21G<230 430 230 230> 550 110<60 850 60 650 60 850>
VStem: 60 790<550 660 550 660>
LayerCount: 2
Fore
SplineSet
60 550 m 1
 60 660 l 1
 850 660 l 1
 850 550 l 1
 430 0 l 1
 230 0 l 1
 650 550 l 1
 60 550 l 1
EndSplineSet
EndChar

StartChar: eight
Encoding: 56 56 25
Width: 910
GlyphClass: 2
Flags: MW
HStem: 0 110<290 300 300 610> 305 110<275 620 290 620> 550 110<275 610 300 610 610 620>
VStem: 60 170<135 145 145 265 265 270 127.5 295 465 515> 680 170<145 265 67.5 270 67.5 287.5 450 465 465 515 515 525>
LayerCount: 2
Fore
SplineSet
60 135 m 2
 60 265 l 2
 60 325 100 355 140 365 c 1
 100 375 60 405 60 465 c 2
 60 525 l 2
 60 660 180 660 300 660 c 2
 610 660 l 2
 730 660 850 660 850 525 c 2
 850 465 l 2
 850 405 810 375 770 365 c 1
 810 355 850 325 850 265 c 2
 850 135 l 2
 850 0 730 0 610 0 c 2
 300 0 l 2
 180 0 60 0 60 135 c 2
230 145 m 2
 230 110 260 110 290 110 c 2
 620 110 l 2
 650 110 680 110 680 145 c 2
 680 270 l 2
 680 305 650 305 620 305 c 2
 290 305 l 2
 260 305 230 305 230 270 c 2
 230 145 l 2
230 450 m 2
 230 415 260 415 290 415 c 2
 620 415 l 2
 650 415 680 415 680 450 c 2
 680 515 l 2
 680 550 650 550 620 550 c 2
 290 550 l 2
 260 550 230 550 230 515 c 2
 230 450 l 2
EndSplineSet
EndChar

StartChar: nine
Encoding: 57 57 26
Width: 910
GlyphClass: 2
Flags: MW
HStem: 0 110<100 530 100 540> 305 110<290 300 300 620 620 635 290 680> 550 110<275 610 300 610 610 620>
VStem: 60 170<440 450 450 515 432.5 525 432.5 592.5> 680 170<190 305 305 305 450 515 515 525>
LayerCount: 2
Fore
SplineSet
60 440 m 2
 60 525 l 2
 60 660 180 660 300 660 c 2
 610 660 l 2
 730 660 850 660 850 525 c 2
 850 180 l 2
 850 0 690 0 530 0 c 2
 100 0 l 1
 100 110 l 1
 540 110 l 2
 610 110 680 110 680 190 c 2
 680 305 l 1
 300 305 l 2
 180 305 60 305 60 440 c 2
230 450 m 2
 230 415 260 415 290 415 c 2
 620 415 l 2
 650 415 680 415 680 450 c 2
 680 515 l 2
 680 550 650 550 620 550 c 2
 290 550 l 2
 260 550 230 550 230 515 c 2
 230 450 l 2
EndSplineSet
EndChar

StartChar: colon
Encoding: 58 58 27
Width: 320
GlyphClass: 2
Flags: MW
HStem: 0 140<75 245 75 245> 340 140<75 245 75 245>
VStem: 75 170<0 140 0 140 340 480>
LayerCount: 2
Fore
SplineSet
75 340 m 1
 75 480 l 1
 245 480 l 1
 245 340 l 1
 75 340 l 1
75 0 m 1
 75 140 l 1
 245 140 l 1
 245 0 l 1
 75 0 l 1
EndSplineSet
EndChar

StartChar: semicolon
Encoding: 59 59 28
Width: 350
GlyphClass: 2
Flags: MW
HStem: -150 270<45 275 105 155> 340 140<105 275 105 275>
VStem: 105 170<120 120 340 480>
LayerCount: 2
Fore
SplineSet
45 -150 m 1
 105 120 l 1
 275 120 l 1
 155 -150 l 1
 45 -150 l 1
105 340 m 1
 105 480 l 1
 275 480 l 1
 275 340 l 1
 105 340 l 1
EndSplineSet
EndChar

StartChar: less
Encoding: 60 60 29
Width: 750
GlyphClass: 2
Flags: MW
HStem: -20 120<690 690> 380 120<690 690>
VStem: 60 630<-20 290 -20 290>
LayerCount: 2
Fore
SplineSet
60 190 m 1
 60 290 l 1
 690 500 l 1
 690 380 l 1
 270 240 l 1
 690 100 l 1
 690 -20 l 1
 60 190 l 1
EndSplineSet
EndChar

StartChar: equal
Encoding: 61 61 30
Width: 720
GlyphClass: 2
Flags: MW
HStem: 60 120<60 660 60 660> 300 120<60 660 60 660>
VStem: 60 600<60 180 60 180 300 420 60 420>
LayerCount: 2
Fore
SplineSet
60 60 m 1
 60 180 l 1
 660 180 l 1
 660 60 l 1
 60 60 l 1
60 300 m 1
 60 420 l 1
 660 420 l 1
 660 300 l 1
 60 300 l 1
EndSplineSet
EndChar

StartChar: greater
Encoding: 62 62 31
Width: 750
GlyphClass: 2
Flags: MW
HStem: -20 120<60 60> 380 120<60 60>
VStem: 60 630<-20 290 100 290 190 500 190 500>
LayerCount: 2
Fore
SplineSet
60 -20 m 1
 60 100 l 1
 480 240 l 1
 60 380 l 1
 60 500 l 1
 690 290 l 1
 690 190 l 1
 60 -20 l 1
EndSplineSet
EndChar

StartChar: question
Encoding: 63 63 32
Width: 910
GlyphClass: 2
Flags: MW
HStem: 0 140<285 455 285 455> 220 21G<285 455 285 285> 305 110<500 605 525 595> 550 110<75 595 75 595 595 605>
VStem: 285 170<0 140 0 140 220 270 0 280 0 347.5> 665 170<450 515 515 525 372.5 532.5>
LayerCount: 2
Fore
SplineSet
75 550 m 1
 75 660 l 1
 595 660 l 2
 715 660 835 660 835 525 c 2
 835 440 l 2
 835 305 715 305 595 305 c 2
 515 305 l 2
 485 305 455 305 455 270 c 2
 455 220 l 1
 285 220 l 1
 285 280 l 2
 285 415 405 415 525 415 c 2
 605 415 l 2
 635 415 665 415 665 450 c 2
 665 515 l 2
 665 550 635 550 605 550 c 2
 75 550 l 1
285 0 m 1
 285 140 l 1
 455 140 l 1
 455 0 l 1
 285 0 l 1
EndSplineSet
EndChar

StartChar: at
Encoding: 64 64 33
Width: 1290
GlyphClass: 2
Flags: MW
HStem: -165 70<225 1175 305 1175 305 1175> -95 95<485 535 535 1175 1175 1175> 0 95<485 795 545 795 955 1085> 385 95<535 545 545 795> 480 95<535 955 955 955> 575 70<280 305 305 985>
VStem: 75 130<-50 -40 -40 520> 335 160<115 125 125 355> 795 160<95 385 385 385> 1085 130<95 520 520 530 0 547.5>
LayerCount: 2
Fore
SplineSet
75 -50 m 2xa7c0
 75 530 l 2
 75 645 175 645 275 645 c 2
 1015 645 l 2
 1115 645 1215 645 1215 530 c 2
 1215 0 l 1
 535 0 l 2
 435 0 335 0 335 115 c 2
 335 365 l 2
 335 480 435 480 535 480 c 2xb7c0
 955 480 l 1x0bc0
 955 95 l 1
 1085 95 l 1
 1085 520 l 2
 1085 575 1035 575 985 575 c 2
 305 575 l 2
 255 575 205 575 205 520 c 2
 205 -40 l 2
 205 -95 255 -95 305 -95 c 2
 1175 -95 l 1
 1175 -165 l 1
 275 -165 l 2
 175 -165 75 -165 75 -50 c 2xa7c0
495 125 m 2
 495 95 520 95 545 95 c 2
 795 95 l 1
 795 385 l 1
 545 385 l 2
 520 385 495 385 495 355 c 2
 495 125 l 2
EndSplineSet
EndChar

StartChar: A
Encoding: 65 65 34
Width: 930
GlyphClass: 2
Flags: MW
HStem: 0 21G<20 20 20 200 730 730 730 910> 190 110<350 580 350 635 295 580> 640 20G<350 580 580 580>
LayerCount: 2
Fore
SplineSet
20 0 m 1
 350 660 l 1
 580 660 l 1
 910 0 l 1
 730 0 l 1
 635 190 l 1
 295 190 l 1
 200 0 l 1
 20 0 l 1
350 300 m 1
 580 300 l 1
 465 530 l 1
 350 300 l 1
EndSplineSet
EndChar

StartChar: B
Encoding: 66 66 35
Width: 930
GlyphClass: 2
Flags: MW
HStem: 0 110<240 620> 305 110<240 620 620 630 240 620> 550 110<240 610 610 620 240 240>
VStem: 70 170<110 110 110 305 415 550> 680 170<450 465 465 515 515 525 435 532.5> 690 170<145 265 67.5 270 67.5 287.5>
LayerCount: 2
Fore
SplineSet
70 0 m 1xf4
 70 660 l 1
 610 660 l 2
 730 660 850 660 850 525 c 2
 850 465 l 2xf8
 850 405 810 375 770 365 c 1
 810 355 860 335 860 265 c 2
 860 135 l 2
 860 0 740 0 620 0 c 2
 70 0 l 1xf4
240 110 m 1
 630 110 l 2
 660 110 690 110 690 145 c 2
 690 270 l 2xf4
 690 305 660 305 630 305 c 2
 240 305 l 1
 240 110 l 1
240 415 m 1
 620 415 l 2
 650 415 680 415 680 450 c 2
 680 515 l 2xf8
 680 550 650 550 620 550 c 2
 240 550 l 1
 240 415 l 1
EndSplineSet
EndChar

StartChar: C
Encoding: 67 67 36
Width: 880
GlyphClass: 2
Flags: MW
HStem: 0 110<300 310 310 810> 550 110<285 810 310 810 310 810>
VStem: 70 170<135 145 145 515>
LayerCount: 2
Fore
SplineSet
70 135 m 2
 70 525 l 2
 70 660 190 660 310 660 c 2
 810 660 l 1
 810 550 l 1
 300 550 l 2
 270 550 240 550 240 515 c 2
 240 145 l 2
 240 110 270 110 300 110 c 2
 810 110 l 1
 810 0 l 1
 310 0 l 2
 190 0 70 0 70 135 c 2
EndSplineSet
EndChar

StartChar: D
Encoding: 68 68 37
Width: 930
GlyphClass: 2
Flags: MW
HStem: 0 110<240 450 450 500> 555 105<240 450 240 240>
VStem: 70 170<110 110 110 555> 690 170<310 355 197.5 435>
LayerCount: 2
Fore
SplineSet
70 0 m 1
 70 660 l 1
 500 660 l 2
 680 660 860 580 860 355 c 2
 860 310 l 2
 860 85 680 0 500 0 c 2
 70 0 l 1
240 110 m 1
 450 110 l 2
 570 110 690 150 690 310 c 2
 690 355 l 2
 690 515 570 555 450 555 c 2
 240 555 l 1
 240 110 l 1
EndSplineSet
EndChar

StartChar: E
Encoding: 69 69 38
Width: 880
GlyphClass: 2
Flags: MW
HStem: 0 110<240 810 240 810> 305 110<240 760 240 760> 550 110<240 810 240 240>
VStem: 70 170<110 305 415 550>
LayerCount: 2
Fore
SplineSet
70 0 m 1
 70 660 l 1
 810 660 l 1
 810 550 l 1
 240 550 l 1
 240 415 l 1
 760 415 l 1
 760 305 l 1
 240 305 l 1
 240 110 l 1
 810 110 l 1
 810 0 l 1
 70 0 l 1
EndSplineSet
EndChar

StartChar: F
Encoding: 70 70 39
Width: 860
GlyphClass: 2
Flags: MW
HStem: 0 21G<70 70 70 240> 305 110<240 750 240 750> 550 110<240 810 240 240>
VStem: 70 170<0 305 415 550>
LayerCount: 2
Fore
SplineSet
70 0 m 1
 70 660 l 1
 810 660 l 1
 810 550 l 1
 240 550 l 1
 240 415 l 1
 750 415 l 1
 750 305 l 1
 240 305 l 1
 240 0 l 1
 70 0 l 1
EndSplineSet
EndChar

StartChar: G
Encoding: 71 71 40
Width: 930
GlyphClass: 2
Flags: MW
HStem: 0 110<300 310 310 620> 305 110<540 690 540 860> 550 110<285 810 310 810 310 810>
VStem: 70 170<135 145 145 515> 690 170<145 305 305 305>
LayerCount: 2
Fore
SplineSet
70 135 m 2
 70 525 l 2
 70 660 190 660 310 660 c 2
 810 660 l 1
 810 550 l 1
 300 550 l 2
 270 550 240 550 240 515 c 2
 240 145 l 2
 240 110 270 110 300 110 c 2
 630 110 l 2
 660 110 690 110 690 145 c 2
 690 305 l 1
 540 305 l 1
 540 415 l 1
 860 415 l 1
 860 135 l 2
 860 0 740 0 620 0 c 2
 310 0 l 2
 190 0 70 0 70 135 c 2
EndSplineSet
EndChar

StartChar: H
Encoding: 72 72 41
Width: 930
GlyphClass: 2
Flags: MW
HStem: 0 21G<70 70 70 240 690 690 690 860> 305 110<240 690 240 690> 640 20G<70 240 240 240 690 860 860 860>
VStem: 70 170<0 305 415 660> 690 170<0 305 305 305 415 660 0 660>
LayerCount: 2
Fore
SplineSet
70 0 m 1
 70 660 l 1
 240 660 l 1
 240 415 l 1
 690 415 l 1
 690 660 l 1
 860 660 l 1
 860 0 l 1
 690 0 l 1
 690 305 l 1
 240 305 l 1
 240 0 l 1
 70 0 l 1
EndSplineSet
EndChar

StartChar: I
Encoding: 73 73 42
Width: 310
GlyphClass: 2
Flags: MW
HStem: 0 21G<70 70 70 240> 640 20G<70 240 240 240>
VStem: 70 170<0 660 0 660>
LayerCount: 2
Fore
SplineSet
70 0 m 1
 70 660 l 1
 240 660 l 1
 240 0 l 1
 70 0 l 1
EndSplineSet
EndChar

StartChar: J
Encoding: 74 74 43
Width: 930
GlyphClass: 2
Flags: MW
HStem: 0 110<300 310 310 620> 235 20G<70 240 240 240> 640 20G<690 860 860 860>
VStem: 70 170<135 145 145 255 127.5 255> 690 170<145 660>
LayerCount: 2
Fore
SplineSet
70 135 m 2
 70 255 l 1
 240 255 l 1
 240 145 l 2
 240 110 270 110 300 110 c 2
 630 110 l 2
 660 110 690 110 690 145 c 2
 690 660 l 1
 860 660 l 1
 860 135 l 2
 860 0 740 0 620 0 c 2
 310 0 l 2
 190 0 70 0 70 135 c 2
EndSplineSet
EndChar

StartChar: K
Encoding: 75 75 44
Width: 860
GlyphClass: 2
Flags: MW
HStem: 0 21G<70 70 70 240 630 630 630 840> 640 20G<70 240 240 240 590 800 800 800>
VStem: 70 170<0 100 310 660>
LayerCount: 2
Fore
SplineSet
70 0 m 1
 70 660 l 1
 240 660 l 1
 240 310 l 1
 590 660 l 1
 800 660 l 1
 490 350 l 1
 840 0 l 1
 630 0 l 1
 385 245 l 1
 240 100 l 1
 240 0 l 1
 70 0 l 1
EndSplineSet
EndChar

StartChar: L
Encoding: 76 76 45
Width: 840
GlyphClass: 2
Flags: MW
HStem: 0 110<240 810 240 810> 640 20G<70 240 240 240>
VStem: 70 170<110 660 110 660 110 660> 790 20G<0 110 0 0>
LayerCount: 2
Fore
SplineSet
70 0 m 1
 70 660 l 1
 240 660 l 1
 240 110 l 1
 810 110 l 1
 810 0 l 1
 70 0 l 1
EndSplineSet
EndChar

StartChar: M
Encoding: 77 77 46
Width: 1090
GlyphClass: 2
Flags: MW
HStem: 0 21G<70 70 70 240 465 465 465 625 850 850 850 1020> 640 20G<70 295 295 295 795 1020 1020 1020>
VStem: 70 170<0 450 0 660> 850 170<0 450 450 450>
LayerCount: 2
Fore
SplineSet
70 0 m 1
 70 660 l 1
 295 660 l 1
 545 160 l 1
 795 660 l 1
 1020 660 l 1
 1020 0 l 1
 850 0 l 1
 850 450 l 1
 625 0 l 1
 465 0 l 1
 240 450 l 1
 240 0 l 1
 70 0 l 1
EndSplineSet
EndChar

StartChar: N
Encoding: 78 78 47
Width: 930
GlyphClass: 2
Flags: MW
HStem: 0 21G<70 70 70 240 670 670 670 860> 640 20G<70 260 260 260 690 860 860 860>
VStem: 70 170<0 470 0 660> 690 170<190 660 0 660>
LayerCount: 2
Fore
SplineSet
70 0 m 1
 70 660 l 1
 260 660 l 1
 690 190 l 1
 690 660 l 1
 860 660 l 1
 860 0 l 1
 670 0 l 1
 240 470 l 1
 240 0 l 1
 70 0 l 1
EndSplineSet
EndChar

StartChar: O
Encoding: 79 79 48
Width: 930
GlyphClass: 2
Flags: MW
HStem: 0 110<300 310 310 620> 550 110<285 620 310 620 620 630>
VStem: 70 170<135 145 145 515> 690 170<145 515 515 525>
LayerCount: 2
Fore
SplineSet
70 135 m 2
 70 525 l 2
 70 660 190 660 310 660 c 2
 620 660 l 2
 740 660 860 660 860 525 c 2
 860 135 l 2
 860 0 740 0 620 0 c 2
 310 0 l 2
 190 0 70 0 70 135 c 2
240 145 m 2
 240 110 270 110 300 110 c 2
 630 110 l 2
 660 110 690 110 690 145 c 2
 690 515 l 2
 690 550 660 550 630 550 c 2
 300 550 l 2
 270 550 240 550 240 515 c 2
 240 145 l 2
EndSplineSet
EndChar

StartChar: P
Encoding: 80 80 49
Width: 930
GlyphClass: 2
Flags: MW
HStem: 0 21G<70 70 70 240> 250 110<240 620 240 630> 550 110<240 620 620 630 240 240>
VStem: 70 170<0 250 360 550> 690 170<395 515 515 525 317.5 532.5>
LayerCount: 2
Fore
SplineSet
70 0 m 1
 70 660 l 1
 620 660 l 2
 740 660 860 660 860 525 c 2
 860 385 l 2
 860 250 740 250 620 250 c 2
 240 250 l 1
 240 0 l 1
 70 0 l 1
240 360 m 1
 630 360 l 2
 660 360 690 360 690 395 c 2
 690 515 l 2
 690 550 660 550 630 550 c 2
 240 550 l 1
 240 360 l 1
EndSplineSet
EndChar

StartChar: Q
Encoding: 81 81 50
Width: 930
GlyphClass: 2
Flags: MW
HStem: -150 21G<570 770 570 570> 0 110<300 310 310 420 620 630 630 645 300 680> 550 110<285 620 310 620 620 630>
VStem: 70 170<135 145 145 515> 690 170<145 515 515 525>
LayerCount: 2
Fore
SplineSet
70 135 m 2
 70 525 l 2
 70 660 190 660 310 660 c 2
 620 660 l 2
 740 660 860 660 860 525 c 2
 860 135 l 2
 860 0 740 0 620 0 c 1
 770 -150 l 1
 570 -150 l 1
 420 0 l 1
 310 0 l 2
 190 0 70 0 70 135 c 2
240 145 m 2
 240 110 270 110 300 110 c 2
 630 110 l 2
 660 110 690 110 690 145 c 2
 690 515 l 2
 690 550 660 550 630 550 c 2
 300 550 l 2
 270 550 240 550 240 515 c 2
 240 145 l 2
EndSplineSet
EndChar

StartChar: R
Encoding: 82 82 51
Width: 930
GlyphClass: 2
Flags: MW
HStem: 0 21G<70 240 70 70 690 900 690 690> 270 110<240 420 240 630 630 645 240 685> 550 110<240 620 620 630 240 240>
VStem: 70 170<0 270 380 550> 690 170<415 515 515 525 337.5 532.5>
LayerCount: 2
Fore
SplineSet
900 0 m 1
 690 0 l 1
 420 270 l 1
 240 270 l 1
 240 0 l 1
 70 0 l 1
 70 660 l 1
 620 660 l 2
 740 660 860 660 860 525 c 2
 860 405 l 2
 860 270 740 270 630 270 c 1
 900 0 l 1
240 380 m 1
 630 380 l 2
 660 380 690 380 690 415 c 2
 690 515 l 2
 690 550 660 550 630 550 c 2
 240 550 l 1
 240 380 l 1
EndSplineSet
EndChar

StartChar: S
Encoding: 83 83 52
Width: 930
GlyphClass: 2
Flags: MW
HStem: 0 110<70 630 70 620> 305 110<300 310 310 620 620 630> 550 110<285 810 310 810 310 810>
VStem: 70 170<440 450 450 515 432.5 525 432.5 592.5> 690 170<145 270 270 280 67.5 287.5>
LayerCount: 2
Fore
SplineSet
70 0 m 1
 70 110 l 1
 630 110 l 2
 660 110 690 110 690 145 c 2
 690 270 l 2
 690 305 660 305 630 305 c 2
 310 305 l 2
 190 305 70 305 70 440 c 2
 70 525 l 2
 70 660 190 660 310 660 c 2
 810 660 l 1
 810 550 l 1
 300 550 l 2
 270 550 240 550 240 515 c 2
 240 450 l 2
 240 415 270 415 300 415 c 2
 620 415 l 2
 740 415 860 415 860 280 c 2
 860 135 l 2
 860 0 740 0 620 0 c 2
 70 0 l 1
EndSplineSet
EndChar

StartChar: T
Encoding: 84 84 53
Width: 910
GlyphClass: 2
Flags: MW
HStem: 0 21G<370 540 370 370> 550 110<30 880 30 370 540 540 540 880>
VStem: 370 170<0 550 0 550>
LayerCount: 2
Fore
SplineSet
30 550 m 1
 30 660 l 1
 880 660 l 1
 880 550 l 1
 540 550 l 1
 540 0 l 1
 370 0 l 1
 370 550 l 1
 30 550 l 1
EndSplineSet
EndChar

StartChar: U
Encoding: 85 85 54
Width: 930
GlyphClass: 2
Flags: MW
HStem: 0 110<300 310 310 620> 640 20G<70 240 240 240 690 860 860 860>
VStem: 70 170<135 145 145 660> 690 170<145 660>
LayerCount: 2
Fore
SplineSet
70 135 m 2
 70 660 l 1
 240 660 l 1
 240 145 l 2
 240 110 270 110 300 110 c 2
 630 110 l 2
 660 110 690 110 690 145 c 2
 690 660 l 1
 860 660 l 1
 860 135 l 2
 860 0 740 0 620 0 c 2
 310 0 l 2
 190 0 70 0 70 135 c 2
EndSplineSet
EndChar

StartChar: V
Encoding: 86 86 55
Width: 930
GlyphClass: 2
Flags: MW
HStem: 0 21G<350 580 350 350> 640 20G<20 200 200 200 730 910 910 910>
LayerCount: 2
Fore
SplineSet
20 660 m 1
 200 660 l 1
 465 130 l 1
 730 660 l 1
 910 660 l 1
 580 0 l 1
 350 0 l 1
 20 660 l 1
EndSplineSet
EndChar

StartChar: W
Encoding: 87 87 56
Width: 1260
GlyphClass: 2
Flags: MW
HStem: 0 21G<240 460 240 240 800 1020 800 800> 640 20G<20 195 195 195 1065 1240 1240 1240>
LayerCount: 2
Fore
SplineSet
20 660 m 1
 195 660 l 1
 360 165 l 1
 515 630 l 1
 745 630 l 1
 900 165 l 1
 1065 660 l 1
 1240 660 l 1
 1020 0 l 1
 800 0 l 1
 630 510 l 1
 460 0 l 1
 240 0 l 1
 20 660 l 1
EndSplineSet
EndChar

StartChar: X
Encoding: 88 88 57
Width: 910
GlyphClass: 2
Flags: MW
HStem: 0 21G<20 20 20 230 680 680 680 890> 640 20G<20 230 230 230 680 890 890 890>
LayerCount: 2
Fore
SplineSet
20 0 m 1
 350 330 l 1
 20 660 l 1
 230 660 l 1
 455 435 l 1
 680 660 l 1
 890 660 l 1
 560 330 l 1
 890 0 l 1
 680 0 l 1
 455 225 l 1
 230 0 l 1
 20 0 l 1
EndSplineSet
EndChar

StartChar: Y
Encoding: 89 89 58
Width: 910
GlyphClass: 2
Flags: MW
HStem: 0 21G<370 540 370 370> 640 20G<20 230 230 230 680 890 890 890>
VStem: 370 170<0 310 0 310>
LayerCount: 2
Fore
SplineSet
20 660 m 1
 230 660 l 1
 455 435 l 1
 680 660 l 1
 890 660 l 1
 540 310 l 1
 540 0 l 1
 370 0 l 1
 370 310 l 1
 20 660 l 1
EndSplineSet
EndChar

StartChar: Z
Encoding: 90 90 59
Width: 880
GlyphClass: 2
Flags: MW
HStem: 0 110<50 50 285 830> 550 110<70 575 70 810 70 810>
VStem: 50 760<0 660 110 660>
LayerCount: 2
Fore
SplineSet
50 0 m 1
 50 110 l 1
 575 550 l 1
 70 550 l 1
 70 660 l 1
 810 660 l 1
 810 550 l 1
 285 110 l 1
 830 110 l 1
 830 0 l 1
 50 0 l 1
EndSplineSet
EndChar

StartChar: bracketleft
Encoding: 91 91 60
Width: 475
GlyphClass: 2
Flags: MW
HStem: -225 95<215 415 215 415> 565 95<215 415 215 215>
VStem: 75 140<-130 565 -130 660 -130 660>
LayerCount: 2
Fore
SplineSet
75 -225 m 1
 75 660 l 1
 415 660 l 1
 415 565 l 1
 215 565 l 1
 215 -130 l 1
 415 -130 l 1
 415 -225 l 1
 75 -225 l 1
EndSplineSet
EndChar

StartChar: backslash
Encoding: 92 92 61
Width: 650
GlyphClass: 2
Flags: MW
HStem: -100 21G<440 590 440 440> 640 20G<60 210 210 210>
LayerCount: 2
Fore
SplineSet
60 660 m 1
 210 660 l 1
 590 -100 l 1
 440 -100 l 1
 60 660 l 1
EndSplineSet
EndChar

StartChar: bracketright
Encoding: 93 93 62
Width: 475
GlyphClass: 2
Flags: MW
HStem: -225 95<60 260 60 400 60 260> 565 95<60 260 60 400>
VStem: 260 140<-130 565 565 565>
LayerCount: 2
Fore
SplineSet
60 -130 m 1
 260 -130 l 1
 260 565 l 1
 60 565 l 1
 60 660 l 1
 400 660 l 1
 400 -225 l 1
 60 -225 l 1
 60 -130 l 1
EndSplineSet
EndChar

StartChar: asciicircum
Encoding: 94 94 63
Width: 620
GlyphClass: 2
Flags: MW
HStem: 300 21G<60 60 60 200 420 420 420 560> 640 20G<240 380 380 380>
LayerCount: 2
Fore
SplineSet
60 300 m 1
 240 660 l 1
 380 660 l 1
 560 300 l 1
 420 300 l 1
 310 520 l 1
 200 300 l 1
 60 300 l 1
EndSplineSet
EndChar

StartChar: underscore
Encoding: 95 95 64
Width: 680
GlyphClass: 2
Flags: MW
HStem: -225 95<20 660 20 660>
LayerCount: 2
Fore
SplineSet
20 -130 m 1
 660 -130 l 1
 660 -225 l 1
 20 -225 l 1
 20 -130 l 1
EndSplineSet
EndChar

StartChar: grave
Encoding: 96 96 65
Width: 500
GlyphClass: 2
Flags: MW
HStem: 550 160<240 250 80 350 240 240>
VStem: 80 270<550 710>
LayerCount: 2
Fore
SplineSet
80 710 m 1
 250 710 l 1
 350 550 l 1
 240 550 l 1
 80 710 l 1
EndSplineSet
EndChar

StartChar: a
Encoding: 97 97 66
Width: 740
GlyphClass: 2
Flags: MW
HStem: 0 95<210 520 270 520 270 680> 205 95<260 270 270 520> 385 95<100 470 100 480>
VStem: 60 160<115 125 125 175 110 185 110 242.5> 520 160<95 205 205 205 300 355 355 365 0 370>
LayerCount: 2
Fore
SplineSet
60 115 m 2
 60 185 l 2
 60 300 160 300 260 300 c 2
 520 300 l 1
 520 355 l 2
 520 385 495 385 470 385 c 2
 100 385 l 1
 100 480 l 1
 480 480 l 2
 580 480 680 480 680 365 c 2
 680 0 l 1
 260 0 l 2
 160 0 60 0 60 115 c 2
220 125 m 2
 220 95 245 95 270 95 c 2
 520 95 l 1
 520 205 l 1
 270 205 l 2
 245 205 220 205 220 175 c 2
 220 125 l 2
EndSplineSet
EndChar

StartChar: b
Encoding: 98 98 67
Width: 740
GlyphClass: 2
Flags: MW
HStem: 0 95<220 470 470 480> 385 95<220 470 220 480> 640 20G<60 220 220 220>
VStem: 60 160<95 95 95 385 480 660> 520 160<125 355 355 365>
LayerCount: 2
Fore
SplineSet
60 0 m 1
 60 660 l 1
 220 660 l 1
 220 480 l 1
 480 480 l 2
 580 480 680 480 680 365 c 2
 680 115 l 2
 680 0 580 0 480 0 c 2
 60 0 l 1
220 95 m 1
 470 95 l 2
 495 95 520 95 520 125 c 2
 520 355 l 2
 520 385 495 385 470 385 c 2
 220 385 l 1
 220 95 l 1
EndSplineSet
EndChar

StartChar: c
Encoding: 99 99 68
Width: 700
GlyphClass: 2
Flags: MW
HStem: 0 95<210 640 270 640 270 640> 385 95<260 270 270 640>
VStem: 60 160<115 125 125 355>
LayerCount: 2
Fore
SplineSet
60 115 m 2
 60 365 l 2
 60 480 160 480 260 480 c 2
 640 480 l 1
 640 385 l 1
 270 385 l 2
 245 385 220 385 220 355 c 2
 220 125 l 2
 220 95 245 95 270 95 c 2
 640 95 l 1
 640 0 l 1
 260 0 l 2
 160 0 60 0 60 115 c 2
EndSplineSet
EndChar

StartChar: d
Encoding: 100 100 69
Width: 740
GlyphClass: 2
Flags: MW
HStem: 0 95<210 520 270 520 270 680> 385 95<260 270 270 520> 640 20G<520 680 680 680>
VStem: 60 160<115 125 125 355> 520 160<95 385 385 385 480 660 0 660>
LayerCount: 2
Fore
SplineSet
60 115 m 2
 60 365 l 2
 60 480 160 480 260 480 c 2
 520 480 l 1
 520 660 l 1
 680 660 l 1
 680 0 l 1
 260 0 l 2
 160 0 60 0 60 115 c 2
220 125 m 2
 220 95 245 95 270 95 c 2
 520 95 l 1
 520 385 l 1
 270 385 l 2
 245 385 220 385 220 355 c 2
 220 125 l 2
EndSplineSet
EndChar

StartChar: e
Encoding: 101 101 70
Width: 740
GlyphClass: 2
Flags: MW
HStem: 0 95<210 660 270 660 270 660> 205 95<220 520 220 680 220 520> 385 95<260 270 270 470>
VStem: 60 160<115 125 125 205 300 355> 520 160<300 355 355 365 205 370>
LayerCount: 2
Fore
SplineSet
60 115 m 2
 60 365 l 2
 60 480 160 480 260 480 c 2
 480 480 l 2
 580 480 680 480 680 365 c 2
 680 205 l 1
 220 205 l 1
 220 125 l 2
 220 95 245 95 270 95 c 2
 660 95 l 1
 660 0 l 1
 260 0 l 2
 160 0 60 0 60 115 c 2
220 300 m 1
 520 300 l 1
 520 355 l 2
 520 385 495 385 470 385 c 2
 270 385 l 2
 245 385 220 385 220 355 c 2
 220 300 l 1
EndSplineSet
EndChar

StartChar: f
Encoding: 102 102 71
Width: 480
GlyphClass: 2
Flags: MW
HStem: 0 21G<60 60 60 220> 385 95<220 420 220 420> 565 95<260 270 270 420>
VStem: 60 160<0 385 480 535 0 545>
LayerCount: 2
Fore
SplineSet
60 0 m 1
 60 545 l 2
 60 660 160 660 260 660 c 2
 420 660 l 1
 420 565 l 1
 270 565 l 2
 245 565 220 565 220 535 c 2
 220 480 l 1
 420 480 l 1
 420 385 l 1
 220 385 l 1
 220 0 l 1
 60 0 l 1
EndSplineSet
EndChar

StartChar: g
Encoding: 103 103 72
Width: 740
GlyphClass: 2
Flags: MW
HStem: -225 95<80 470 470 480 80 470> 0 95<210 520 270 520 270 520> 385 95<260 270 270 520>
VStem: 60 160<115 125 125 355> 520 160<-105 0 0 0 95 385 385 385>
LayerCount: 2
Fore
SplineSet
60 115 m 2
 60 365 l 2
 60 480 160 480 260 480 c 2
 680 480 l 1
 680 -125 l 2
 680 -225 580 -225 480 -225 c 2
 80 -225 l 1
 80 -130 l 1
 470 -130 l 2
 495 -130 520 -130 520 -105 c 2
 520 0 l 1
 260 0 l 2
 160 0 60 0 60 115 c 2
220 125 m 2
 220 95 245 95 270 95 c 2
 520 95 l 1
 520 385 l 1
 270 385 l 2
 245 385 220 385 220 355 c 2
 220 125 l 2
EndSplineSet
EndChar

StartChar: h
Encoding: 104 104 73
Width: 740
GlyphClass: 2
Flags: MW
HStem: 0 21G<60 60 60 220 520 520 520 680> 385 95<220 470 220 480> 640 20G<60 220 220 220>
VStem: 60 160<0 385 480 660> 520 160<0 355 355 365 0 370>
LayerCount: 2
Fore
SplineSet
60 0 m 1
 60 660 l 1
 220 660 l 1
 220 480 l 1
 480 480 l 2
 580 480 680 480 680 365 c 2
 680 0 l 1
 520 0 l 1
 520 355 l 2
 520 385 495 385 470 385 c 2
 220 385 l 1
 220 0 l 1
 60 0 l 1
EndSplineSet
EndChar

StartChar: i
Encoding: 105 105 74
Width: 280
GlyphClass: 2
Flags: MW
HStem: 0 21G<60 60 60 220> 460 20G<60 220 220 220> 565 95<60 220 60 220>
VStem: 60 160<0 480 0 480 565 660>
LayerCount: 2
Fore
SplineSet
60 0 m 1
 60 480 l 1
 220 480 l 1
 220 0 l 1
 60 0 l 1
60 565 m 1
 60 660 l 1
 220 660 l 1
 220 565 l 1
 60 565 l 1
EndSplineSet
EndChar

StartChar: j
Encoding: 106 106 75
Width: 280
GlyphClass: 2
Flags: MW
HStem: -225 95<-50 -50> 460 20G<60 220 220 220> 565 95<60 220 60 220>
VStem: -50 21G<-225 -130 -130 -130> 60 160<0 480 565 660>
LayerCount: 2
Fore
SplineSet
-50 -130 m 1
 40 -115 60 -60 60 0 c 2
 60 480 l 1
 220 480 l 1
 220 0 l 2
 220 -205 40 -220 -50 -225 c 1
 -50 -130 l 1
60 565 m 1
 60 660 l 1
 220 660 l 1
 220 565 l 1
 60 565 l 1
EndSplineSet
EndChar

StartChar: k
Encoding: 107 107 76
Width: 670
GlyphClass: 2
Flags: MW
HStem: 0 21G<60 60 60 220 460 460 460 650> 460 20G<440 630 630 630> 640 20G<60 220 220 220>
VStem: 60 160<0 70 260 660>
LayerCount: 2
Fore
SplineSet
60 0 m 1
 60 660 l 1
 220 660 l 1
 220 260 l 1
 440 480 l 1
 630 480 l 1
 400 250 l 1
 650 0 l 1
 460 0 l 1
 305 155 l 1
 220 70 l 1
 220 0 l 1
 60 0 l 1
EndSplineSet
EndChar

StartChar: l
Encoding: 108 108 77
Width: 280
GlyphClass: 2
Flags: MW
HStem: 0 21G<60 60 60 220> 640 20G<60 220 220 220>
VStem: 60 160<0 660 0 660>
LayerCount: 2
Fore
SplineSet
60 0 m 1
 60 660 l 1
 220 660 l 1
 220 0 l 1
 60 0 l 1
EndSplineSet
EndChar

StartChar: m
Encoding: 109 109 78
Width: 960
GlyphClass: 2
Flags: MW
HStem: 0 21G<60 60 60 220 400 400 400 560 740 740 740 900> 385 95<220 350 220 220 560 690 560 560>
VStem: 60 160<0 385 0 480 0 480> 60 340<0 355 355 370 0 480 0 480> 400 160<0 355 355 370> 400 340<0 355 355 370> 740 160<0 355 355 365 0 370>
CounterMasks: 1 2a
LayerCount: 2
Fore
SplineSet
60 0 m 1x10
 60 480 l 1
 700 480 l 2
 800 480 900 480 900 365 c 2
 900 0 l 1
 740 0 l 1
 740 355 l 2
 740 385 715 385 690 385 c 2
 560 385 l 1
 560 0 l 1
 400 0 l 1x04
 400 355 l 2
 400 385 375 385 350 385 c 2
 220 385 l 1
 220 0 l 1
 60 0 l 1x10
EndSplineSet
EndChar

StartChar: n
Encoding: 110 110 79
Width: 740
GlyphClass: 2
Flags: MW
HStem: 0 21G<60 60 60 220 520 520 520 680> 385 95<220 470 220 220>
VStem: 60 160<0 385 0 480 0 480> 520 160<0 355 355 365 0 370>
LayerCount: 2
Fore
SplineSet
60 0 m 1
 60 480 l 1
 480 480 l 2
 580 480 680 480 680 365 c 2
 680 0 l 1
 520 0 l 1
 520 355 l 2
 520 385 495 385 470 385 c 2
 220 385 l 1
 220 0 l 1
 60 0 l 1
EndSplineSet
EndChar

StartChar: o
Encoding: 111 111 80
Width: 740
GlyphClass: 2
Flags: MW
HStem: 0 95<210 470 270 470 470 480> 385 95<260 270 270 470>
VStem: 60 160<115 125 125 355> 520 160<125 355 355 365>
LayerCount: 2
Fore
SplineSet
60 115 m 2
 60 365 l 2
 60 480 160 480 260 480 c 2
 480 480 l 2
 580 480 680 480 680 365 c 2
 680 115 l 2
 680 0 580 0 480 0 c 2
 260 0 l 2
 160 0 60 0 60 115 c 2
220 125 m 2
 220 95 245 95 270 95 c 2
 470 95 l 2
 495 95 520 95 520 125 c 2
 520 355 l 2
 520 385 495 385 470 385 c 2
 270 385 l 2
 245 385 220 385 220 355 c 2
 220 125 l 2
EndSplineSet
EndChar

StartChar: p
Encoding: 112 112 81
Width: 740
GlyphClass: 2
Flags: MW
HStem: -225 21G<60 60 60 220> 0 95<220 470 470 480 220 470> 385 95<220 470 220 220>
VStem: 60 160<-225 0 95 385> 520 160<125 355 355 365>
LayerCount: 2
Fore
SplineSet
60 -225 m 1
 60 480 l 1
 480 480 l 2
 580 480 680 480 680 365 c 2
 680 115 l 2
 680 0 580 0 480 0 c 2
 220 0 l 1
 220 -225 l 1
 60 -225 l 1
220 95 m 1
 470 95 l 2
 495 95 520 95 520 125 c 2
 520 355 l 2
 520 385 495 385 470 385 c 2
 220 385 l 1
 220 95 l 1
EndSplineSet
EndChar

StartChar: q
Encoding: 113 113 82
Width: 740
GlyphClass: 2
Flags: MW
HStem: -225 21G<520 680 520 520> 0 95<210 520 270 520 270 520> 385 95<260 270 270 520>
VStem: 60 160<115 125 125 355> 520 160<-225 0 0 0 95 385 385 385>
LayerCount: 2
Fore
SplineSet
60 115 m 2
 60 365 l 2
 60 480 160 480 260 480 c 2
 680 480 l 1
 680 -225 l 1
 520 -225 l 1
 520 0 l 1
 260 0 l 2
 160 0 60 0 60 115 c 2
220 125 m 2
 220 95 245 95 270 95 c 2
 520 95 l 1
 520 385 l 1
 270 385 l 2
 245 385 220 385 220 355 c 2
 220 125 l 2
EndSplineSet
EndChar

StartChar: r
Encoding: 114 114 83
Width: 480
GlyphClass: 2
Flags: MW
HStem: 0 21G<60 60 60 220> 385 95<260 270 270 420>
VStem: 60 160<0 355 0 365 0 422.5>
LayerCount: 2
Fore
SplineSet
60 0 m 1
 60 365 l 2
 60 480 160 480 260 480 c 2
 420 480 l 1
 420 385 l 1
 270 385 l 2
 245 385 220 385 220 355 c 2
 220 0 l 1
 60 0 l 1
EndSplineSet
EndChar

StartChar: s
Encoding: 115 115 84
Width: 740
GlyphClass: 2
Flags: MW
HStem: 0 95<60 470 60 470 470 480> 205 95<210 480 270 470> 385 95<260 270 270 640>
VStem: 60 160<320 330 330 355 315 365 315 422.5> 520 160<125 175 175 185 57.5 190>
LayerCount: 2
Fore
SplineSet
60 0 m 1
 60 95 l 1
 470 95 l 2
 495 95 520 95 520 125 c 2
 520 175 l 2
 520 205 495 205 470 205 c 2
 260 205 l 2
 160 205 60 205 60 320 c 2
 60 365 l 2
 60 480 160 480 260 480 c 2
 640 480 l 1
 640 385 l 1
 270 385 l 2
 245 385 220 385 220 355 c 2
 220 330 l 2
 220 300 245 300 270 300 c 2
 480 300 l 2
 580 300 680 300 680 185 c 2
 680 115 l 2
 680 0 580 0 480 0 c 2
 60 0 l 1
EndSplineSet
EndChar

StartChar: t
Encoding: 116 116 85
Width: 480
GlyphClass: 2
Flags: MW
HStem: 0 95<210 420 270 420 270 420> 385 95<220 420 220 420> 640 20G<60 220 220 220>
VStem: 60 160<115 125 125 385 480 660>
LayerCount: 2
Fore
SplineSet
60 115 m 2
 60 660 l 1
 220 660 l 1
 220 480 l 1
 420 480 l 1
 420 385 l 1
 220 385 l 1
 220 125 l 2
 220 95 245 95 270 95 c 2
 420 95 l 1
 420 0 l 1
 260 0 l 2
 160 0 60 0 60 115 c 2
EndSplineSet
EndChar

StartChar: u
Encoding: 117 117 86
Width: 740
GlyphClass: 2
Flags: MW
HStem: 0 95<210 470 270 470 470 480> 460 20G<60 220 220 220 520 680 680 680>
VStem: 60 160<115 125 125 480> 520 160<125 480>
LayerCount: 2
Fore
SplineSet
60 115 m 2
 60 480 l 1
 220 480 l 1
 220 125 l 2
 220 95 245 95 270 95 c 2
 470 95 l 2
 495 95 520 95 520 125 c 2
 520 480 l 1
 680 480 l 1
 680 115 l 2
 680 0 580 0 480 0 c 2
 260 0 l 2
 160 0 60 0 60 115 c 2
EndSplineSet
EndChar

StartChar: v
Encoding: 118 118 87
Width: 720
GlyphClass: 2
Flags: MW
HStem: 0 21G<260 460 260 260> 460 20G<20 190 190 190 530 700 700 700>
LayerCount: 2
Fore
SplineSet
20 480 m 1
 190 480 l 1
 360 140 l 1
 530 480 l 1
 700 480 l 1
 460 0 l 1
 260 0 l 1
 20 480 l 1
EndSplineSet
EndChar

StartChar: w
Encoding: 119 119 88
Width: 960
GlyphClass: 2
Flags: MW
HStem: 0 21G<180 375 180 180 585 780 585 585> 460 20G<20 180 180 180 780 940 940 940>
LayerCount: 2
Fore
SplineSet
20 480 m 1
 180 480 l 1
 290 150 l 1
 390 450 l 1
 570 450 l 1
 670 150 l 1
 780 480 l 1
 940 480 l 1
 780 0 l 1
 585 0 l 1
 480 315 l 1
 375 0 l 1
 180 0 l 1
 20 480 l 1
EndSplineSet
EndChar

StartChar: x
Encoding: 120 120 89
Width: 710
GlyphClass: 2
Flags: MW
HStem: 0 21G<20 210 20 20 500 690 500 500> 460 20G<20 210 210 210 500 690 690 690>
LayerCount: 2
Fore
SplineSet
690 0 m 1
 500 0 l 1
 355 145 l 1
 210 0 l 1
 20 0 l 1
 260 240 l 1
 20 480 l 1
 210 480 l 1
 355 335 l 1
 500 480 l 1
 690 480 l 1
 450 240 l 1
 690 0 l 1
EndSplineSet
EndChar

StartChar: y
Encoding: 121 121 90
Width: 720
GlyphClass: 2
Flags: MW
HStem: -225 95<80 180 180 202.5 80 250 80 180> 460 20G<20 190 190 190 530 700 700 700>
VStem: 80 21G<-225 -130 -130 -130>
LayerCount: 2
Fore
SplineSet
20 480 m 1
 190 480 l 1
 360 140 l 1
 530 480 l 1
 700 480 l 1
 400 -120 l 2
 370 -180 345 -225 250 -225 c 2
 80 -225 l 1
 80 -130 l 1
 180 -130 l 2
 225 -130 230 -120 245 -90 c 2
 275 -30 l 1
 20 480 l 1
EndSplineSet
EndChar

StartChar: z
Encoding: 122 122 91
Width: 720
GlyphClass: 2
Flags: MW
HStem: 0 95<260 670 260 670> 385 95<70 440 70 650>
VStem: 50 600<0 480 105 480>
LayerCount: 2
Fore
SplineSet
50 0 m 1
 50 105 l 1
 440 385 l 1
 70 385 l 1
 70 480 l 1
 650 480 l 1
 650 375 l 1
 260 95 l 1
 670 95 l 1
 670 0 l 1
 50 0 l 1
EndSplineSet
EndChar

StartChar: braceleft
Encoding: 123 123 92
Width: 645
GlyphClass: 2
Flags: MW
HStem: -225 95<435 445 445 585> 565 95<422.5 585 445 585 445 585>
VStem: 245 140<-110 -100 -100 80 80 80 370 535>
LayerCount: 2
Fore
SplineSet
75 165 m 1
 75 285 l 1
 245 370 l 1
 245 545 l 2
 245 660 345 660 445 660 c 2
 585 660 l 1
 585 565 l 1
 435 565 l 2
 410 565 385 565 385 535 c 2
 385 315 l 1
 205 225 l 1
 385 135 l 1
 385 -100 l 2
 385 -130 410 -130 435 -130 c 2
 585 -130 l 1
 585 -225 l 1
 445 -225 l 2
 345 -225 245 -225 245 -110 c 2
 245 80 l 1
 75 165 l 1
EndSplineSet
EndChar

StartChar: bar
Encoding: 124 124 93
Width: 340
GlyphClass: 2
Flags: MW
HStem: -225 21G<100 100 100 240> 640 20G<100 240 240 240>
VStem: 100 140<-225 660 -225 660>
LayerCount: 2
Fore
SplineSet
100 -225 m 1
 100 660 l 1
 240 660 l 1
 240 -225 l 1
 100 -225 l 1
EndSplineSet
EndChar

StartChar: braceright
Encoding: 125 125 94
Width: 645
GlyphClass: 2
Flags: MW
HStem: -225 95<60 200 60 210> 565 95<60 200 200 210 60 200>
VStem: 260 140<-100 80 370 535 535 545>
LayerCount: 2
Fore
SplineSet
60 -130 m 1
 210 -130 l 2
 235 -130 260 -130 260 -100 c 2
 260 135 l 1
 440 225 l 1
 260 315 l 1
 260 535 l 2
 260 565 235 565 210 565 c 2
 60 565 l 1
 60 660 l 1
 200 660 l 2
 300 660 400 660 400 545 c 2
 400 370 l 1
 570 285 l 1
 570 165 l 1
 400 80 l 1
 400 -110 l 2
 400 -225 300 -225 200 -225 c 2
 60 -225 l 1
 60 -130 l 1
EndSplineSet
EndChar

StartChar: asciitilde
Encoding: 126 126 95
Width: 750
GlyphClass: 2
Flags: MW
HStem: 210 21G<60 210 60 60 492.5 542.5> 400 20G
VStem: 60 150<210 210> 540 150<420 420>
LayerCount: 2
Fore
SplineSet
210 210 m 1
 60 210 l 1
 125 360 170 420 245 420 c 0
 270 420 281 415 310 400 c 2
 455 325 l 2
 461 322 465 322 470 322 c 0
 491 322 515 370 540 420 c 1
 690 420 l 1
 625 270 580 210 505 210 c 0
 480 210 469 215 440 230 c 2
 295 305 l 2
 289 308 285 308 280 308 c 0
 259 308 235 260 210 210 c 1
EndSplineSet
EndChar

StartChar: exclamdown
Encoding: 161 161 97
Width: 320
GlyphClass: 2
Flags: MW
HStem: -225 21G<75 245 75 75> 195 20G<75 245 245 245> 295 140<75 245 75 245>
VStem: 75 170<-225 215 -225 215 295 435>
LayerCount: 2
Fore
SplineSet
75 215 m 1
 245 215 l 1
 245 -225 l 1
 75 -225 l 1
 75 215 l 1
75 295 m 1
 75 435 l 1
 245 435 l 1
 245 295 l 1
 75 295 l 1
EndSplineSet
EndChar

StartChar: cent
Encoding: 162 162 98
Width: 700
GlyphClass: 2
Flags: MW
HStem: 0 95<210 340 270 340 270 340 460 640> 385 95<260 270 270 340 460 640>
VStem: 60 160<115 125 125 355> 340 120<-75 0 -75 0 95 385 480 555>
LayerCount: 2
Fore
SplineSet
60 115 m 2
 60 365 l 2
 60 480 160 480 260 480 c 2
 340 480 l 1
 340 555 l 1
 460 555 l 1
 460 480 l 1
 640 480 l 1
 640 385 l 1
 460 385 l 1
 460 95 l 1
 640 95 l 1
 640 0 l 1
 460 0 l 1
 460 -75 l 1
 340 -75 l 1
 340 0 l 1
 260 0 l 2
 160 0 60 0 60 115 c 2
220 125 m 2
 220 95 245 95 270 95 c 2
 340 95 l 1
 340 385 l 1
 270 385 l 2
 245 385 220 385 220 355 c 2
 220 125 l 2
EndSplineSet
EndChar

StartChar: sterling
Encoding: 163 163 99
Width: 930
GlyphClass: 2
Flags: MW
HStem: 0 110<70 170 70 170 340 860> 310 95<70 170 70 170 340 590> 550 110<385 620 410 620 620 630>
VStem: 170 170<110 310 110 310 405 515> 690 170<465 515 515 525>
LayerCount: 2
Fore
SplineSet
70 0 m 1
 70 110 l 1
 170 110 l 1
 170 310 l 1
 70 310 l 1
 70 405 l 1
 170 405 l 1
 170 525 l 2
 170 660 290 660 410 660 c 2
 620 660 l 2
 740 660 860 660 860 525 c 2
 860 465 l 1
 690 465 l 1
 690 515 l 2
 690 550 660 550 630 550 c 2
 400 550 l 2
 370 550 340 550 340 515 c 2
 340 405 l 1
 590 405 l 1
 590 310 l 1
 340 310 l 1
 340 110 l 1
 860 110 l 1
 860 0 l 1
 70 0 l 1
EndSplineSet
EndChar

StartChar: currency
Encoding: 164 164 100
Width: 840
GlyphClass: 2
Flags: MW
HStem: 160 95<350 490 490 500 350 570 270 490> 405 95<340 350 350 490>
VStem: 170 140<267.5 280 280 380 267.5 400 267.5 400> 530 140<280 380 380 392.5>
LayerCount: 2
Fore
SplineSet
60 150 m 1
 170 260 l 1
 170 400 l 1
 60 510 l 1
 160 610 l 1
 270 500 l 1
 570 500 l 1
 680 610 l 1
 780 510 l 1
 670 400 l 1
 670 260 l 1
 780 150 l 1
 680 50 l 1
 570 160 l 1
 270 160 l 1
 160 50 l 1
 60 150 l 1
310 280 m 2
 310 255 330 255 350 255 c 2
 490 255 l 2
 510 255 530 255 530 280 c 2
 530 380 l 2
 530 405 510 405 490 405 c 2
 350 405 l 2
 330 405 310 405 310 380 c 2
 310 280 l 2
EndSplineSet
EndChar

StartChar: yen
Encoding: 165 165 101
Width: 910
GlyphClass: 2
Flags: MW
HStem: 0 21G<370 540 370 370> 75 95<170 370 170 370 540 740> 170 60<170 370 170 370 540 740> 230 95<170 355 170 370 170 355 555 740> 640 20G<20 230 230 230 680 890 890 890>
VStem: 370 170<0 75 0 75 170 230 0 230>
LayerCount: 2
Fore
SplineSet
20 660 m 1xdc
 230 660 l 1
 455 435 l 1
 680 660 l 1
 890 660 l 1
 555 325 l 1
 740 325 l 1
 740 230 l 1
 540 230 l 1
 540 170 l 1
 740 170 l 1
 740 75 l 1
 540 75 l 1
 540 0 l 1
 370 0 l 1
 370 75 l 1
 170 75 l 1
 170 170 l 1
 370 170 l 1
 370 230 l 1
 170 230 l 1
 170 325 l 1
 355 325 l 1
 20 660 l 1xdc
EndSplineSet
EndChar

StartChar: brokenbar
Encoding: 166 166 102
Width: 340
GlyphClass: 2
Flags: MW
HStem: -225 21G<100 240 100 100> 120 20G<100 240 240 240> 300 21G<100 100 100 240> 640 20G<100 240 240 240>
VStem: 100 140<-225 140 -225 140 300 660>
LayerCount: 2
Fore
SplineSet
100 140 m 1
 240 140 l 1
 240 -225 l 1
 100 -225 l 1
 100 140 l 1
100 300 m 1
 100 660 l 1
 240 660 l 1
 240 300 l 1
 100 300 l 1
EndSplineSet
EndChar

StartChar: section
Encoding: 167 167 103
Width: 880
GlyphClass: 2
Flags: MW
HStem: -175 110<300 310 310 570> 65 110<300 310 310 580> 310 110<285 570 300 570 570 580> 550 110<285 570 310 570 570 580>
VStem: 70 170<-40 -30 -30 0 -47.5 0 200 210 210 270 270 275 470 515> 640 170<-30 20 -107.5 30 -107.5 47.5 210 220 220 275 275 285 485 515 515 525>
LayerCount: 2
Fore
SplineSet
70 0 m 1
 240 0 l 1
 240 -30 l 2
 240 -65 270 -65 300 -65 c 2
 580 -65 l 2
 610 -65 640 -65 640 -30 c 2
 640 30 l 2
 640 65 610 65 580 65 c 2
 310 65 l 2
 190 65 70 65 70 200 c 2
 70 270 l 2
 70 330 110 360 150 370 c 1
 110 380 70 410 70 470 c 2
 70 525 l 2
 70 660 190 660 310 660 c 2
 570 660 l 2
 690 660 810 660 810 525 c 2
 810 485 l 1
 640 485 l 1
 640 515 l 2
 640 550 610 550 580 550 c 2
 300 550 l 2
 270 550 240 550 240 515 c 2
 240 455 l 2
 240 420 270 420 300 420 c 2
 570 420 l 2
 690 420 810 420 810 285 c 2
 810 220 l 2
 810 160 770 130 730 120 c 1
 770 110 810 80 810 20 c 2
 810 -40 l 2
 810 -175 690 -175 570 -175 c 2
 310 -175 l 2
 190 -175 70 -175 70 -40 c 2
 70 0 l 1
240 210 m 2
 240 175 270 175 300 175 c 2
 580 175 l 2
 610 175 640 175 640 210 c 2
 640 275 l 2
 640 310 610 310 580 310 c 2
 300 310 l 2
 270 310 240 310 240 275 c 2
 240 210 l 2
EndSplineSet
EndChar

StartChar: dieresis
Encoding: 168 168 104
Width: 500
GlyphClass: 2
Flags: MW
HStem: 575 110<60 195 60 195 305 440>
VStem: 60 135<575 685 575 685> 305 135<575 685 575 685>
LayerCount: 2
Fore
SplineSet
60 575 m 1
 60 685 l 1
 195 685 l 1
 195 575 l 1
 60 575 l 1
305 575 m 1
 305 685 l 1
 440 685 l 1
 440 575 l 1
 305 575 l 1
EndSplineSet
EndChar

StartChar: copyright
Encoding: 169 169 105
Width: 1030
GlyphClass: 2
Flags: MW
HStem: 0 70<210 740 290 740 740 765 290 770> 160 70<430 720 480 720 480 720> 430 70<470 480 480 720> 590 70<265 290 290 740>
VStem: 60 130<115 125 125 535> 310 130<250 255 255 405> 840 130<125 535 535 545>
LayerCount: 2
Fore
SplineSet
60 115 m 2
 60 545 l 2
 60 660 160 660 260 660 c 2
 770 660 l 2
 870 660 970 660 970 545 c 2
 970 115 l 2
 970 0 870 0 770 0 c 2
 260 0 l 2
 160 0 60 0 60 115 c 2
190 125 m 2
 190 70 240 70 290 70 c 2
 740 70 l 2
 790 70 840 70 840 125 c 2
 840 535 l 2
 840 590 790 590 740 590 c 2
 290 590 l 2
 240 590 190 590 190 535 c 2
 190 125 l 2
310 250 m 2
 310 410 l 2
 310 500 390 500 470 500 c 2
 720 500 l 1
 720 430 l 1
 480 430 l 2
 460 430 440 430 440 405 c 2
 440 255 l 2
 440 230 460 230 480 230 c 2
 720 230 l 1
 720 160 l 1
 470 160 l 2
 390 160 310 160 310 250 c 2
EndSplineSet
EndChar

StartChar: ordfeminine
Encoding: 170 170 106
Width: 560
GlyphClass: 2
Flags: MW
HStem: 175 70<60 500 60 500> 320 70<180 370 230 370 230 500> 465 70<220 230 230 370> 590 70<100 330 100 340>
VStem: 60 130<410 415 415 440 402.5 445 402.5 490> 370 130<390 465 465 465 535 565 565 570>
LayerCount: 2
Fore
SplineSet
60 175 m 1
 60 245 l 1
 500 245 l 1
 500 175 l 1
 60 175 l 1
60 410 m 2
 60 445 l 2
 60 535 140 535 220 535 c 2
 370 535 l 1
 370 565 l 2
 370 590 350 590 330 590 c 2
 100 590 l 1
 100 660 l 1
 340 660 l 2
 420 660 500 660 500 570 c 2
 500 320 l 1
 220 320 l 2
 140 320 60 320 60 410 c 2
190 415 m 2
 190 390 210 390 230 390 c 2
 370 390 l 1
 370 465 l 1
 230 465 l 2
 210 465 190 465 190 440 c 2
 190 415 l 2
EndSplineSet
EndChar

StartChar: guillemotleft
Encoding: 171 171 107
Width: 790
GlyphClass: 2
Flags: MW
HStem: 40 400<260 410 260 410 580 730 260 580>
VStem: 60 350<40 240> 380 350<40 240>
LayerCount: 2
Fore
SplineSet
380 240 m 1xa0
 580 440 l 1
 730 440 l 1
 550 240 l 1
 730 40 l 1
 580 40 l 1
 380 240 l 1xa0
60 240 m 1xc0
 260 440 l 1
 410 440 l 1
 230 240 l 1
 410 40 l 1
 260 40 l 1
 60 240 l 1xc0
EndSplineSet
EndChar

StartChar: logicalnot
Encoding: 172 172 108
Width: 680
GlyphClass: 2
Flags: MW
HStem: 280 120<60 620 60 480>
VStem: 480 140<80 280 280 280>
LayerCount: 2
Fore
SplineSet
60 280 m 1
 60 400 l 1
 620 400 l 1
 620 80 l 1
 480 80 l 1
 480 280 l 1
 60 280 l 1
EndSplineSet
EndChar

StartChar: uni00AD
Encoding: 173 173 109
Width: 540
GlyphClass: 2
Flags: MW
HStem: 180 120<60 480 60 480>
VStem: 60 420<180 300 180 300>
LayerCount: 2
Fore
SplineSet
60 180 m 1
 60 300 l 1
 480 300 l 1
 480 180 l 1
 60 180 l 1
EndSplineSet
EndChar

StartChar: registered
Encoding: 174 174 110
Width: 1060
GlyphClass: 2
Flags: MW
HStem: 0 70<210 770 290 770 770 795 290 800> 160 21G<310 310 310 440 620 620 620 760> 295 70<440 485 440 580 440 655> 430 70<440 580 440 440> 590 70<265 290 290 770>
VStem: 60 130<115 125 125 535> 310 130<160 295 365 430> 620 130<390 405 405 410 345 417.5> 870 130<125 535 535 545>
LayerCount: 2
Fore
SplineSet
60 115 m 2
 60 545 l 2
 60 660 160 660 260 660 c 2
 800 660 l 2
 900 660 1000 660 1000 545 c 2
 1000 115 l 2
 1000 0 900 0 800 0 c 2
 260 0 l 2
 160 0 60 0 60 115 c 2
190 125 m 2
 190 70 240 70 290 70 c 2
 770 70 l 2
 820 70 870 70 870 125 c 2
 870 535 l 2
 870 590 820 590 770 590 c 2
 290 590 l 2
 240 590 190 590 190 535 c 2
 190 125 l 2
310 160 m 1
 310 500 l 1
 590 500 l 2
 670 500 750 500 750 410 c 2
 750 385 l 2
 750 305 685 295 625 295 c 1
 760 160 l 1
 620 160 l 1
 485 295 l 1
 440 295 l 1
 440 160 l 1
 310 160 l 1
440 365 m 1
 580 365 l 2
 600 365 620 365 620 390 c 2
 620 405 l 2
 620 430 600 430 580 430 c 2
 440 430 l 1
 440 365 l 1
EndSplineSet
EndChar

StartChar: macron
Encoding: 175 175 111
Width: 500
GlyphClass: 2
Flags: MW
HStem: 575 95<70 430 70 430>
VStem: 70 360<575 670 575 670>
LayerCount: 2
Fore
SplineSet
70 575 m 1
 70 670 l 1
 430 670 l 1
 430 575 l 1
 70 575 l 1
EndSplineSet
EndChar

StartChar: degree
Encoding: 176 176 112
Width: 560
GlyphClass: 2
Flags: MW
HStem: 390 70<180 330 230 330 330 340> 590 70<220 230 230 330>
VStem: 60 130<480 485 485 565 472.5 570 472.5 615> 370 130<485 565 565 570 435 577.5>
LayerCount: 2
Fore
SplineSet
60 480 m 2
 60 570 l 2
 60 660 140 660 220 660 c 2
 340 660 l 2
 420 660 500 660 500 570 c 2
 500 480 l 2
 500 390 420 390 340 390 c 2
 220 390 l 2
 140 390 60 390 60 480 c 2
190 485 m 2
 190 460 210 460 230 460 c 2
 330 460 l 2
 350 460 370 460 370 485 c 2
 370 565 l 2
 370 590 350 590 330 590 c 2
 230 590 l 2
 210 590 190 590 190 565 c 2
 190 485 l 2
EndSplineSet
EndChar

StartChar: plusminus
Encoding: 177 177 113
Width: 720
GlyphClass: 2
Flags: MW
HStem: 0 120<60 660 60 660> 170 21G<275 445 275 275> 300 120<60 275 60 275 445 660> 530 20G<275 445 445 445>
VStem: 275 170<170 300 170 300 420 550>
LayerCount: 2
Fore
SplineSet
60 0 m 1
 60 120 l 1
 660 120 l 1
 660 0 l 1
 60 0 l 1
60 300 m 1
 60 420 l 1
 275 420 l 1
 275 550 l 1
 445 550 l 1
 445 420 l 1
 660 420 l 1
 660 300 l 1
 445 300 l 1
 445 170 l 1
 275 170 l 1
 275 300 l 1
 60 300 l 1
EndSplineSet
EndChar

StartChar: uni00B2
Encoding: 178 178 114
Width: 560
GlyphClass: 2
Flags: MW
HStem: 320 70<190 500 190 500> 465 70<220 330 230 330 330 340> 590 70<80 330 80 340>
VStem: 60 130<390 440 390 445 390 490> 370 130<560 565 565 570>
LayerCount: 2
Fore
SplineSet
60 320 m 1
 60 445 l 2
 60 535 150 535 230 535 c 2
 330 535 l 2
 350 535 370 535 370 560 c 2
 370 565 l 2
 370 590 350 590 330 590 c 2
 80 590 l 1
 80 660 l 1
 340 660 l 2
 420 660 500 660 500 570 c 2
 500 555 l 2
 500 465 420 465 340 465 c 2
 230 465 l 2
 210 465 190 465 190 440 c 2
 190 390 l 1
 500 390 l 1
 500 320 l 1
 60 320 l 1
EndSplineSet
EndChar

StartChar: uni00B3
Encoding: 179 179 115
Width: 560
GlyphClass: 2
Flags: MW
HStem: 320 70<60 330 60 330 330 340> 465 70<120 330 120 330> 590 70<60 330 60 340>
VStem: 370 130<415 440 365 452.5 560 565 565 577.5>
LayerCount: 2
Fore
SplineSet
60 320 m 1
 60 390 l 1
 330 390 l 2
 350 390 370 390 370 415 c 2
 370 440 l 2
 370 465 350 465 330 465 c 2
 120 465 l 1
 120 535 l 1
 330 535 l 2
 350 535 370 535 370 560 c 2
 370 565 l 2
 370 590 350 590 330 590 c 2
 60 590 l 1
 60 660 l 1
 340 660 l 2
 420 660 500 660 500 570 c 0
 500 525 460 510 440 505 c 1
 460 500 500 485 500 440 c 2
 500 410 l 2
 500 320 420 320 340 320 c 2
 60 320 l 1
EndSplineSet
EndChar

StartChar: acute
Encoding: 180 180 116
Width: 500
GlyphClass: 2
Flags: MW
HStem: 550 160<150 420 250 260>
VStem: 150 270<550 710>
LayerCount: 2
Fore
SplineSet
150 550 m 1
 250 710 l 1
 420 710 l 1
 260 550 l 1
 150 550 l 1
EndSplineSet
EndChar

StartChar: uni00B5
Encoding: 181 181 117
Width: 740
GlyphClass: 2
Flags: MW
HStem: -225 21G<60 60 60 220> 0 95<270 470 470 480 220 470> 460 20G<60 220 220 220 520 680 680 680>
VStem: 60 160<-225 0 107.5 120 120 480> 520 160<125 480>
LayerCount: 2
Fore
SplineSet
60 -225 m 1
 60 480 l 1
 220 480 l 1
 220 120 l 2
 220 95 245 95 270 95 c 2
 470 95 l 2
 495 95 520 95 520 125 c 2
 520 480 l 1
 680 480 l 1
 680 115 l 2
 680 0 580 0 480 0 c 2
 220 0 l 1
 220 -225 l 1
 60 -225 l 1
EndSplineSet
EndChar

StartChar: paragraph
Encoding: 182 182 118
Width: 750
GlyphClass: 2
Flags: MW
HStem: -225 21G<290 430 290 290 550 690 550 550> 565 95<430 550 430 430>
VStem: 290 140<-225 260 260 260 -225 660> 550 140<-225 565 565 565>
LayerCount: 2
Fore
SplineSet
60 430 m 2
 60 490 l 2
 60 620 164 660 290 660 c 2
 690 660 l 1
 690 -225 l 1
 550 -225 l 1
 550 565 l 1
 430 565 l 1
 430 -225 l 1
 290 -225 l 1
 290 260 l 1
 158 260 60 300 60 430 c 2
EndSplineSet
EndChar

StartChar: periodcentered
Encoding: 183 183 119
Width: 320
GlyphClass: 2
Flags: MW
HStem: 170 140<75 245 75 245>
VStem: 75 170<170 310 170 310>
LayerCount: 2
Fore
SplineSet
75 170 m 1
 75 310 l 1
 245 310 l 1
 245 170 l 1
 75 170 l 1
EndSplineSet
EndChar

StartChar: cedilla
Encoding: 184 184 120
Width: 500
GlyphClass: 2
Flags: MW
HStem: -225 70<150 180 180 200 150 210 150 180> -20 20G<165 280 280 280>
VStem: 150 21G<-225 -155 -155 -155> 250 120<-130 -115 -175 -105>
LayerCount: 2
Fore
SplineSet
150 -155 m 1
 180 -155 l 2
 220 -155 250 -145 250 -115 c 0
 250 -95 240 -75 165 0 c 1
 280 0 l 1
 350 -70 370 -95 370 -135 c 0
 370 -215 290 -225 210 -225 c 2
 150 -225 l 1
 150 -155 l 1
EndSplineSet
EndChar

StartChar: uni00B9
Encoding: 185 185 121
Width: 350
GlyphClass: 2
Flags: MW
HStem: 580 80<60 290 60 160>
VStem: 160 130<320 580 580 580>
LayerCount: 2
Fore
SplineSet
60 580 m 1
 60 660 l 1
 290 660 l 1
 290 320 l 1
 160 320 l 1
 160 580 l 1
 60 580 l 1
EndSplineSet
EndChar

StartChar: ordmasculine
Encoding: 186 186 122
Width: 560
GlyphClass: 2
Flags: MW
HStem: 175 70<60 500 60 500> 320 70<180 330 230 330 330 340> 590 70<220 230 230 330>
VStem: 60 130<410 415 415 565> 370 130<415 565 565 570>
LayerCount: 2
Fore
SplineSet
60 175 m 1
 60 245 l 1
 500 245 l 1
 500 175 l 1
 60 175 l 1
60 410 m 2
 60 570 l 2
 60 660 140 660 220 660 c 2
 340 660 l 2
 420 660 500 660 500 570 c 2
 500 410 l 2
 500 320 420 320 340 320 c 2
 220 320 l 2
 140 320 60 320 60 410 c 2
190 415 m 2
 190 390 210 390 230 390 c 2
 330 390 l 2
 350 390 370 390 370 415 c 2
 370 565 l 2
 370 590 350 590 330 590 c 2
 230 590 l 2
 210 590 190 590 190 565 c 2
 190 415 l 2
EndSplineSet
EndChar

StartChar: guillemotright
Encoding: 187 187 123
Width: 790
GlyphClass: 2
Flags: MW
HStem: 40 400<60 210 60 210 60 380 380 530>
VStem: 60 350<40 240 240 440> 380 350<40 240 240 440>
LayerCount: 2
Fore
SplineSet
380 40 m 1xa0
 560 240 l 1
 380 440 l 1
 530 440 l 1
 730 240 l 1
 530 40 l 1
 380 40 l 1xa0
60 40 m 1xc0
 240 240 l 1
 60 440 l 1
 210 440 l 1
 410 240 l 1
 210 40 l 1
 60 40 l 1xc0
EndSplineSet
EndChar

StartChar: onequarter
Encoding: 188 188 124
Width: 1030
GlyphClass: 2
Flags: MW
HStem: 0 21<220 220 220 360 840 970 840 840> 60 70<530 530 669 840> 320 20 580 80<60 290 60 160> 640 20<60 290 290 290 550 690 690 690>
VStem: 160 130<320 580 580 580> 530 21<60 130 130 130> 840 130<0 60 60 60 130 263 263 263>
LayerCount: 2
Fore
SplineSet
530 60 m 1x63
 530 130 l 1
 800 340 l 1
 970 340 l 1
 970 0 l 1
 840 0 l 1
 840 60 l 1
 530 60 l 1x63
669 130 m 1
 840 130 l 1
 840 263 l 1
 669 130 l 1
220 0 m 1x88
 550 660 l 1
 690 660 l 1
 360 0 l 1
 220 0 l 1x88
60 580 m 1x14
 60 660 l 1
 290 660 l 1
 290 320 l 1
 160 320 l 1
 160 580 l 1
 60 580 l 1x14
EndSplineSet
EndChar

StartChar: onehalf
Encoding: 189 189 125
Width: 1070
GlyphClass: 2
Flags: MW
HStem: 0 21<220 220 220 360 570 570 570 1010> 0 70<700 1010 700 1010> 145 70<730 840 740 840 840 850> 270 70<590 840 590 850> 580 80<60 290 60 160> 640 20<60 290 290 290 550 690 690 690>
VStem: 160 130<320 580 580 580> 570 130<70 120 70 125 70 170> 880 130<240 245 245 250>
LayerCount: 2
Fore
SplineSet
570 0 m 1x7180
 570 125 l 2
 570 215 660 215 740 215 c 2
 840 215 l 2
 860 215 880 215 880 240 c 2
 880 245 l 2
 880 270 860 270 840 270 c 2
 590 270 l 1
 590 340 l 1
 850 340 l 2
 930 340 1010 340 1010 250 c 2
 1010 235 l 2
 1010 145 930 145 850 145 c 2
 740 145 l 2
 720 145 700 145 700 120 c 2
 700 70 l 1
 1010 70 l 1
 1010 0 l 1
 570 0 l 1x7180
220 0 m 1x84
 550 660 l 1
 690 660 l 1
 360 0 l 1
 220 0 l 1x84
60 580 m 1x0a
 60 660 l 1
 290 660 l 1
 290 320 l 1
 160 320 l 1
 160 580 l 1
 60 580 l 1x0a
EndSplineSet
EndChar

StartChar: threequarters
Encoding: 190 190 126
Width: 1190
GlyphClass: 2
Flags: MW
HStem: 0 21<380 380 380 520 1000 1130 1000 1000> 60 70<690 690 829 1000> 320 20 320 70<60 330 60 330 330 340> 465 70<120 330 120 330> 590 70<60 330 60 340> 640 20<60 340 340 380 710 850 850 850>
VStem: 370 130<415 440 365 452.5 560 565 565 577.5> 690 21<60 130 130 130> 1000 130<0 60 60 60 130 263 263 263>
LayerCount: 2
Fore
SplineSet
690 60 m 1x60c0
 690 130 l 1
 960 340 l 1
 1130 340 l 1
 1130 0 l 1
 1000 0 l 1
 1000 60 l 1
 690 60 l 1x60c0
829 130 m 1
 1000 130 l 1
 1000 263 l 1
 829 130 l 1
60 320 m 1x1d
 60 390 l 1
 330 390 l 2
 350 390 370 390 370 415 c 2
 370 440 l 2
 370 465 350 465 330 465 c 2
 120 465 l 1
 120 535 l 1
 330 535 l 2
 350 535 370 535 370 560 c 2
 370 565 l 2
 370 590 350 590 330 590 c 2
 60 590 l 1
 60 660 l 1
 340 660 l 2
 420 660 500 660 500 570 c 0
 500 525 460 510 440 505 c 1
 460 500 500 485 500 440 c 2
 500 410 l 2
 500 320 420 320 340 320 c 2
 60 320 l 1x1d
380 0 m 1x82
 710 660 l 1
 850 660 l 1
 520 0 l 1
 380 0 l 1x82
EndSplineSet
EndChar

StartChar: questiondown
Encoding: 191 191 127
Width: 910
GlyphClass: 2
Flags: MW
HStem: -225 110<305 315 315 835> 20 110<290 395 315 385> 195 20G<455 625 625 625> 295 140<455 625 455 625>
VStem: 75 170<-90 -80 -80 -15 -97.5 -5 -97.5 62.5> 455 170<165 215 87.5 215 295 435>
LayerCount: 2
Fore
SplineSet
835 -115 m 1
 835 -225 l 1
 315 -225 l 2
 195 -225 75 -225 75 -90 c 2
 75 -5 l 2
 75 130 195 130 315 130 c 2
 395 130 l 2
 425 130 455 130 455 165 c 2
 455 215 l 1
 625 215 l 1
 625 155 l 2
 625 20 505 20 385 20 c 2
 305 20 l 2
 275 20 245 20 245 -15 c 2
 245 -80 l 2
 245 -115 275 -115 305 -115 c 2
 835 -115 l 1
625 435 m 1
 625 295 l 1
 455 295 l 1
 455 435 l 1
 625 435 l 1
EndSplineSet
EndChar

StartChar: Agrave
Encoding: 192 192 128
Width: 930
GlyphClass: 2
Flags: MW
HStem: 0 21<20 20 20 200 730 730 730 910> 190 110<350 580 350 635 295 580> 640 20<350 580 580 580> 730 160<455 465 295 565 455 455>
VStem: 295 270<730 890>
LayerCount: 2
Fore
SplineSet
295 890 m 1
 465 890 l 1
 565 730 l 1
 455 730 l 1
 295 890 l 1
20 0 m 1
 350 660 l 1
 580 660 l 1
 910 0 l 1
 730 0 l 1
 635 190 l 1
 295 190 l 1
 200 0 l 1
 20 0 l 1
350 300 m 1
 580 300 l 1
 465 530 l 1
 350 300 l 1
EndSplineSet
EndChar

StartChar: Aacute
Encoding: 193 193 129
Width: 930
GlyphClass: 2
Flags: MW
HStem: 0 21<20 20 20 200 730 730 730 910> 190 110<350 580 350 635 295 580> 640 20<350 580 580 580> 730 160<365 635 465 475>
VStem: 365 270
LayerCount: 2
Fore
SplineSet
365 730 m 1
 465 890 l 1
 635 890 l 1
 475 730 l 1
 365 730 l 1
20 0 m 1
 350 660 l 1
 580 660 l 1
 910 0 l 1
 730 0 l 1
 635 190 l 1
 295 190 l 1
 200 0 l 1
 20 0 l 1
350 300 m 1
 580 300 l 1
 465 530 l 1
 350 300 l 1
EndSplineSet
EndChar

StartChar: Acircumflex
Encoding: 194 194 130
Width: 930
GlyphClass: 2
Flags: MW
HStem: 0 21<20 20 20 200 730 730 730 910> 190 110<350 580 350 635 295 580> 640 20<350 580 580 580> 730 160<255 525 255 525 405 555 405 675>
LayerCount: 2
Fore
SplineSet
255 730 m 1
 405 890 l 1
 525 890 l 1
 675 730 l 1
 555 730 l 1
 465 820 l 1
 375 730 l 1
 255 730 l 1
20 0 m 1
 350 660 l 1
 580 660 l 1
 910 0 l 1
 730 0 l 1
 635 190 l 1
 295 190 l 1
 200 0 l 1
 20 0 l 1
350 300 m 1
 580 300 l 1
 465 530 l 1
 350 300 l 1
EndSplineSet
EndChar

StartChar: Atilde
Encoding: 195 195 131
Width: 930
GlyphClass: 2
Flags: MW
HStem: 0 21<20 20 20 200 730 730 730 910> 190 110<350 580 350 635 295 580> 640 20<350 580 580 580> 740 80<530 580> 800 80<350 400>
VStem: 265 90 575 90
LayerCount: 2
Fore
SplineSet
370 880 m 0x0e
 395 880 405 880 465 850 c 0
 505 830 525 820 535 820 c 0x16
 550 820 560 820 575 880 c 1
 675 880 l 1x0e
 650 775 600 740 560 740 c 0x16
 535 740 525 740 465 770 c 0
 425 790 405 800 395 800 c 0x0e
 380 800 370 800 355 740 c 1
 255 740 l 1x16
 280 845 330 880 370 880 c 0x0e
20 0 m 1xe0
 350 660 l 1
 580 660 l 1
 910 0 l 1
 730 0 l 1
 635 190 l 1
 295 190 l 1
 200 0 l 1
 20 0 l 1xe0
350 300 m 1
 580 300 l 1
 465 530 l 1
 350 300 l 1
EndSplineSet
EndChar

StartChar: Adieresis
Encoding: 196 196 132
Width: 930
GlyphClass: 2
Flags: MW
HStem: 0 21<20 20 20 200 730 730 730 910> 190 110<350 580 350 635 295 580> 640 20<350 580 580 580> 755 110<275 410 275 410 520 655>
VStem: 275 135<755 865 755 865> 520 135<755 865 755 865>
LayerCount: 2
Fore
SplineSet
275 755 m 1
 275 865 l 1
 410 865 l 1
 410 755 l 1
 275 755 l 1
520 755 m 1
 520 865 l 1
 655 865 l 1
 655 755 l 1
 520 755 l 1
20 0 m 1
 350 660 l 1
 580 660 l 1
 910 0 l 1
 730 0 l 1
 635 190 l 1
 295 190 l 1
 200 0 l 1
 20 0 l 1
350 300 m 1
 580 300 l 1
 465 530 l 1
 350 300 l 1
EndSplineSet
EndChar

StartChar: Aring
Encoding: 197 197 133
Width: 930
GlyphClass: 2
Flags: MW
HStem: 0 21<20 20 20 200 730 730 730 910> 190 110<350 580 350 635 295 580> 640 20<350 580 360 400 400 530 580 580> 660 65<420 510 510 520 420 580 360 510 420 510 510 520 420 530> 825 65<410 420 420 510>
VStem: 280 110<745 805 738.5 833.5> 540 110<745 805 716.5 811.5>
LayerCount: 2
Fore
SplineSet
280 745 m 2x1e
 280 805 l 2
 280 862 320 890 400 890 c 2
 530 890 l 2
 610 890 650 862 650 805 c 2
 650 745 l 2
 650 688 610 660 530 660 c 2
 400 660 l 2
 320 660 280 688 280 745 c 2x1e
390 745 m 2
 390 732 400 725 420 725 c 2
 510 725 l 2
 530 725 540 732 540 745 c 2
 540 805 l 2
 540 818 530 825 510 825 c 2
 420 825 l 2
 400 825 390 818 390 805 c 2
 390 745 l 2
20 0 m 1xe0
 350 660 l 1
 580 660 l 1
 910 0 l 1
 730 0 l 1
 635 190 l 1
 295 190 l 1
 200 0 l 1
 20 0 l 1xe0
350 300 m 1
 580 300 l 1
 465 530 l 1
 350 300 l 1
EndSplineSet
EndChar

StartChar: AE
Encoding: 198 198 134
Width: 1350
GlyphClass: 2
Flags: MW
HStem: 0 110<760 1280 760 1280> 190 110<340 590 340 590 285 590> 305 110<760 1230 760 1230> 550 110<465 590 465 465 760 1280 760 760>
VStem: 590 170<110 190 190 190 300 305 415 550>
LayerCount: 2
Fore
SplineSet
20 0 m 1
 350 660 l 1
 1280 660 l 1
 1280 550 l 1
 760 550 l 1
 760 415 l 1
 1230 415 l 1
 1230 305 l 1
 760 305 l 1
 760 110 l 1
 1280 110 l 1
 1280 0 l 1
 590 0 l 1
 590 190 l 1
 285 190 l 1
 190 0 l 1
 20 0 l 1
340 300 m 1
 590 300 l 1
 590 550 l 1
 465 550 l 1
 340 300 l 1
EndSplineSet
EndChar

StartChar: Ccedilla
Encoding: 199 199 135
Width: 880
GlyphClass: 2
Flags: MW
HStem: -225 70<380 410 410 430 380 440 380 410> -20 20<250 310 310 810 395 510 510 510> 0 110<300 310 310 810 395 510 510 510> 550 110<285 810 310 810 310 810>
VStem: 70 170<135 145 145 515> 380 21<-225 -155 -155 -155> 480 120<-130 -115 -175 -105>
LayerCount: 2
Fore
SplineSet
380 -155 m 1xc6
 410 -155 l 2
 450 -155 480 -145 480 -115 c 0
 480 -95 470 -75 395 0 c 1
 510 0 l 1
 580 -70 600 -95 600 -135 c 0
 600 -215 520 -225 440 -225 c 2
 380 -225 l 1
 380 -155 l 1xc6
70 135 m 2x38
 70 525 l 2
 70 660 190 660 310 660 c 2
 810 660 l 1
 810 550 l 1
 300 550 l 2
 270 550 240 550 240 515 c 2
 240 145 l 2
 240 110 270 110 300 110 c 2
 810 110 l 1
 810 0 l 1
 310 0 l 2
 190 0 70 0 70 135 c 2x38
EndSplineSet
EndChar

StartChar: Egrave
Encoding: 200 200 136
Width: 880
GlyphClass: 2
Flags: MW
HStem: 0 110<240 810 240 810> 305 110<240 760 240 760> 550 110<240 810 240 240> 730 160<430 440 270 540 430 430>
VStem: 70 170<110 305 415 550> 270 270<730 890>
LayerCount: 2
Fore
SplineSet
270 890 m 1
 440 890 l 1
 540 730 l 1
 430 730 l 1
 270 890 l 1
70 0 m 1
 70 660 l 1
 810 660 l 1
 810 550 l 1
 240 550 l 1
 240 415 l 1
 760 415 l 1
 760 305 l 1
 240 305 l 1
 240 110 l 1
 810 110 l 1
 810 0 l 1
 70 0 l 1
EndSplineSet
EndChar

StartChar: Eacute
Encoding: 201 201 137
Width: 880
GlyphClass: 2
Flags: MW
HStem: 0 110<240 810 240 810> 305 110<240 760 240 760> 550 110<240 810 240 240> 730 160<340 610 440 450>
VStem: 70 170<110 305 415 550> 340 270<730 890>
LayerCount: 2
Fore
SplineSet
340 730 m 1
 440 890 l 1
 610 890 l 1
 450 730 l 1
 340 730 l 1
70 0 m 1
 70 660 l 1
 810 660 l 1
 810 550 l 1
 240 550 l 1
 240 415 l 1
 760 415 l 1
 760 305 l 1
 240 305 l 1
 240 110 l 1
 810 110 l 1
 810 0 l 1
 70 0 l 1
EndSplineSet
EndChar

StartChar: Ecircumflex
Encoding: 202 202 138
Width: 880
GlyphClass: 2
Flags: MW
HStem: 0 110<240 810 240 810> 305 110<240 760 240 760> 550 110<240 810 240 240> 730 160<230 500 230 500 380 530 380 650>
VStem: 70 170<110 305 415 550>
LayerCount: 2
Fore
SplineSet
230 730 m 1
 380 890 l 1
 500 890 l 1
 650 730 l 1
 530 730 l 1
 440 820 l 1
 350 730 l 1
 230 730 l 1
70 0 m 1
 70 660 l 1
 810 660 l 1
 810 550 l 1
 240 550 l 1
 240 415 l 1
 760 415 l 1
 760 305 l 1
 240 305 l 1
 240 110 l 1
 810 110 l 1
 810 0 l 1
 70 0 l 1
EndSplineSet
EndChar

StartChar: Edieresis
Encoding: 203 203 139
Width: 880
GlyphClass: 2
Flags: MW
HStem: 0 110<240 810 240 810> 305 110<240 760 240 760> 550 110<240 810 240 240> 755 110<250 385 250 385 495 630>
VStem: 70 170<110 305 415 550> 250 135<755 865 755 865> 495 135<755 865 755 865>
LayerCount: 2
Fore
SplineSet
250 755 m 1
 250 865 l 1
 385 865 l 1
 385 755 l 1
 250 755 l 1
495 755 m 1
 495 865 l 1
 630 865 l 1
 630 755 l 1
 495 755 l 1
70 0 m 1
 70 660 l 1
 810 660 l 1
 810 550 l 1
 240 550 l 1
 240 415 l 1
 760 415 l 1
 760 305 l 1
 240 305 l 1
 240 110 l 1
 810 110 l 1
 810 0 l 1
 70 0 l 1
EndSplineSet
EndChar

StartChar: Igrave
Encoding: 204 204 140
Width: 310
GlyphClass: 2
Flags: MW
HStem: 0 21<70 70 70 240> 640 20<70 240 240 240> 730 160<150 160 -10 260 150 150>
VStem: -10 270<730 890> 70 170<0 660 0 660>
LayerCount: 2
Fore
SplineSet
-10 890 m 1x30
 160 890 l 1
 260 730 l 1
 150 730 l 1
 -10 890 l 1x30
70 0 m 1xc8
 70 660 l 1
 240 660 l 1
 240 0 l 1
 70 0 l 1xc8
EndSplineSet
EndChar

StartChar: Iacute
Encoding: 205 205 141
Width: 310
GlyphClass: 2
Flags: MW
HStem: 0 21<70 70 70 240> 640 20<70 240 240 240> 730 160<50 320 150 160>
VStem: 50 270<730 890> 70 170<0 660 0 660>
LayerCount: 2
Fore
SplineSet
50 730 m 1x30
 150 890 l 1
 320 890 l 1
 160 730 l 1
 50 730 l 1x30
70 0 m 1xc8
 70 660 l 1
 240 660 l 1
 240 0 l 1
 70 0 l 1xc8
EndSplineSet
EndChar

StartChar: Icircumflex
Encoding: 206 206 142
Width: 340
GlyphClass: 2
Flags: MW
HStem: 0 21<85 85 85 255> 640 20<85 255 255 255> 730 160<-40 230 -40 230 110 260 110 380>
VStem: 85 170<0 660 0 660>
LayerCount: 2
Fore
SplineSet
-40 730 m 1
 110 890 l 1
 230 890 l 1
 380 730 l 1
 260 730 l 1
 170 820 l 1
 80 730 l 1
 -40 730 l 1
85 0 m 1
 85 660 l 1
 255 660 l 1
 255 0 l 1
 85 0 l 1
EndSplineSet
EndChar

StartChar: Idieresis
Encoding: 207 207 143
Width: 340
GlyphClass: 2
Flags: MW
HStem: 0 21<85 85 85 255> 640 20<85 255 255 255> 755 110<-20 115 -20 115 225 360>
VStem: -20 135<755 865 755 865> 85 170<0 660 0 660> 225 135<755 865 755 865>
LayerCount: 2
Fore
SplineSet
-20 755 m 1x34
 -20 865 l 1
 115 865 l 1
 115 755 l 1
 -20 755 l 1x34
225 755 m 1
 225 865 l 1
 360 865 l 1
 360 755 l 1
 225 755 l 1
85 0 m 1xc8
 85 660 l 1
 255 660 l 1
 255 0 l 1
 85 0 l 1xc8
EndSplineSet
EndChar

StartChar: Eth
Encoding: 208 208 144
Width: 960
GlyphClass: 2
Flags: MW
HStem: 0 110<270 480 480 530> 315 95<20 100 20 100 270 495> 555 105<270 480 270 270>
VStem: 100 170<110 110 110 315 410 555> 720 170<310 355 197.5 435>
LayerCount: 2
Fore
SplineSet
270 110 m 1
 480 110 l 2
 600 110 720 150 720 310 c 2
 720 355 l 2
 720 515 600 555 480 555 c 2
 270 555 l 1
 270 410 l 1
 495 410 l 1
 495 315 l 1
 270 315 l 1
 270 110 l 1
100 315 m 1
 20 315 l 1
 20 410 l 1
 100 410 l 1
 100 660 l 1
 530 660 l 2
 710 660 890 580 890 355 c 2
 890 310 l 2
 890 85 710 0 530 0 c 2
 100 0 l 1
 100 315 l 1
EndSplineSet
EndChar

StartChar: Ntilde
Encoding: 209 209 145
Width: 930
GlyphClass: 2
Flags: MW
HStem: 0 21<70 70 70 240 670 670 670 860> 640 20<70 260 260 260 690 860 860 860> 740 80<530 580> 800 80<350 400>
VStem: 70 170<0 470 0 660> 265 90 575 90 690 170<190 660 0 660>
LayerCount: 2
Fore
SplineSet
370 880 m 0x16
 395 880 405 880 465 850 c 0
 505 830 525 820 535 820 c 0x26
 550 820 560 820 575 880 c 1
 675 880 l 1x16
 650 775 600 740 560 740 c 0x26
 535 740 525 740 465 770 c 0
 425 790 405 800 395 800 c 0x16
 380 800 370 800 355 740 c 1
 255 740 l 1x26
 280 845 330 880 370 880 c 0x16
70 0 m 1xc9
 70 660 l 1
 260 660 l 1
 690 190 l 1
 690 660 l 1
 860 660 l 1
 860 0 l 1
 670 0 l 1
 240 470 l 1
 240 0 l 1
 70 0 l 1xc9
EndSplineSet
EndChar

StartChar: Ograve
Encoding: 210 210 146
Width: 930
GlyphClass: 2
Flags: MW
HStem: 0 110<300 310 310 620> 550 110<285 620 310 620 620 630> 730 160<455 465 295 565 455 455>
VStem: 70 170<135 145 145 515> 295 270<730 890> 690 170<145 515 515 525>
LayerCount: 2
Fore
SplineSet
295 890 m 1
 465 890 l 1
 565 730 l 1
 455 730 l 1
 295 890 l 1
70 135 m 2
 70 525 l 2
 70 660 190 660 310 660 c 2
 620 660 l 2
 740 660 860 660 860 525 c 2
 860 135 l 2
 860 0 740 0 620 0 c 2
 310 0 l 2
 190 0 70 0 70 135 c 2
240 145 m 2
 240 110 270 110 300 110 c 2
 630 110 l 2
 660 110 690 110 690 145 c 2
 690 515 l 2
 690 550 660 550 630 550 c 2
 300 550 l 2
 270 550 240 550 240 515 c 2
 240 145 l 2
EndSplineSet
EndChar

StartChar: Oacute
Encoding: 211 211 147
Width: 930
GlyphClass: 2
Flags: MW
HStem: 0 110<300 310 310 620> 550 110<285 620 310 620 620 630> 730 160<365 635 465 475>
VStem: 70 170<135 145 145 515> 365 270<730 890> 690 170<145 515 515 525>
LayerCount: 2
Fore
SplineSet
365 730 m 1
 465 890 l 1
 635 890 l 1
 475 730 l 1
 365 730 l 1
70 135 m 2
 70 525 l 2
 70 660 190 660 310 660 c 2
 620 660 l 2
 740 660 860 660 860 525 c 2
 860 135 l 2
 860 0 740 0 620 0 c 2
 310 0 l 2
 190 0 70 0 70 135 c 2
240 145 m 2
 240 110 270 110 300 110 c 2
 630 110 l 2
 660 110 690 110 690 145 c 2
 690 515 l 2
 690 550 660 550 630 550 c 2
 300 550 l 2
 270 550 240 550 240 515 c 2
 240 145 l 2
EndSplineSet
EndChar

StartChar: Ocircumflex
Encoding: 212 212 148
Width: 930
GlyphClass: 2
Flags: MW
HStem: 0 110<300 310 310 620> 550 110<285 620 310 620 620 630> 730 160<255 525 255 525 405 555 405 675>
VStem: 70 170<135 145 145 515> 690 170<145 515 515 525>
LayerCount: 2
Fore
SplineSet
255 730 m 1
 405 890 l 1
 525 890 l 1
 675 730 l 1
 555 730 l 1
 465 820 l 1
 375 730 l 1
 255 730 l 1
70 135 m 2
 70 525 l 2
 70 660 190 660 310 660 c 2
 620 660 l 2
 740 660 860 660 860 525 c 2
 860 135 l 2
 860 0 740 0 620 0 c 2
 310 0 l 2
 190 0 70 0 70 135 c 2
240 145 m 2
 240 110 270 110 300 110 c 2
 630 110 l 2
 660 110 690 110 690 145 c 2
 690 515 l 2
 690 550 660 550 630 550 c 2
 300 550 l 2
 270 550 240 550 240 515 c 2
 240 145 l 2
EndSplineSet
EndChar

StartChar: Otilde
Encoding: 213 213 149
Width: 930
GlyphClass: 2
Flags: MW
HStem: 0 110<300 310 310 620> 550 110<285 620 310 620 620 630> 740 80<530 580> 800 80<350 400>
VStem: 70 170<135 145 145 515> 265 90 575 90 690 170<145 515 515 525>
LayerCount: 2
Fore
SplineSet
370 880 m 0x16
 395 880 405 880 465 850 c 0
 505 830 525 820 535 820 c 0x26
 550 820 560 820 575 880 c 1
 675 880 l 1x16
 650 775 600 740 560 740 c 0x26
 535 740 525 740 465 770 c 0
 425 790 405 800 395 800 c 0x16
 380 800 370 800 355 740 c 1
 255 740 l 1x26
 280 845 330 880 370 880 c 0x16
70 135 m 2xc9
 70 525 l 2
 70 660 190 660 310 660 c 2
 620 660 l 2
 740 660 860 660 860 525 c 2
 860 135 l 2
 860 0 740 0 620 0 c 2
 310 0 l 2
 190 0 70 0 70 135 c 2xc9
240 145 m 2
 240 110 270 110 300 110 c 2
 630 110 l 2
 660 110 690 110 690 145 c 2
 690 515 l 2
 690 550 660 550 630 550 c 2
 300 550 l 2
 270 550 240 550 240 515 c 2
 240 145 l 2
EndSplineSet
EndChar

StartChar: Odieresis
Encoding: 214 214 150
Width: 930
GlyphClass: 2
Flags: MW
HStem: 0 110<300 310 310 620> 550 110<285 620 310 620 620 630> 755 110<275 410 275 410 520 655>
VStem: 70 170<135 145 145 515> 275 135<755 865 755 865> 520 135<755 865 755 865> 690 170<145 515 515 525>
LayerCount: 2
Fore
SplineSet
275 755 m 1
 275 865 l 1
 410 865 l 1
 410 755 l 1
 275 755 l 1
520 755 m 1
 520 865 l 1
 655 865 l 1
 655 755 l 1
 520 755 l 1
70 135 m 2
 70 525 l 2
 70 660 190 660 310 660 c 2
 620 660 l 2
 740 660 860 660 860 525 c 2
 860 135 l 2
 860 0 740 0 620 0 c 2
 310 0 l 2
 190 0 70 0 70 135 c 2
240 145 m 2
 240 110 270 110 300 110 c 2
 630 110 l 2
 660 110 690 110 690 145 c 2
 690 515 l 2
 690 550 660 550 630 550 c 2
 300 550 l 2
 270 550 240 550 240 515 c 2
 240 145 l 2
EndSplineSet
EndChar

StartChar: multiply
Encoding: 215 215 151
Width: 600
GlyphClass: 2
Flags: MW
HStem: 0 21G<160 160 440 440> 460 20G<160 160 440 440>
LayerCount: 2
Fore
SplineSet
60 100 m 1
 200 240 l 1
 60 380 l 1
 160 480 l 1
 300 340 l 1
 440 480 l 1
 540 380 l 1
 400 240 l 1
 540 100 l 1
 440 0 l 1
 300 140 l 1
 160 0 l 1
 60 100 l 1
EndSplineSet
EndChar

StartChar: Oslash
Encoding: 216 216 152
Width: 1030
GlyphClass: 2
Flags: MW
HStem: 0 110<350 360 360 670> 550 110<335 670 360 670 670 680>
VStem: 120 170<127.5 135 302 515> 740 170<145 357 357 357 525 532.5>
LayerCount: 2
Fore
SplineSet
20 100 m 1
 20 205 l 1
 120 240 l 1
 120 525 l 2
 120 660 240 660 360 660 c 2
 670 660 l 2
 790 660 910 660 910 525 c 1
 1010 560 l 1
 1010 455 l 1
 910 420 l 1
 910 135 l 2
 910 0 790 0 670 0 c 2
 360 0 l 2
 240 0 120 0 120 135 c 1
 20 100 l 1
290 145 m 2
 290 110 320 110 350 110 c 2
 680 110 l 2
 710 110 740 110 740 145 c 2
 740 357 l 1
 290 197 l 1
 290 145 l 2
290 302 m 1
 740 462 l 1
 740 515 l 2
 740 550 710 550 680 550 c 2
 350 550 l 2
 320 550 290 550 290 515 c 2
 290 302 l 1
EndSplineSet
EndChar

StartChar: Ugrave
Encoding: 217 217 153
Width: 930
GlyphClass: 2
Flags: MW
HStem: 0 110<300 310 310 620> 640 20<70 240 240 240 690 860 860 860> 730 160<455 465 295 565 455 455>
VStem: 70 170<135 145 145 660> 295 270<730 890> 690 170<145 660>
LayerCount: 2
Fore
SplineSet
295 890 m 1
 465 890 l 1
 565 730 l 1
 455 730 l 1
 295 890 l 1
70 135 m 2
 70 660 l 1
 240 660 l 1
 240 145 l 2
 240 110 270 110 300 110 c 2
 630 110 l 2
 660 110 690 110 690 145 c 2
 690 660 l 1
 860 660 l 1
 860 135 l 2
 860 0 740 0 620 0 c 2
 310 0 l 2
 190 0 70 0 70 135 c 2
EndSplineSet
EndChar

StartChar: Uacute
Encoding: 218 218 154
Width: 930
GlyphClass: 2
Flags: MW
HStem: 0 110<300 310 310 620> 640 20<70 240 240 240 690 860 860 860> 730 160<365 635 465 475>
VStem: 70 170<135 145 145 660> 365 270<730 890> 690 170<145 660>
LayerCount: 2
Fore
SplineSet
365 730 m 1
 465 890 l 1
 635 890 l 1
 475 730 l 1
 365 730 l 1
70 135 m 2
 70 660 l 1
 240 660 l 1
 240 145 l 2
 240 110 270 110 300 110 c 2
 630 110 l 2
 660 110 690 110 690 145 c 2
 690 660 l 1
 860 660 l 1
 860 135 l 2
 860 0 740 0 620 0 c 2
 310 0 l 2
 190 0 70 0 70 135 c 2
EndSplineSet
EndChar

StartChar: Ucircumflex
Encoding: 219 219 155
Width: 930
GlyphClass: 2
Flags: MW
HStem: 0 110<300 310 310 620> 640 20<70 240 240 240 690 860 860 860> 730 160<255 525 255 525 405 555 405 675>
VStem: 70 170<135 145 145 660> 690 170<145 660>
LayerCount: 2
Fore
SplineSet
255 730 m 1
 405 890 l 1
 525 890 l 1
 675 730 l 1
 555 730 l 1
 465 820 l 1
 375 730 l 1
 255 730 l 1
70 135 m 2
 70 660 l 1
 240 660 l 1
 240 145 l 2
 240 110 270 110 300 110 c 2
 630 110 l 2
 660 110 690 110 690 145 c 2
 690 660 l 1
 860 660 l 1
 860 135 l 2
 860 0 740 0 620 0 c 2
 310 0 l 2
 190 0 70 0 70 135 c 2
EndSplineSet
EndChar

StartChar: Udieresis
Encoding: 220 220 156
Width: 930
GlyphClass: 2
Flags: MW
HStem: 0 110<300 310 310 620> 640 20<70 240 240 240 690 860 860 860> 755 110<275 410 275 410 520 655>
VStem: 70 170<135 145 145 660> 275 135<755 865 755 865> 520 135<755 865 755 865> 690 170<145 660>
LayerCount: 2
Fore
SplineSet
275 755 m 1
 275 865 l 1
 410 865 l 1
 410 755 l 1
 275 755 l 1
520 755 m 1
 520 865 l 1
 655 865 l 1
 655 755 l 1
 520 755 l 1
70 135 m 2
 70 660 l 1
 240 660 l 1
 240 145 l 2
 240 110 270 110 300 110 c 2
 630 110 l 2
 660 110 690 110 690 145 c 2
 690 660 l 1
 860 660 l 1
 860 135 l 2
 860 0 740 0 620 0 c 2
 310 0 l 2
 190 0 70 0 70 135 c 2
EndSplineSet
EndChar

StartChar: Yacute
Encoding: 221 221 157
Width: 910
GlyphClass: 2
Flags: MW
HStem: 0 21<370 540 370 370> 640 20<20 230 230 230 680 890 890 890> 730 160<355 625 455 465>
VStem: 355 270<730 890> 370 170<0 310 0 310>
LayerCount: 2
Fore
SplineSet
355 730 m 1x30
 455 890 l 1
 625 890 l 1
 465 730 l 1
 355 730 l 1x30
20 660 m 1xc8
 230 660 l 1
 455 435 l 1
 680 660 l 1
 890 660 l 1
 540 310 l 1
 540 0 l 1
 370 0 l 1
 370 310 l 1
 20 660 l 1xc8
EndSplineSet
EndChar

StartChar: Thorn
Encoding: 222 222 158
Width: 930
GlyphClass: 2
Flags: MW
HStem: 0 21G<70 70 70 240> 125 110<240 620 240 630> 425 110<240 620 620 630 240 620> 640 20G<70 240 240 240>
VStem: 70 170<0 125 235 425 535 660> 690 170<270 390 390 400 192.5 407.5>
LayerCount: 2
Fore
SplineSet
70 0 m 1
 70 660 l 1
 240 660 l 1
 240 535 l 1
 620 535 l 2
 740 535 860 535 860 400 c 2
 860 260 l 2
 860 125 740 125 620 125 c 2
 240 125 l 1
 240 0 l 1
 70 0 l 1
240 235 m 1
 630 235 l 2
 660 235 690 235 690 270 c 2
 690 390 l 2
 690 425 660 425 630 425 c 2
 240 425 l 1
 240 235 l 1
EndSplineSet
EndChar

StartChar: germandbls
Encoding: 223 223 159
Width: 740
GlyphClass: 2
Flags: MW
HStem: 0 95<340 470 340 470 470 480> 305 95<340 430 430 442.5 340 470 340 430> 565 95<260 270 270 430>
VStem: 60 160<0 535 0 545 0 602.5> 480 160<430 450 450 535 535 545 417.5 550> 520 160<125 255 57.5 275>
LayerCount: 2
Fore
SplineSet
60 0 m 1xf8
 60 545 l 2
 60 660 160 660 260 660 c 2
 440 660 l 2
 540 660 640 660 640 545 c 2
 640 450 l 2xf8
 640 385 610 365 570 360 c 1
 610 355 680 345 680 255 c 2
 680 115 l 2xf4
 680 0 580 0 480 0 c 2xf8
 340 0 l 1
 340 95 l 1
 470 95 l 2
 495 95 520 95 520 125 c 2
 520 275 l 2xf4
 520 305 495 305 470 305 c 2
 340 305 l 1
 340 400 l 1
 430 400 l 2
 455 400 480 400 480 430 c 2
 480 535 l 2
 480 565 455 565 430 565 c 2
 270 565 l 2
 245 565 220 565 220 535 c 2
 220 0 l 1
 60 0 l 1xf8
EndSplineSet
EndChar

StartChar: agrave
Encoding: 224 224 160
Width: 740
GlyphClass: 2
Flags: MW
HStem: 0 95<210 520 270 520 270 680> 205 95<260 270 270 520> 385 95<100 470 100 480> 550 160<360 370 200 470 360 360>
VStem: 60 160<115 125 125 175 110 185 110 242.5> 200 270 520 160<95 205 205 205 300 355 355 365 0 370>
LayerCount: 2
Fore
SplineSet
200 710 m 1x14
 370 710 l 1
 470 550 l 1
 360 550 l 1
 200 710 l 1x14
60 115 m 2xea
 60 185 l 2
 60 300 160 300 260 300 c 2
 520 300 l 1
 520 355 l 2
 520 385 495 385 470 385 c 2
 100 385 l 1
 100 480 l 1
 480 480 l 2
 580 480 680 480 680 365 c 2
 680 0 l 1
 260 0 l 2
 160 0 60 0 60 115 c 2xea
220 125 m 2
 220 95 245 95 270 95 c 2
 520 95 l 1
 520 205 l 1
 270 205 l 2
 245 205 220 205 220 175 c 2
 220 125 l 2
EndSplineSet
EndChar

StartChar: aacute
Encoding: 225 225 161
Width: 740
GlyphClass: 2
Flags: MW
HStem: 0 95<210 520 270 520 270 680> 205 95<260 270 270 520> 385 95<100 470 100 480> 550 160<270 540 370 380>
VStem: 60 160<115 125 125 175 110 185 110 242.5> 270 270<550 710> 520 160<95 205 205 205 300 355 355 365 0 370>
LayerCount: 2
Fore
SplineSet
270 550 m 1x14
 370 710 l 1
 540 710 l 1
 380 550 l 1
 270 550 l 1x14
60 115 m 2xea
 60 185 l 2
 60 300 160 300 260 300 c 2
 520 300 l 1
 520 355 l 2
 520 385 495 385 470 385 c 2
 100 385 l 1
 100 480 l 1
 480 480 l 2
 580 480 680 480 680 365 c 2
 680 0 l 1
 260 0 l 2
 160 0 60 0 60 115 c 2xea
220 125 m 2
 220 95 245 95 270 95 c 2
 520 95 l 1
 520 205 l 1
 270 205 l 2
 245 205 220 205 220 175 c 2
 220 125 l 2
EndSplineSet
EndChar

StartChar: acircumflex
Encoding: 226 226 162
Width: 740
GlyphClass: 2
Flags: MW
HStem: 0 95<210 520 270 520 270 680> 205 95<260 270 270 520> 385 95<100 470 100 480> 550 160<160 430 160 430 310 460 310 580>
VStem: 60 160<115 125 125 175 110 185 110 242.5> 520 160<95 205 205 205 300 355 355 365 0 370>
LayerCount: 2
Fore
SplineSet
160 550 m 1
 310 710 l 1
 430 710 l 1
 580 550 l 1
 460 550 l 1
 370 640 l 1
 280 550 l 1
 160 550 l 1
60 115 m 2
 60 185 l 2
 60 300 160 300 260 300 c 2
 520 300 l 1
 520 355 l 2
 520 385 495 385 470 385 c 2
 100 385 l 1
 100 480 l 1
 480 480 l 2
 580 480 680 480 680 365 c 2
 680 0 l 1
 260 0 l 2
 160 0 60 0 60 115 c 2
220 125 m 2
 220 95 245 95 270 95 c 2
 520 95 l 1
 520 205 l 1
 270 205 l 2
 245 205 220 205 220 175 c 2
 220 125 l 2
EndSplineSet
EndChar

StartChar: atilde
Encoding: 227 227 163
Width: 740
GlyphClass: 2
Flags: MW
HStem: 0 95<210 520 270 520 270 680> 205 95<260 270 270 520> 385 95<100 470 100 480> 560 80<435 485> 620 80<255 305>
VStem: 60 160<115 125 125 175 110 185 110 242.5> 170 90 480 90 520 160<95 205 205 205 300 355 355 365 0 370>
LayerCount: 2
Fore
SplineSet
275 700 m 0x0b
 300 700 310 700 370 670 c 0
 410 650 430 640 440 640 c 0x13
 455 640 465 640 480 700 c 1
 580 700 l 1x0b
 555 595 505 560 465 560 c 0x13
 440 560 430 560 370 590 c 0
 330 610 310 620 300 620 c 0x0b
 285 620 275 620 260 560 c 1
 160 560 l 1x13
 185 665 235 700 275 700 c 0x0b
60 115 m 2xe480
 60 185 l 2
 60 300 160 300 260 300 c 2
 520 300 l 1
 520 355 l 2
 520 385 495 385 470 385 c 2
 100 385 l 1
 100 480 l 1
 480 480 l 2
 580 480 680 480 680 365 c 2
 680 0 l 1
 260 0 l 2
 160 0 60 0 60 115 c 2xe480
220 125 m 2
 220 95 245 95 270 95 c 2
 520 95 l 1
 520 205 l 1
 270 205 l 2
 245 205 220 205 220 175 c 2
 220 125 l 2
EndSplineSet
EndChar

StartChar: adieresis
Encoding: 228 228 164
Width: 740
GlyphClass: 2
Flags: MW
HStem: 0 95<210 520 270 520 270 680> 205 95<260 270 270 520> 385 95<100 470 100 480> 575 110<180 315 180 315 425 560>
VStem: 60 160<115 125 125 175 110 185 110 242.5> 180 135<575 685 575 685> 425 135<575 685 575 685> 520 160<95 205 205 205 300 355 355 365 0 370>
LayerCount: 2
Fore
SplineSet
180 575 m 1x16
 180 685 l 1
 315 685 l 1
 315 575 l 1
 180 575 l 1x16
425 575 m 1
 425 685 l 1
 560 685 l 1
 560 575 l 1
 425 575 l 1
60 115 m 2xe9
 60 185 l 2
 60 300 160 300 260 300 c 2
 520 300 l 1
 520 355 l 2
 520 385 495 385 470 385 c 2
 100 385 l 1
 100 480 l 1
 480 480 l 2
 580 480 680 480 680 365 c 2
 680 0 l 1
 260 0 l 2
 160 0 60 0 60 115 c 2xe9
220 125 m 2
 220 95 245 95 270 95 c 2
 520 95 l 1
 520 205 l 1
 270 205 l 2
 245 205 220 205 220 175 c 2
 220 125 l 2
EndSplineSet
EndChar

StartChar: aring
Encoding: 229 229 165
Width: 740
GlyphClass: 2
Flags: MW
HStem: 0 95<210 520 270 520 270 680> 205 95<260 270 270 520> 385 95<100 470 100 480> 550 65<265 415 325 415 415 425 325 435> 715 65<315 325 325 415>
VStem: 60 160<115 125 125 175 110 185 110 242.5> 185 110<635 695 628.5 723.5> 445 110<635 695 606.5 701.5> 520 160<95 205 205 205 300 355 355 365 0 370>
LayerCount: 2
Fore
SplineSet
185 635 m 2x1b
 185 695 l 2
 185 752 225 780 305 780 c 2
 435 780 l 2
 515 780 555 752 555 695 c 2
 555 635 l 2
 555 578 515 550 435 550 c 2
 305 550 l 2
 225 550 185 578 185 635 c 2x1b
295 635 m 2
 295 622 305 615 325 615 c 2
 415 615 l 2
 435 615 445 622 445 635 c 2
 445 695 l 2
 445 708 435 715 415 715 c 2
 325 715 l 2
 305 715 295 708 295 695 c 2
 295 635 l 2
60 115 m 2xe480
 60 185 l 2
 60 300 160 300 260 300 c 2
 520 300 l 1
 520 355 l 2
 520 385 495 385 470 385 c 2
 100 385 l 1
 100 480 l 1
 480 480 l 2
 580 480 680 480 680 365 c 2
 680 0 l 1
 260 0 l 2
 160 0 60 0 60 115 c 2xe480
220 125 m 2
 220 95 245 95 270 95 c 2
 520 95 l 1
 520 205 l 1
 270 205 l 2
 245 205 220 205 220 175 c 2
 220 125 l 2
EndSplineSet
EndChar

StartChar: ae
Encoding: 230 230 166
Width: 1200
GlyphClass: 2
Flags: MW
HStem: 0 95<210 520 270 520 730 1120> 205 95<260 270 270 520 680 980> 385 95<100 470 100 940 717.5 730 730 930>
VStem: 60 160<115 125 125 175 110 185 110 242.5> 520 160<110 125 125 205 110 205 300 355> 980 160<300 355 355 365 205 370>
CounterMasks: 1 1c
LayerCount: 2
Fore
SplineSet
60 115 m 2
 60 185 l 2
 60 300 160 300 260 300 c 2
 520 300 l 1
 520 355 l 2
 520 385 495 385 470 385 c 2
 100 385 l 1
 100 480 l 1
 940 480 l 2
 1040 480 1140 480 1140 365 c 2
 1140 205 l 1
 680 205 l 1
 680 125 l 2
 680 95 705 95 730 95 c 2
 1120 95 l 1
 1120 0 l 1
 260 0 l 2
 160 0 60 0 60 115 c 2
220 125 m 2
 220 95 245 95 270 95 c 2
 520 95 l 1
 520 205 l 1
 270 205 l 2
 245 205 220 205 220 175 c 2
 220 125 l 2
680 300 m 1
 980 300 l 1
 980 355 l 2
 980 385 955 385 930 385 c 2
 730 385 l 2
 705 385 680 385 680 355 c 2
 680 300 l 1
EndSplineSet
EndChar

StartChar: ccedilla
Encoding: 231 231 167
Width: 700
GlyphClass: 2
Flags: MW
HStem: -225 70<290 320 320 340 290 350 290 320> -20 20<210 260 260 640 305 420 420 420> 0 95<210 640 270 640 270 640 305 420 420 420> 385 95<260 270 270 640>
VStem: 60 160<115 125 125 355> 290 21<-225 -155 -155 -155> 390 120<-130 -115 -175 -105>
LayerCount: 2
Fore
SplineSet
290 -155 m 1xc6
 320 -155 l 2
 360 -155 390 -145 390 -115 c 0
 390 -95 380 -75 305 0 c 1
 420 0 l 1
 490 -70 510 -95 510 -135 c 0
 510 -215 430 -225 350 -225 c 2
 290 -225 l 1
 290 -155 l 1xc6
60 115 m 2x38
 60 365 l 2
 60 480 160 480 260 480 c 2
 640 480 l 1
 640 385 l 1
 270 385 l 2
 245 385 220 385 220 355 c 2
 220 125 l 2
 220 95 245 95 270 95 c 2
 640 95 l 1
 640 0 l 1
 260 0 l 2
 160 0 60 0 60 115 c 2x38
EndSplineSet
EndChar

StartChar: egrave
Encoding: 232 232 168
Width: 740
GlyphClass: 2
Flags: MW
HStem: 0 95<210 660 270 660 270 660> 205 95<220 520 220 680 220 520> 385 95<260 270 270 470> 550 160<360 370 200 470 360 360>
VStem: 60 160<115 125 125 205 300 355> 200 270 520 160<300 355 355 365 205 370>
LayerCount: 2
Fore
SplineSet
200 710 m 1x14
 370 710 l 1
 470 550 l 1
 360 550 l 1
 200 710 l 1x14
60 115 m 2xea
 60 365 l 2
 60 480 160 480 260 480 c 2
 480 480 l 2
 580 480 680 480 680 365 c 2
 680 205 l 1
 220 205 l 1
 220 125 l 2
 220 95 245 95 270 95 c 2
 660 95 l 1
 660 0 l 1
 260 0 l 2
 160 0 60 0 60 115 c 2xea
220 300 m 1
 520 300 l 1
 520 355 l 2
 520 385 495 385 470 385 c 2
 270 385 l 2
 245 385 220 385 220 355 c 2
 220 300 l 1
EndSplineSet
EndChar

StartChar: eacute
Encoding: 233 233 169
Width: 740
GlyphClass: 2
Flags: MW
HStem: 0 95<210 660 270 660 270 660> 205 95<220 520 220 680 220 520> 385 95<260 270 270 470> 550 160<270 540 370 380>
VStem: 60 160<115 125 125 205 300 355> 270 270<550 710> 520 160<300 355 355 365 205 370>
LayerCount: 2
Fore
SplineSet
270 550 m 1x14
 370 710 l 1
 540 710 l 1
 380 550 l 1
 270 550 l 1x14
60 115 m 2xea
 60 365 l 2
 60 480 160 480 260 480 c 2
 480 480 l 2
 580 480 680 480 680 365 c 2
 680 205 l 1
 220 205 l 1
 220 125 l 2
 220 95 245 95 270 95 c 2
 660 95 l 1
 660 0 l 1
 260 0 l 2
 160 0 60 0 60 115 c 2xea
220 300 m 1
 520 300 l 1
 520 355 l 2
 520 385 495 385 470 385 c 2
 270 385 l 2
 245 385 220 385 220 355 c 2
 220 300 l 1
EndSplineSet
EndChar

StartChar: ecircumflex
Encoding: 234 234 170
Width: 740
GlyphClass: 2
Flags: MW
HStem: 0 95<210 660 270 660 270 660> 205 95<220 520 220 680 220 520> 385 95<260 270 270 470> 550 160<160 430 160 430 310 460 310 580>
VStem: 60 160<115 125 125 205 300 355> 520 160<300 355 355 365 205 370>
LayerCount: 2
Fore
SplineSet
160 550 m 1
 310 710 l 1
 430 710 l 1
 580 550 l 1
 460 550 l 1
 370 640 l 1
 280 550 l 1
 160 550 l 1
60 115 m 2
 60 365 l 2
 60 480 160 480 260 480 c 2
 480 480 l 2
 580 480 680 480 680 365 c 2
 680 205 l 1
 220 205 l 1
 220 125 l 2
 220 95 245 95 270 95 c 2
 660 95 l 1
 660 0 l 1
 260 0 l 2
 160 0 60 0 60 115 c 2
220 300 m 1
 520 300 l 1
 520 355 l 2
 520 385 495 385 470 385 c 2
 270 385 l 2
 245 385 220 385 220 355 c 2
 220 300 l 1
EndSplineSet
EndChar

StartChar: edieresis
Encoding: 235 235 171
Width: 740
GlyphClass: 2
Flags: MW
HStem: 0 95<210 660 270 660 270 660> 205 95<220 520 220 680 220 520> 385 95<260 270 270 470> 575 110<180 315 180 315 425 560>
VStem: 60 160<115 125 125 205 300 355> 180 135<575 685 575 685> 425 135<575 685 575 685> 520 160<300 355 355 365 205 370>
LayerCount: 2
Fore
SplineSet
180 575 m 1x16
 180 685 l 1
 315 685 l 1
 315 575 l 1
 180 575 l 1x16
425 575 m 1
 425 685 l 1
 560 685 l 1
 560 575 l 1
 425 575 l 1
60 115 m 2xe9
 60 365 l 2
 60 480 160 480 260 480 c 2
 480 480 l 2
 580 480 680 480 680 365 c 2
 680 205 l 1
 220 205 l 1
 220 125 l 2
 220 95 245 95 270 95 c 2
 660 95 l 1
 660 0 l 1
 260 0 l 2
 160 0 60 0 60 115 c 2xe9
220 300 m 1
 520 300 l 1
 520 355 l 2
 520 385 495 385 470 385 c 2
 270 385 l 2
 245 385 220 385 220 355 c 2
 220 300 l 1
EndSplineSet
EndChar

StartChar: igrave
Encoding: 236 236 172
Width: 310
GlyphClass: 2
Flags: MW
HStem: 0 21<75 75 75 235> 460 20<75 235 235 235> 550 160<150 160 -10 260 150 150>
VStem: -10 270<550 710> 75 160<0 480 0 480>
LayerCount: 2
Fore
SplineSet
-10 710 m 1x30
 160 710 l 1
 260 550 l 1
 150 550 l 1
 -10 710 l 1x30
75 0 m 1xc8
 75 480 l 1
 235 480 l 1
 235 0 l 1
 75 0 l 1xc8
EndSplineSet
EndChar

StartChar: iacute
Encoding: 237 237 173
Width: 310
GlyphClass: 2
Flags: MW
HStem: 0 21<75 75 75 235> 460 20<75 235 235 235> 550 160<50 320 150 160>
VStem: 50 270<550 710> 75 160<0 480 0 480>
LayerCount: 2
Fore
SplineSet
50 550 m 1x30
 150 710 l 1
 320 710 l 1
 160 550 l 1
 50 550 l 1x30
75 0 m 1xc8
 75 480 l 1
 235 480 l 1
 235 0 l 1
 75 0 l 1xc8
EndSplineSet
EndChar

StartChar: icircumflex
Encoding: 238 238 174
Width: 340
GlyphClass: 2
Flags: MW
HStem: 0 21<90 90 90 250> 460 20<90 250 250 250> 550 160<-40 230 -40 230 110 260 110 380>
VStem: 90 160<0 480 0 480>
LayerCount: 2
Fore
SplineSet
-40 550 m 1
 110 710 l 1
 230 710 l 1
 380 550 l 1
 260 550 l 1
 170 640 l 1
 80 550 l 1
 -40 550 l 1
90 0 m 1
 90 480 l 1
 250 480 l 1
 250 0 l 1
 90 0 l 1
EndSplineSet
EndChar

StartChar: idieresis
Encoding: 239 239 175
Width: 340
GlyphClass: 2
Flags: MW
HStem: 0 21<90 90 90 250> 460 20<90 250 250 250> 575 110<-20 115 -20 115 225 360>
VStem: -20 135<575 685 575 685> 90 160<0 480 0 480> 225 135<575 685 575 685>
LayerCount: 2
Fore
SplineSet
-20 575 m 1x34
 -20 685 l 1
 115 685 l 1
 115 575 l 1
 -20 575 l 1x34
225 575 m 1
 225 685 l 1
 360 685 l 1
 360 575 l 1
 225 575 l 1
90 0 m 1xc8
 90 480 l 1
 250 480 l 1
 250 0 l 1
 90 0 l 1xc8
EndSplineSet
EndChar

StartChar: eth
Encoding: 240 240 176
Width: 740
GlyphClass: 2
Flags: MW
HStem: 0 75<210 470 270 470 470 480> 300 75<260 270 270 460 460 470> 640 20G<365 535 535 535>
VStem: 60 160<115 260 260 270> 520 160<105 115 115 220 57.5 270 57.5 282.5>
LayerCount: 2
Fore
SplineSet
60 115 m 2
 60 260 l 2
 60 375 160 375 260 375 c 2
 460 375 l 2
 480 375 497 375 497 390 c 0
 497 400 491 413 485 425 c 2
 460 475 l 1
 350 420 l 1
 315 490 l 1
 425 545 l 1
 365 660 l 1
 535 660 l 1
 560 615 l 1
 640 655 l 1
 675 585 l 1
 595 545 l 1
 640 455 l 2
 680 375 680 300 680 220 c 2
 680 115 l 2
 680 0 580 0 480 0 c 2
 260 0 l 2
 160 0 60 0 60 115 c 2
220 105 m 2
 220 75 245 75 270 75 c 2
 470 75 l 2
 495 75 520 75 520 105 c 2
 520 270 l 2
 520 295 495 300 470 300 c 2
 270 300 l 2
 245 300 220 300 220 270 c 2
 220 105 l 2
EndSplineSet
EndChar

StartChar: ntilde
Encoding: 241 241 177
Width: 740
GlyphClass: 2
Flags: MW
HStem: 0 21<60 60 60 220 520 520 520 680> 385 95<220 470 220 220> 560 80<435 485> 620 80<255 305>
VStem: 60 160<0 385 0 480 0 480> 170 90 480 90 520 160<0 355 355 365 0 370>
LayerCount: 2
Fore
SplineSet
275 700 m 0x16
 300 700 310 700 370 670 c 0
 410 650 430 640 440 640 c 0x26
 455 640 465 640 480 700 c 1
 580 700 l 1x16
 555 595 505 560 465 560 c 0x26
 440 560 430 560 370 590 c 0
 330 610 310 620 300 620 c 0x16
 285 620 275 620 260 560 c 1
 160 560 l 1x26
 185 665 235 700 275 700 c 0x16
60 0 m 1xc9
 60 480 l 1
 480 480 l 2
 580 480 680 480 680 365 c 2
 680 0 l 1
 520 0 l 1
 520 355 l 2
 520 385 495 385 470 385 c 2
 220 385 l 1
 220 0 l 1
 60 0 l 1xc9
EndSplineSet
EndChar

StartChar: ograve
Encoding: 242 242 178
Width: 740
GlyphClass: 2
Flags: MW
HStem: 0 95<210 470 270 470 470 480> 385 95<260 270 270 470> 550 160<360 370 200 470 360 360>
VStem: 60 160<115 125 125 355> 200 270 520 160<125 355 355 365>
LayerCount: 2
Fore
SplineSet
200 710 m 1x28
 370 710 l 1
 470 550 l 1
 360 550 l 1
 200 710 l 1x28
60 115 m 2xd4
 60 365 l 2
 60 480 160 480 260 480 c 2
 480 480 l 2
 580 480 680 480 680 365 c 2
 680 115 l 2
 680 0 580 0 480 0 c 2
 260 0 l 2
 160 0 60 0 60 115 c 2xd4
220 125 m 2
 220 95 245 95 270 95 c 2
 470 95 l 2
 495 95 520 95 520 125 c 2
 520 355 l 2
 520 385 495 385 470 385 c 2
 270 385 l 2
 245 385 220 385 220 355 c 2
 220 125 l 2
EndSplineSet
EndChar

StartChar: oacute
Encoding: 243 243 179
Width: 740
GlyphClass: 2
Flags: MW
HStem: 0 95<210 470 270 470 470 480> 385 95<260 270 270 470> 550 160<270 540 370 380>
VStem: 60 160<115 125 125 355> 270 270<550 710> 520 160<125 355 355 365>
LayerCount: 2
Fore
SplineSet
270 550 m 1x28
 370 710 l 1
 540 710 l 1
 380 550 l 1
 270 550 l 1x28
60 115 m 2xd4
 60 365 l 2
 60 480 160 480 260 480 c 2
 480 480 l 2
 580 480 680 480 680 365 c 2
 680 115 l 2
 680 0 580 0 480 0 c 2
 260 0 l 2
 160 0 60 0 60 115 c 2xd4
220 125 m 2
 220 95 245 95 270 95 c 2
 470 95 l 2
 495 95 520 95 520 125 c 2
 520 355 l 2
 520 385 495 385 470 385 c 2
 270 385 l 2
 245 385 220 385 220 355 c 2
 220 125 l 2
EndSplineSet
EndChar

StartChar: ocircumflex
Encoding: 244 244 180
Width: 740
GlyphClass: 2
Flags: MW
HStem: 0 95<210 470 270 470 470 480> 385 95<260 270 270 470> 550 160<160 430 160 430 310 460 310 580>
VStem: 60 160<115 125 125 355> 520 160<125 355 355 365>
LayerCount: 2
Fore
SplineSet
160 550 m 1
 310 710 l 1
 430 710 l 1
 580 550 l 1
 460 550 l 1
 370 640 l 1
 280 550 l 1
 160 550 l 1
60 115 m 2
 60 365 l 2
 60 480 160 480 260 480 c 2
 480 480 l 2
 580 480 680 480 680 365 c 2
 680 115 l 2
 680 0 580 0 480 0 c 2
 260 0 l 2
 160 0 60 0 60 115 c 2
220 125 m 2
 220 95 245 95 270 95 c 2
 470 95 l 2
 495 95 520 95 520 125 c 2
 520 355 l 2
 520 385 495 385 470 385 c 2
 270 385 l 2
 245 385 220 385 220 355 c 2
 220 125 l 2
EndSplineSet
EndChar

StartChar: otilde
Encoding: 245 245 181
Width: 740
GlyphClass: 2
Flags: MW
HStem: 0 95<210 470 270 470 470 480> 385 95<260 270 270 470> 560 80<435 485> 620 80<255 305>
VStem: 60 160<115 125 125 355> 170 90 480 90 520 160<125 355 355 365>
LayerCount: 2
Fore
SplineSet
275 700 m 0x16
 300 700 310 700 370 670 c 0
 410 650 430 640 440 640 c 0x26
 455 640 465 640 480 700 c 1
 580 700 l 1x16
 555 595 505 560 465 560 c 0x26
 440 560 430 560 370 590 c 0
 330 610 310 620 300 620 c 0x16
 285 620 275 620 260 560 c 1
 160 560 l 1x26
 185 665 235 700 275 700 c 0x16
60 115 m 2xc9
 60 365 l 2
 60 480 160 480 260 480 c 2
 480 480 l 2
 580 480 680 480 680 365 c 2
 680 115 l 2
 680 0 580 0 480 0 c 2
 260 0 l 2
 160 0 60 0 60 115 c 2xc9
220 125 m 2
 220 95 245 95 270 95 c 2
 470 95 l 2
 495 95 520 95 520 125 c 2
 520 355 l 2
 520 385 495 385 470 385 c 2
 270 385 l 2
 245 385 220 385 220 355 c 2
 220 125 l 2
EndSplineSet
EndChar

StartChar: odieresis
Encoding: 246 246 182
Width: 740
GlyphClass: 2
Flags: MW
HStem: 0 95<210 470 270 470 470 480> 385 95<260 270 270 470> 575 110<180 315 180 315 425 560>
VStem: 60 160<115 125 125 355> 180 135<575 685 575 685> 425 135<575 685 575 685> 520 160<125 355 355 365>
LayerCount: 2
Fore
SplineSet
180 575 m 1x2c
 180 685 l 1
 315 685 l 1
 315 575 l 1
 180 575 l 1x2c
425 575 m 1
 425 685 l 1
 560 685 l 1
 560 575 l 1
 425 575 l 1
60 115 m 2xd2
 60 365 l 2
 60 480 160 480 260 480 c 2
 480 480 l 2
 580 480 680 480 680 365 c 2
 680 115 l 2
 680 0 580 0 480 0 c 2
 260 0 l 2
 160 0 60 0 60 115 c 2xd2
220 125 m 2
 220 95 245 95 270 95 c 2
 470 95 l 2
 495 95 520 95 520 125 c 2
 520 355 l 2
 520 385 495 385 470 385 c 2
 270 385 l 2
 245 385 220 385 220 355 c 2
 220 125 l 2
EndSplineSet
EndChar

StartChar: divide
Encoding: 247 247 183
Width: 720
GlyphClass: 2
Flags: MW
HStem: 0 120<275 445 275 445> 180 120<60 660 60 660> 360 120<275 445 275 445>
VStem: 275 170<0 120 0 120 360 480>
CounterMasks: 1 e0
LayerCount: 2
Fore
SplineSet
60 180 m 1
 60 300 l 1
 660 300 l 1
 660 180 l 1
 60 180 l 1
275 0 m 1
 275 120 l 1
 445 120 l 1
 445 0 l 1
 275 0 l 1
275 360 m 1
 275 480 l 1
 445 480 l 1
 445 360 l 1
 275 360 l 1
EndSplineSet
EndChar

StartChar: oslash
Encoding: 248 248 184
Width: 820
GlyphClass: 2
Flags: MW
HStem: 0 95<250 510 310 510 510 520> 385 95<300 310 310 510>
VStem: 100 160<110 115 243 355> 560 160<125 237 237 237 365 370>
LayerCount: 2
Fore
SplineSet
20 94 m 1
 20 179 l 1
 100 200 l 1
 100 365 l 2
 100 480 200 480 300 480 c 2
 520 480 l 2
 620 480 720 480 720 365 c 1
 800 386 l 1
 800 301 l 1
 720 280 l 1
 720 115 l 2
 720 0 620 0 520 0 c 2
 300 0 l 2
 200 0 100 0 100 115 c 1
 20 94 l 1
260 125 m 2
 260 95 285 95 310 95 c 2
 510 95 l 2
 535 95 560 95 560 125 c 2
 560 237 l 1
 260 158 l 1
 260 125 l 2
260 243 m 1
 560 322 l 1
 560 355 l 2
 560 385 535 385 510 385 c 2
 310 385 l 2
 285 385 260 385 260 355 c 2
 260 243 l 1
EndSplineSet
EndChar

StartChar: ugrave
Encoding: 249 249 185
Width: 740
GlyphClass: 2
Flags: MW
HStem: 0 95<210 470 270 470 470 480> 460 20<60 220 220 220 520 680 680 680> 550 160<360 370 200 470 360 360>
VStem: 60 160<115 125 125 480> 200 270 520 160<125 480>
LayerCount: 2
Fore
SplineSet
200 710 m 1x28
 370 710 l 1
 470 550 l 1
 360 550 l 1
 200 710 l 1x28
60 115 m 2xd4
 60 480 l 1
 220 480 l 1
 220 125 l 2
 220 95 245 95 270 95 c 2
 470 95 l 2
 495 95 520 95 520 125 c 2
 520 480 l 1
 680 480 l 1
 680 115 l 2
 680 0 580 0 480 0 c 2
 260 0 l 2
 160 0 60 0 60 115 c 2xd4
EndSplineSet
EndChar

StartChar: uacute
Encoding: 250 250 186
Width: 740
GlyphClass: 2
Flags: MW
HStem: 0 95<210 470 270 470 470 480> 460 20<60 220 220 220 520 680 680 680> 550 160<270 540 370 380>
VStem: 60 160<115 125 125 480> 270 270<550 710> 520 160<125 480>
LayerCount: 2
Fore
SplineSet
270 550 m 1x28
 370 710 l 1
 540 710 l 1
 380 550 l 1
 270 550 l 1x28
60 115 m 2xd4
 60 480 l 1
 220 480 l 1
 220 125 l 2
 220 95 245 95 270 95 c 2
 470 95 l 2
 495 95 520 95 520 125 c 2
 520 480 l 1
 680 480 l 1
 680 115 l 2
 680 0 580 0 480 0 c 2
 260 0 l 2
 160 0 60 0 60 115 c 2xd4
EndSplineSet
EndChar

StartChar: ucircumflex
Encoding: 251 251 187
Width: 740
GlyphClass: 2
Flags: MW
HStem: 0 95<210 470 270 470 470 480> 460 20<60 220 220 220 520 680 680 680> 550 160<160 430 160 430 310 460 310 580>
VStem: 60 160<115 125 125 480> 520 160<125 480>
LayerCount: 2
Fore
SplineSet
160 550 m 1
 310 710 l 1
 430 710 l 1
 580 550 l 1
 460 550 l 1
 370 640 l 1
 280 550 l 1
 160 550 l 1
60 115 m 2
 60 480 l 1
 220 480 l 1
 220 125 l 2
 220 95 245 95 270 95 c 2
 470 95 l 2
 495 95 520 95 520 125 c 2
 520 480 l 1
 680 480 l 1
 680 115 l 2
 680 0 580 0 480 0 c 2
 260 0 l 2
 160 0 60 0 60 115 c 2
EndSplineSet
EndChar

StartChar: udieresis
Encoding: 252 252 188
Width: 740
GlyphClass: 2
Flags: MW
HStem: 0 95<210 470 270 470 470 480> 460 20<60 220 220 220 520 680 680 680> 575 110<180 315 180 315 425 560>
VStem: 60 160<115 125 125 480> 180 135<575 685 575 685> 425 135<575 685 575 685> 520 160<125 480>
LayerCount: 2
Fore
SplineSet
180 575 m 1x2c
 180 685 l 1
 315 685 l 1
 315 575 l 1
 180 575 l 1x2c
425 575 m 1
 425 685 l 1
 560 685 l 1
 560 575 l 1
 425 575 l 1
60 115 m 2xd2
 60 480 l 1
 220 480 l 1
 220 125 l 2
 220 95 245 95 270 95 c 2
 470 95 l 2
 495 95 520 95 520 125 c 2
 520 480 l 1
 680 480 l 1
 680 115 l 2
 680 0 580 0 480 0 c 2
 260 0 l 2
 160 0 60 0 60 115 c 2xd2
EndSplineSet
EndChar

StartChar: yacute
Encoding: 253 253 189
Width: 720
GlyphClass: 2
Flags: MW
HStem: -225 95<80 180 180 202.5 80 250 80 180> 460 20<20 190 190 190 530 700 700 700> 550 160<260 530 360 370>
VStem: 80 21<-225 -130 -130 -130> 260 270<480 550>
LayerCount: 2
Fore
SplineSet
260 550 m 1
 360 710 l 1
 530 710 l 1
 370 550 l 1
 260 550 l 1
20 480 m 1
 190 480 l 1
 360 140 l 1
 530 480 l 1
 700 480 l 1
 400 -120 l 2
 370 -180 345 -225 250 -225 c 2
 80 -225 l 1
 80 -130 l 1
 180 -130 l 2
 225 -130 230 -120 245 -90 c 2
 275 -30 l 1
 20 480 l 1
EndSplineSet
EndChar

StartChar: thorn
Encoding: 254 254 190
Width: 740
GlyphClass: 2
Flags: MW
HStem: -225 21G<60 60 60 220> 0 95<220 470 470 480 220 470> 385 95<220 470 220 480> 640 20G<60 220 220 220>
VStem: 60 160<-225 0 95 385 480 660> 520 160<125 355 355 365>
LayerCount: 2
Fore
SplineSet
60 -225 m 1
 60 660 l 1
 220 660 l 1
 220 480 l 1
 480 480 l 2
 580 480 680 480 680 365 c 2
 680 115 l 2
 680 0 580 0 480 0 c 2
 220 0 l 1
 220 -225 l 1
 60 -225 l 1
220 95 m 1
 470 95 l 2
 495 95 520 95 520 125 c 2
 520 355 l 2
 520 385 495 385 470 385 c 2
 220 385 l 1
 220 95 l 1
EndSplineSet
EndChar

StartChar: ydieresis
Encoding: 255 255 191
Width: 720
GlyphClass: 2
Flags: MW
HStem: -225 95<80 180 180 202.5 80 250 80 180> 460 20<20 190 190 190 530 700 700 700> 575 110<170 305 170 305 415 550>
VStem: 80 21<-225 -130 -130 -130> 170 135<575 685 575 685> 415 135<575 685 575 685>
LayerCount: 2
Fore
SplineSet
170 575 m 1
 170 685 l 1
 305 685 l 1
 305 575 l 1
 170 575 l 1
415 575 m 1
 415 685 l 1
 550 685 l 1
 550 575 l 1
 415 575 l 1
20 480 m 1
 190 480 l 1
 360 140 l 1
 530 480 l 1
 700 480 l 1
 400 -120 l 2
 370 -180 345 -225 250 -225 c 2
 80 -225 l 1
 80 -130 l 1
 180 -130 l 2
 225 -130 230 -120 245 -90 c 2
 275 -30 l 1
 20 480 l 1
EndSplineSet
EndChar

StartChar: Amacron
Encoding: 256 256 192
Width: 930
GlyphClass: 2
Flags: MW
HStem: 0 21<20 20 20 200 730 730 730 910> 190 110<350 580 350 635 295 580> 640 20<350 580 580 580> 755 95<285 645 285 645>
VStem: 285 360<755 850 755 850>
LayerCount: 2
Fore
SplineSet
285 755 m 1
 285 850 l 1
 645 850 l 1
 645 755 l 1
 285 755 l 1
20 0 m 1
 350 660 l 1
 580 660 l 1
 910 0 l 1
 730 0 l 1
 635 190 l 1
 295 190 l 1
 200 0 l 1
 20 0 l 1
350 300 m 1
 580 300 l 1
 465 530 l 1
 350 300 l 1
EndSplineSet
EndChar

StartChar: amacron
Encoding: 257 257 193
Width: 740
GlyphClass: 2
Flags: MW
HStem: 0 95<210 520 270 520 270 680> 205 95<260 270 270 520> 385 95<100 470 100 480> 575 95<190 550 190 550>
VStem: 60 160<115 125 125 175 110 185 110 242.5> 190 360<575 670 575 670> 520 160<95 205 205 205 300 355 355 365 0 370>
LayerCount: 2
Fore
SplineSet
190 575 m 1x14
 190 670 l 1
 550 670 l 1
 550 575 l 1
 190 575 l 1x14
60 115 m 2xea
 60 185 l 2
 60 300 160 300 260 300 c 2
 520 300 l 1
 520 355 l 2
 520 385 495 385 470 385 c 2
 100 385 l 1
 100 480 l 1
 480 480 l 2
 580 480 680 480 680 365 c 2
 680 0 l 1
 260 0 l 2
 160 0 60 0 60 115 c 2xea
220 125 m 2
 220 95 245 95 270 95 c 2
 520 95 l 1
 520 205 l 1
 270 205 l 2
 245 205 220 205 220 175 c 2
 220 125 l 2
EndSplineSet
EndChar

StartChar: Abreve
Encoding: 258 258 194
Width: 930
GlyphClass: 2
Flags: MW
HStem: 0 21<20 20 20 200 730 730 730 910> 190 110<350 580 350 635 295 580> 640 20<350 580 580 580> 730 85<444.5 485.5 444.5 512>
VStem: 295 95<869.5 890 869.5 890> 540 95<869.5 890>
LayerCount: 2
Fore
SplineSet
295 890 m 1
 390 890 l 1
 390 849 424 815 465 815 c 0
 506 815 540 849 540 890 c 1
 635 890 l 1
 635 802 559 730 465 730 c 0
 371 730 295 802 295 890 c 1
20 0 m 1
 350 660 l 1
 580 660 l 1
 910 0 l 1
 730 0 l 1
 635 190 l 1
 295 190 l 1
 200 0 l 1
 20 0 l 1
350 300 m 1
 580 300 l 1
 465 530 l 1
 350 300 l 1
EndSplineSet
EndChar

StartChar: abreve
Encoding: 259 259 195
Width: 740
GlyphClass: 2
Flags: MW
HStem: 0 95<210 520 270 520 270 680> 205 95<260 270 270 520> 385 95<100 470 100 480> 550 85<349.5 390.5 349.5 417>
VStem: 60 160<115 125 125 175 110 185 110 242.5> 200 95<689.5 710 689.5 710> 445 95<689.5 710> 520 160<95 205 205 205 300 355 355 365 0 370>
LayerCount: 2
Fore
SplineSet
200 710 m 1x16
 295 710 l 1
 295 669 329 635 370 635 c 0
 411 635 445 669 445 710 c 1
 540 710 l 1
 540 622 464 550 370 550 c 0
 276 550 200 622 200 710 c 1x16
60 115 m 2xe9
 60 185 l 2
 60 300 160 300 260 300 c 2
 520 300 l 1
 520 355 l 2
 520 385 495 385 470 385 c 2
 100 385 l 1
 100 480 l 1
 480 480 l 2
 580 480 680 480 680 365 c 2
 680 0 l 1
 260 0 l 2
 160 0 60 0 60 115 c 2xe9
220 125 m 2
 220 95 245 95 270 95 c 2
 520 95 l 1
 520 205 l 1
 270 205 l 2
 245 205 220 205 220 175 c 2
 220 125 l 2
EndSplineSet
EndChar

StartChar: Aogonek
Encoding: 260 260 196
Width: 930
GlyphClass: 2
Flags: MW
HStem: -225 70<760 845 830 845 830 845> -20 20<20 20 20 200 730 730 730 910 730 845 845 845> 0 21<20 20 20 200 730 730 730 910 730 845 845 845> 190 110<350 580 350 635 295 580> 640 20<350 580 580 580>
VStem: 640 120<-130 -115>
LayerCount: 2
Fore
SplineSet
640 -135 m 0xc4
 640 -95 660 -70 730 0 c 1
 845 0 l 1
 770 -75 760 -95 760 -115 c 0
 760 -145 790 -155 830 -155 c 2
 845 -155 l 1
 845 -225 l 1
 800 -225 l 2
 720 -225 640 -215 640 -135 c 0xc4
20 0 m 1x38
 350 660 l 1
 580 660 l 1
 910 0 l 1
 730 0 l 1
 635 190 l 1
 295 190 l 1
 200 0 l 1
 20 0 l 1x38
350 300 m 1
 580 300 l 1
 465 530 l 1
 350 300 l 1
EndSplineSet
EndChar

StartChar: aogonek
Encoding: 261 261 197
Width: 740
GlyphClass: 2
Flags: MW
HStem: -225 70<550 635 620 635 620 635> -20 20<210 260 260 680 520 635 635 635> 0 95<210 520 270 520 270 680 270 635> 205 95<260 270 270 520> 385 95<100 470 100 480>
VStem: 60 160<115 125 125 175 110 185 110 242.5> 430 120<-130 -115> 520 160<0 365 95 205 205 205 300 355 355 365 0 370>
LayerCount: 2
Fore
SplineSet
430 -135 m 0xc2
 430 -95 450 -70 520 0 c 1
 635 0 l 1
 560 -75 550 -95 550 -115 c 0
 550 -145 580 -155 620 -155 c 2
 635 -155 l 1
 635 -225 l 1
 590 -225 l 2
 510 -225 430 -215 430 -135 c 0xc2
60 115 m 2x3d
 60 185 l 2
 60 300 160 300 260 300 c 2
 520 300 l 1
 520 355 l 2
 520 385 495 385 470 385 c 2
 100 385 l 1
 100 480 l 1
 480 480 l 2
 580 480 680 480 680 365 c 2
 680 0 l 1
 260 0 l 2
 160 0 60 0 60 115 c 2x3d
220 125 m 2
 220 95 245 95 270 95 c 2
 520 95 l 1
 520 205 l 1
 270 205 l 2
 245 205 220 205 220 175 c 2
 220 125 l 2
EndSplineSet
EndChar

StartChar: Cacute
Encoding: 262 262 198
Width: 880
GlyphClass: 2
Flags: MW
HStem: 0 110<300 310 310 810> 550 110<285 810 310 810 310 810> 730 160<340 610 440 450>
VStem: 70 170<135 145 145 515> 340 270<730 890>
LayerCount: 2
Fore
SplineSet
340 730 m 1
 440 890 l 1
 610 890 l 1
 450 730 l 1
 340 730 l 1
70 135 m 2
 70 525 l 2
 70 660 190 660 310 660 c 2
 810 660 l 1
 810 550 l 1
 300 550 l 2
 270 550 240 550 240 515 c 2
 240 145 l 2
 240 110 270 110 300 110 c 2
 810 110 l 1
 810 0 l 1
 310 0 l 2
 190 0 70 0 70 135 c 2
EndSplineSet
EndChar

StartChar: cacute
Encoding: 263 263 199
Width: 700
GlyphClass: 2
Flags: MW
HStem: 0 95<210 640 270 640 270 640> 385 95<260 270 270 640> 550 160<250 520 350 360>
VStem: 60 160<115 125 125 355> 250 270<550 710>
LayerCount: 2
Fore
SplineSet
250 550 m 1
 350 710 l 1
 520 710 l 1
 360 550 l 1
 250 550 l 1
60 115 m 2
 60 365 l 2
 60 480 160 480 260 480 c 2
 640 480 l 1
 640 385 l 1
 270 385 l 2
 245 385 220 385 220 355 c 2
 220 125 l 2
 220 95 245 95 270 95 c 2
 640 95 l 1
 640 0 l 1
 260 0 l 2
 160 0 60 0 60 115 c 2
EndSplineSet
EndChar

StartChar: Ccircumflex
Encoding: 264 264 200
Width: 880
GlyphClass: 2
Flags: MW
HStem: 0 110<300 310 310 810> 550 110<285 810 310 810 310 810> 730 160<230 500 230 500 380 530 380 650>
VStem: 70 170<135 145 145 515>
LayerCount: 2
Fore
SplineSet
230 730 m 1
 380 890 l 1
 500 890 l 1
 650 730 l 1
 530 730 l 1
 440 820 l 1
 350 730 l 1
 230 730 l 1
70 135 m 2
 70 525 l 2
 70 660 190 660 310 660 c 2
 810 660 l 1
 810 550 l 1
 300 550 l 2
 270 550 240 550 240 515 c 2
 240 145 l 2
 240 110 270 110 300 110 c 2
 810 110 l 1
 810 0 l 1
 310 0 l 2
 190 0 70 0 70 135 c 2
EndSplineSet
EndChar

StartChar: ccircumflex
Encoding: 265 265 201
Width: 700
GlyphClass: 2
Flags: MW
HStem: 0 95<210 640 270 640 270 640> 385 95<260 270 270 640> 550 160<140 410 140 410 290 440 290 560>
VStem: 60 160<115 125 125 355>
LayerCount: 2
Fore
SplineSet
140 550 m 1
 290 710 l 1
 410 710 l 1
 560 550 l 1
 440 550 l 1
 350 640 l 1
 260 550 l 1
 140 550 l 1
60 115 m 2
 60 365 l 2
 60 480 160 480 260 480 c 2
 640 480 l 1
 640 385 l 1
 270 385 l 2
 245 385 220 385 220 355 c 2
 220 125 l 2
 220 95 245 95 270 95 c 2
 640 95 l 1
 640 0 l 1
 260 0 l 2
 160 0 60 0 60 115 c 2
EndSplineSet
EndChar

StartChar: Cdotaccent
Encoding: 266 266 202
Width: 880
GlyphClass: 2
Flags: MW
HStem: 0 110<300 310 310 810> 550 110<285 810 310 810 310 810> 755 110<375 505 375 505>
VStem: 70 170<135 145 145 515> 375 130<755 865 755 865>
LayerCount: 2
Fore
SplineSet
375 755 m 1
 375 865 l 1
 505 865 l 1
 505 755 l 1
 375 755 l 1
70 135 m 2
 70 525 l 2
 70 660 190 660 310 660 c 2
 810 660 l 1
 810 550 l 1
 300 550 l 2
 270 550 240 550 240 515 c 2
 240 145 l 2
 240 110 270 110 300 110 c 2
 810 110 l 1
 810 0 l 1
 310 0 l 2
 190 0 70 0 70 135 c 2
EndSplineSet
EndChar

StartChar: cdotaccent
Encoding: 267 267 203
Width: 700
GlyphClass: 2
Flags: MW
HStem: 0 95<210 640 270 640 270 640> 385 95<260 270 270 640> 575 110<285 415 285 415>
VStem: 60 160<115 125 125 355> 285 130<575 685 575 685>
LayerCount: 2
Fore
SplineSet
285 575 m 1
 285 685 l 1
 415 685 l 1
 415 575 l 1
 285 575 l 1
60 115 m 2
 60 365 l 2
 60 480 160 480 260 480 c 2
 640 480 l 1
 640 385 l 1
 270 385 l 2
 245 385 220 385 220 355 c 2
 220 125 l 2
 220 95 245 95 270 95 c 2
 640 95 l 1
 640 0 l 1
 260 0 l 2
 160 0 60 0 60 115 c 2
EndSplineSet
EndChar

StartChar: Ccaron
Encoding: 268 268 204
Width: 880
GlyphClass: 2
Flags: MW
HStem: 0 110<300 310 310 810> 550 110<285 810 310 810 310 810> 730 160<230 500 230 380>
VStem: 70 170<135 145 145 515>
LayerCount: 2
Fore
SplineSet
230 890 m 1
 350 890 l 1
 440 800 l 1
 530 890 l 1
 650 890 l 1
 500 730 l 1
 380 730 l 1
 230 890 l 1
70 135 m 2
 70 525 l 2
 70 660 190 660 310 660 c 2
 810 660 l 1
 810 550 l 1
 300 550 l 2
 270 550 240 550 240 515 c 2
 240 145 l 2
 240 110 270 110 300 110 c 2
 810 110 l 1
 810 0 l 1
 310 0 l 2
 190 0 70 0 70 135 c 2
EndSplineSet
EndChar

StartChar: ccaron
Encoding: 269 269 205
Width: 700
GlyphClass: 2
Flags: MW
HStem: 0 95<210 640 270 640 270 640> 385 95<260 270 270 640> 550 160<140 410 140 290>
VStem: 60 160<115 125 125 355>
LayerCount: 2
Fore
SplineSet
140 710 m 1
 260 710 l 1
 350 620 l 1
 440 710 l 1
 560 710 l 1
 410 550 l 1
 290 550 l 1
 140 710 l 1
60 115 m 2
 60 365 l 2
 60 480 160 480 260 480 c 2
 640 480 l 1
 640 385 l 1
 270 385 l 2
 245 385 220 385 220 355 c 2
 220 125 l 2
 220 95 245 95 270 95 c 2
 640 95 l 1
 640 0 l 1
 260 0 l 2
 160 0 60 0 60 115 c 2
EndSplineSet
EndChar

StartChar: Dcaron
Encoding: 270 270 206
Width: 930
GlyphClass: 2
Flags: MW
HStem: 0 110<240 450 450 500> 555 105<240 450 240 240> 730 160<255 525 255 405>
VStem: 70 170<110 110 110 555> 690 170<310 355 197.5 435>
LayerCount: 2
Fore
SplineSet
255 890 m 1
 375 890 l 1
 465 800 l 1
 555 890 l 1
 675 890 l 1
 525 730 l 1
 405 730 l 1
 255 890 l 1
70 0 m 1
 70 660 l 1
 500 660 l 2
 680 660 860 580 860 355 c 2
 860 310 l 2
 860 85 680 0 500 0 c 2
 70 0 l 1
240 110 m 1
 450 110 l 2
 570 110 690 150 690 310 c 2
 690 355 l 2
 690 515 570 555 450 555 c 2
 240 555 l 1
 240 110 l 1
EndSplineSet
EndChar

StartChar: dcaron
Encoding: 271 271 207
Width: 920
GlyphClass: 2
Flags: MW
HStem: 0 95<210 520 270 520 270 680> 385 95<260 270 270 520> 460 200<520 720 770 820> 640 20<520 680 680 680 770 900 900 900>
VStem: 60 160<115 125 125 355> 520 160<95 385 385 385 480 660 0 660> 720 180
LayerCount: 2
Fore
SplineSet
720 460 m 1x22
 770 660 l 1
 900 660 l 1
 820 460 l 1
 720 460 l 1x22
60 115 m 2xdc
 60 365 l 2
 60 480 160 480 260 480 c 2
 520 480 l 1
 520 660 l 1
 680 660 l 1
 680 0 l 1
 260 0 l 2
 160 0 60 0 60 115 c 2xdc
220 125 m 2
 220 95 245 95 270 95 c 2
 520 95 l 1
 520 385 l 1
 270 385 l 2
 245 385 220 385 220 355 c 2
 220 125 l 2
EndSplineSet
EndChar

StartChar: Dcroat
Encoding: 272 272 208
Width: 960
GlyphClass: 2
Flags: MW
HStem: 0 110<270 480 480 530> 315 95<20 100 20 100 270 495> 555 105<270 480 270 270>
VStem: 100 170<110 110 110 315 410 555> 720 170<310 355 197.5 435>
LayerCount: 2
Fore
SplineSet
270 110 m 1
 480 110 l 2
 600 110 720 150 720 310 c 2
 720 355 l 2
 720 515 600 555 480 555 c 2
 270 555 l 1
 270 410 l 1
 495 410 l 1
 495 315 l 1
 270 315 l 1
 270 110 l 1
100 315 m 1
 20 315 l 1
 20 410 l 1
 100 410 l 1
 100 660 l 1
 530 660 l 2
 710 660 890 580 890 355 c 2
 890 310 l 2
 890 85 710 0 530 0 c 2
 100 0 l 1
 100 315 l 1
EndSplineSet
EndChar

StartChar: dcroat
Encoding: 273 273 209
Width: 760
GlyphClass: 2
Flags: MW
HStem: 0 95<210 520 270 520 270 680> 385 95<260 270 270 520> 535 80<370 520 370 520 680 740> 640 20G<520 680 680 680>
VStem: 60 160<115 125 125 355> 520 160<95 385 385 385 480 535 0 535 615 660 0 660>
LayerCount: 2
Fore
SplineSet
60 115 m 2
 60 365 l 2
 60 480 160 480 260 480 c 2
 520 480 l 1
 520 535 l 1
 370 535 l 1
 370 615 l 1
 520 615 l 1
 520 660 l 1
 680 660 l 1
 680 615 l 1
 740 615 l 1
 740 535 l 1
 680 535 l 1
 680 0 l 1
 260 0 l 2
 160 0 60 0 60 115 c 2
220 125 m 2
 220 95 245 95 270 95 c 2
 520 95 l 1
 520 385 l 1
 270 385 l 2
 245 385 220 385 220 355 c 2
 220 125 l 2
EndSplineSet
EndChar

StartChar: Emacron
Encoding: 274 274 210
Width: 880
GlyphClass: 2
Flags: MW
HStem: 0 110<240 810 240 810> 305 110<240 760 240 760> 550 110<240 810 240 240> 755 95<260 620 260 620>
VStem: 70 170<110 305 415 550> 260 360<755 850 755 850>
LayerCount: 2
Fore
SplineSet
260 755 m 1
 260 850 l 1
 620 850 l 1
 620 755 l 1
 260 755 l 1
70 0 m 1
 70 660 l 1
 810 660 l 1
 810 550 l 1
 240 550 l 1
 240 415 l 1
 760 415 l 1
 760 305 l 1
 240 305 l 1
 240 110 l 1
 810 110 l 1
 810 0 l 1
 70 0 l 1
EndSplineSet
EndChar

StartChar: emacron
Encoding: 275 275 211
Width: 740
GlyphClass: 2
Flags: MW
HStem: 0 95<210 660 270 660 270 660> 205 95<220 520 220 680 220 520> 385 95<260 270 270 470> 575 95<190 550 190 550>
VStem: 60 160<115 125 125 205 300 355> 190 360<575 670 575 670> 520 160<300 355 355 365 205 370>
LayerCount: 2
Fore
SplineSet
190 575 m 1x14
 190 670 l 1
 550 670 l 1
 550 575 l 1
 190 575 l 1x14
60 115 m 2xea
 60 365 l 2
 60 480 160 480 260 480 c 2
 480 480 l 2
 580 480 680 480 680 365 c 2
 680 205 l 1
 220 205 l 1
 220 125 l 2
 220 95 245 95 270 95 c 2
 660 95 l 1
 660 0 l 1
 260 0 l 2
 160 0 60 0 60 115 c 2xea
220 300 m 1
 520 300 l 1
 520 355 l 2
 520 385 495 385 470 385 c 2
 270 385 l 2
 245 385 220 385 220 355 c 2
 220 300 l 1
EndSplineSet
EndChar

StartChar: Ebreve
Encoding: 276 276 212
Width: 880
GlyphClass: 2
Flags: MW
HStem: 0 110<240 810 240 810> 305 110<240 760 240 760> 550 110<240 810 240 240> 730 85<419.5 460.5 419.5 487>
VStem: 70 170<110 305 415 550> 270 95<869.5 890 869.5 890> 515 95<869.5 890>
LayerCount: 2
Fore
SplineSet
270 890 m 1
 365 890 l 1
 365 849 399 815 440 815 c 0
 481 815 515 849 515 890 c 1
 610 890 l 1
 610 802 534 730 440 730 c 0
 346 730 270 802 270 890 c 1
70 0 m 1
 70 660 l 1
 810 660 l 1
 810 550 l 1
 240 550 l 1
 240 415 l 1
 760 415 l 1
 760 305 l 1
 240 305 l 1
 240 110 l 1
 810 110 l 1
 810 0 l 1
 70 0 l 1
EndSplineSet
EndChar

StartChar: ebreve
Encoding: 277 277 213
Width: 740
GlyphClass: 2
Flags: MW
HStem: 0 95<210 660 270 660 270 660> 205 95<220 520 220 680 220 520> 385 95<260 270 270 470> 550 85<349.5 390.5 349.5 417>
VStem: 60 160<115 125 125 205 300 355> 200 95<689.5 710 689.5 710> 445 95<689.5 710> 520 160<300 355 355 365 205 370>
LayerCount: 2
Fore
SplineSet
200 710 m 1x16
 295 710 l 1
 295 669 329 635 370 635 c 0
 411 635 445 669 445 710 c 1
 540 710 l 1
 540 622 464 550 370 550 c 0
 276 550 200 622 200 710 c 1x16
60 115 m 2xe9
 60 365 l 2
 60 480 160 480 260 480 c 2
 480 480 l 2
 580 480 680 480 680 365 c 2
 680 205 l 1
 220 205 l 1
 220 125 l 2
 220 95 245 95 270 95 c 2
 660 95 l 1
 660 0 l 1
 260 0 l 2
 160 0 60 0 60 115 c 2xe9
220 300 m 1
 520 300 l 1
 520 355 l 2
 520 385 495 385 470 385 c 2
 270 385 l 2
 245 385 220 385 220 355 c 2
 220 300 l 1
EndSplineSet
EndChar

StartChar: Edotaccent
Encoding: 278 278 214
Width: 880
GlyphClass: 2
Flags: MW
HStem: 0 110<240 810 240 810> 305 110<240 760 240 760> 550 110<240 810 240 240> 755 110<375 505 375 505>
VStem: 70 170<110 305 415 550> 375 130<755 865 755 865>
LayerCount: 2
Fore
SplineSet
375 755 m 1
 375 865 l 1
 505 865 l 1
 505 755 l 1
 375 755 l 1
70 0 m 1
 70 660 l 1
 810 660 l 1
 810 550 l 1
 240 550 l 1
 240 415 l 1
 760 415 l 1
 760 305 l 1
 240 305 l 1
 240 110 l 1
 810 110 l 1
 810 0 l 1
 70 0 l 1
EndSplineSet
EndChar

StartChar: edotaccent
Encoding: 279 279 215
Width: 740
GlyphClass: 2
Flags: MW
HStem: 0 95<210 660 270 660 270 660> 205 95<220 520 220 680 220 520> 385 95<260 270 270 470> 575 110<305 435 305 435>
VStem: 60 160<115 125 125 205 300 355> 305 130<575 685 575 685> 520 160<300 355 355 365 205 370>
CounterMasks: 1 0e
LayerCount: 2
Fore
SplineSet
305 575 m 1
 305 685 l 1
 435 685 l 1
 435 575 l 1
 305 575 l 1
60 115 m 2
 60 365 l 2
 60 480 160 480 260 480 c 2
 480 480 l 2
 580 480 680 480 680 365 c 2
 680 205 l 1
 220 205 l 1
 220 125 l 2
 220 95 245 95 270 95 c 2
 660 95 l 1
 660 0 l 1
 260 0 l 2
 160 0 60 0 60 115 c 2
220 300 m 1
 520 300 l 1
 520 355 l 2
 520 385 495 385 470 385 c 2
 270 385 l 2
 245 385 220 385 220 355 c 2
 220 300 l 1
EndSplineSet
EndChar

StartChar: Eogonek
Encoding: 280 280 216
Width: 880
GlyphClass: 2
Flags: MW
HStem: -225 70<725 810 795 810 795 810> -20 20<70 70 70 810 695 810 810 810> 0 110<240 810 240 810 695 810 240 810> 305 110<240 760 240 760> 550 110<240 810 240 240>
VStem: 70 170<110 305 415 550> 605 120<-130 -115>
LayerCount: 2
Fore
SplineSet
605 -135 m 0xc2
 605 -95 625 -70 695 0 c 1
 810 0 l 1
 735 -75 725 -95 725 -115 c 0
 725 -145 755 -155 795 -155 c 2
 810 -155 l 1
 810 -225 l 1
 765 -225 l 2
 685 -225 605 -215 605 -135 c 0xc2
70 0 m 1x3c
 70 660 l 1
 810 660 l 1
 810 550 l 1
 240 550 l 1
 240 415 l 1
 760 415 l 1
 760 305 l 1
 240 305 l 1
 240 110 l 1
 810 110 l 1
 810 0 l 1
 70 0 l 1x3c
EndSplineSet
EndChar

StartChar: eogonek
Encoding: 281 281 217
Width: 740
GlyphClass: 2
Flags: MW
HStem: -225 70<575 660 645 660 645 660> -20 20<210 260 260 660 545 660 660 660> 0 95<210 660 270 660 270 660 545 660 270 660> 205 95<220 520 220 680 220 520> 385 95<260 270 270 470>
VStem: 60 160<115 125 125 205 300 355> 455 120<-130 -115> 520 160<300 355 355 365 205 370>
LayerCount: 2
Fore
SplineSet
455 -135 m 0xc2
 455 -95 475 -70 545 0 c 1
 660 0 l 1
 585 -75 575 -95 575 -115 c 0
 575 -145 605 -155 645 -155 c 2
 660 -155 l 1
 660 -225 l 1
 615 -225 l 2
 535 -225 455 -215 455 -135 c 0xc2
60 115 m 2x3d
 60 365 l 2
 60 480 160 480 260 480 c 2
 480 480 l 2
 580 480 680 480 680 365 c 2
 680 205 l 1
 220 205 l 1
 220 125 l 2
 220 95 245 95 270 95 c 2
 660 95 l 1
 660 0 l 1
 260 0 l 2
 160 0 60 0 60 115 c 2x3d
220 300 m 1
 520 300 l 1
 520 355 l 2
 520 385 495 385 470 385 c 2
 270 385 l 2
 245 385 220 385 220 355 c 2
 220 300 l 1
EndSplineSet
EndChar

StartChar: Ecaron
Encoding: 282 282 218
Width: 880
GlyphClass: 2
Flags: MW
HStem: 0 110<240 810 240 810> 305 110<240 760 240 760> 550 110<240 810 240 240> 730 160<230 500 230 380>
VStem: 70 170<110 305 415 550>
LayerCount: 2
Fore
SplineSet
230 890 m 1
 350 890 l 1
 440 800 l 1
 530 890 l 1
 650 890 l 1
 500 730 l 1
 380 730 l 1
 230 890 l 1
70 0 m 1
 70 660 l 1
 810 660 l 1
 810 550 l 1
 240 550 l 1
 240 415 l 1
 760 415 l 1
 760 305 l 1
 240 305 l 1
 240 110 l 1
 810 110 l 1
 810 0 l 1
 70 0 l 1
EndSplineSet
EndChar

StartChar: ecaron
Encoding: 283 283 219
Width: 740
GlyphClass: 2
Flags: MW
HStem: 0 95<210 660 270 660 270 660> 205 95<220 520 220 680 220 520> 385 95<260 270 270 470> 550 160<160 430 160 310>
VStem: 60 160<115 125 125 205 300 355> 520 160<300 355 355 365 205 370>
LayerCount: 2
Fore
SplineSet
160 710 m 1
 280 710 l 1
 370 620 l 1
 460 710 l 1
 580 710 l 1
 430 550 l 1
 310 550 l 1
 160 710 l 1
60 115 m 2
 60 365 l 2
 60 480 160 480 260 480 c 2
 480 480 l 2
 580 480 680 480 680 365 c 2
 680 205 l 1
 220 205 l 1
 220 125 l 2
 220 95 245 95 270 95 c 2
 660 95 l 1
 660 0 l 1
 260 0 l 2
 160 0 60 0 60 115 c 2
220 300 m 1
 520 300 l 1
 520 355 l 2
 520 385 495 385 470 385 c 2
 270 385 l 2
 245 385 220 385 220 355 c 2
 220 300 l 1
EndSplineSet
EndChar

StartChar: Gcircumflex
Encoding: 284 284 220
Width: 930
GlyphClass: 2
Flags: MW
HStem: 0 110<300 310 310 620> 305 110<540 690 540 860> 550 110<285 810 310 810 310 810> 730 160<255 525 255 525 405 555 405 675>
VStem: 70 170<135 145 145 515> 690 170<145 305 305 305>
LayerCount: 2
Fore
SplineSet
255 730 m 1
 405 890 l 1
 525 890 l 1
 675 730 l 1
 555 730 l 1
 465 820 l 1
 375 730 l 1
 255 730 l 1
70 135 m 2
 70 525 l 2
 70 660 190 660 310 660 c 2
 810 660 l 1
 810 550 l 1
 300 550 l 2
 270 550 240 550 240 515 c 2
 240 145 l 2
 240 110 270 110 300 110 c 2
 630 110 l 2
 660 110 690 110 690 145 c 2
 690 305 l 1
 540 305 l 1
 540 415 l 1
 860 415 l 1
 860 135 l 2
 860 0 740 0 620 0 c 2
 310 0 l 2
 190 0 70 0 70 135 c 2
EndSplineSet
EndChar

StartChar: gcircumflex
Encoding: 285 285 221
Width: 740
GlyphClass: 2
Flags: MW
HStem: -225 95<80 470 470 480 80 470> 0 95<210 520 270 520 270 520> 385 95<260 270 270 520> 550 160<160 430 160 430 310 460 310 580>
VStem: 60 160<115 125 125 355> 520 160<-105 0 0 0 95 385 385 385>
LayerCount: 2
Fore
SplineSet
160 550 m 1
 310 710 l 1
 430 710 l 1
 580 550 l 1
 460 550 l 1
 370 640 l 1
 280 550 l 1
 160 550 l 1
60 115 m 2
 60 365 l 2
 60 480 160 480 260 480 c 2
 680 480 l 1
 680 -125 l 2
 680 -225 580 -225 480 -225 c 2
 80 -225 l 1
 80 -130 l 1
 470 -130 l 2
 495 -130 520 -130 520 -105 c 2
 520 0 l 1
 260 0 l 2
 160 0 60 0 60 115 c 2
220 125 m 2
 220 95 245 95 270 95 c 2
 520 95 l 1
 520 385 l 1
 270 385 l 2
 245 385 220 385 220 355 c 2
 220 125 l 2
EndSplineSet
EndChar

StartChar: Gbreve
Encoding: 286 286 222
Width: 930
GlyphClass: 2
Flags: MW
HStem: 0 110<300 310 310 620> 305 110<540 690 540 860> 550 110<285 810 310 810 310 810> 730 85<444.5 485.5 444.5 512>
VStem: 70 170<135 145 145 515> 295 95<869.5 890 869.5 890> 540 95<869.5 890> 690 170<145 305 305 305>
LayerCount: 2
Fore
SplineSet
295 890 m 1
 390 890 l 1
 390 849 424 815 465 815 c 0
 506 815 540 849 540 890 c 1
 635 890 l 1
 635 802 559 730 465 730 c 0
 371 730 295 802 295 890 c 1
70 135 m 2
 70 525 l 2
 70 660 190 660 310 660 c 2
 810 660 l 1
 810 550 l 1
 300 550 l 2
 270 550 240 550 240 515 c 2
 240 145 l 2
 240 110 270 110 300 110 c 2
 630 110 l 2
 660 110 690 110 690 145 c 2
 690 305 l 1
 540 305 l 1
 540 415 l 1
 860 415 l 1
 860 135 l 2
 860 0 740 0 620 0 c 2
 310 0 l 2
 190 0 70 0 70 135 c 2
EndSplineSet
EndChar

StartChar: gbreve
Encoding: 287 287 223
Width: 740
GlyphClass: 2
Flags: MW
HStem: -225 95<80 470 470 480 80 470> 0 95<210 520 270 520 270 520> 385 95<260 270 270 520> 550 85<349.5 390.5 349.5 417>
VStem: 60 160<115 125 125 355> 200 95<689.5 710 689.5 710> 445 95<689.5 710> 520 160<-105 0 0 0 95 385 385 385>
LayerCount: 2
Fore
SplineSet
200 710 m 1x16
 295 710 l 1
 295 669 329 635 370 635 c 0
 411 635 445 669 445 710 c 1
 540 710 l 1
 540 622 464 550 370 550 c 0
 276 550 200 622 200 710 c 1x16
60 115 m 2xe9
 60 365 l 2
 60 480 160 480 260 480 c 2
 680 480 l 1
 680 -125 l 2
 680 -225 580 -225 480 -225 c 2
 80 -225 l 1
 80 -130 l 1
 470 -130 l 2
 495 -130 520 -130 520 -105 c 2
 520 0 l 1
 260 0 l 2
 160 0 60 0 60 115 c 2xe9
220 125 m 2
 220 95 245 95 270 95 c 2
 520 95 l 1
 520 385 l 1
 270 385 l 2
 245 385 220 385 220 355 c 2
 220 125 l 2
EndSplineSet
EndChar

StartChar: Gdotaccent
Encoding: 288 288 224
Width: 930
GlyphClass: 2
Flags: MW
HStem: 0 110<300 310 310 620> 305 110<540 690 540 860> 550 110<285 810 310 810 310 810> 755 110<400 530 400 530>
VStem: 70 170<135 145 145 515> 400 130<755 865 755 865> 690 170<145 305 305 305>
CounterMasks: 1 0e
LayerCount: 2
Fore
SplineSet
400 755 m 1
 400 865 l 1
 530 865 l 1
 530 755 l 1
 400 755 l 1
70 135 m 2
 70 525 l 2
 70 660 190 660 310 660 c 2
 810 660 l 1
 810 550 l 1
 300 550 l 2
 270 550 240 550 240 515 c 2
 240 145 l 2
 240 110 270 110 300 110 c 2
 630 110 l 2
 660 110 690 110 690 145 c 2
 690 305 l 1
 540 305 l 1
 540 415 l 1
 860 415 l 1
 860 135 l 2
 860 0 740 0 620 0 c 2
 310 0 l 2
 190 0 70 0 70 135 c 2
EndSplineSet
EndChar

StartChar: gdotaccent
Encoding: 289 289 225
Width: 740
GlyphClass: 2
Flags: MW
HStem: -225 95<80 470 470 480 80 470> 0 95<210 520 270 520 270 520> 385 95<260 270 270 520> 575 110<305 435 305 435>
VStem: 60 160<115 125 125 355> 305 130<575 685 575 685> 520 160<-105 0 0 0 95 385 385 385>
CounterMasks: 1 0e
LayerCount: 2
Fore
SplineSet
305 575 m 1
 305 685 l 1
 435 685 l 1
 435 575 l 1
 305 575 l 1
60 115 m 2
 60 365 l 2
 60 480 160 480 260 480 c 2
 680 480 l 1
 680 -125 l 2
 680 -225 580 -225 480 -225 c 2
 80 -225 l 1
 80 -130 l 1
 470 -130 l 2
 495 -130 520 -130 520 -105 c 2
 520 0 l 1
 260 0 l 2
 160 0 60 0 60 115 c 2
220 125 m 2
 220 95 245 95 270 95 c 2
 520 95 l 1
 520 385 l 1
 270 385 l 2
 245 385 220 385 220 355 c 2
 220 125 l 2
EndSplineSet
EndChar

StartChar: Gcommaaccent
Encoding: 290 290 226
Width: 930
GlyphClass: 2
Flags: MW
HStem: -225 155<370 550 410 480> 0 110<300 310 310 620> 305 110<540 690 540 860> 550 110<285 810 310 810 310 810>
VStem: 70 170<135 145 145 515> 370 180<-225 -70> 690 170<145 305 305 305>
LayerCount: 2
Fore
SplineSet
370 -225 m 1
 410 -70 l 1
 550 -70 l 1
 480 -225 l 1
 370 -225 l 1
70 135 m 2
 70 525 l 2
 70 660 190 660 310 660 c 2
 810 660 l 1
 810 550 l 1
 300 550 l 2
 270 550 240 550 240 515 c 2
 240 145 l 2
 240 110 270 110 300 110 c 2
 630 110 l 2
 660 110 690 110 690 145 c 2
 690 305 l 1
 540 305 l 1
 540 415 l 1
 860 415 l 1
 860 135 l 2
 860 0 740 0 620 0 c 2
 310 0 l 2
 190 0 70 0 70 135 c 2
EndSplineSet
EndChar

StartChar: gcommaaccent
Encoding: 291 291 227
Width: 740
GlyphClass: 2
Flags: MW
HStem: -225 95<80 470 470 480 80 470> 0 95<210 520 270 520 270 520> 385 95<260 270 270 520> 550 250<300 500 400 450>
VStem: 60 160<115 125 125 355> 300 200 520 160<-105 0 0 0 95 385 385 385>
LayerCount: 2
Fore
SplineSet
300 550 m 1
 400 800 l 1
 500 800 l 1
 450 550 l 1
 300 550 l 1
60 115 m 2
 60 365 l 2
 60 480 160 480 260 480 c 2
 680 480 l 1
 680 -125 l 2
 680 -225 580 -225 480 -225 c 2
 80 -225 l 1
 80 -130 l 1
 470 -130 l 2
 495 -130 520 -130 520 -105 c 2
 520 0 l 1
 260 0 l 2
 160 0 60 0 60 115 c 2
220 125 m 2
 220 95 245 95 270 95 c 2
 520 95 l 1
 520 385 l 1
 270 385 l 2
 245 385 220 385 220 355 c 2
 220 125 l 2
EndSplineSet
EndChar

StartChar: Hcircumflex
Encoding: 292 292 228
Width: 930
GlyphClass: 2
Flags: MW
HStem: 0 21<70 70 70 240 690 690 690 860> 305 110<240 690 240 690> 640 20<70 240 240 240 690 860 860 860> 730 160<255 525 255 525 405 555 405 675>
VStem: 70 170<0 305 415 660> 690 170<0 305 305 305 415 660 0 660>
LayerCount: 2
Fore
SplineSet
255 730 m 1
 405 890 l 1
 525 890 l 1
 675 730 l 1
 555 730 l 1
 465 820 l 1
 375 730 l 1
 255 730 l 1
70 0 m 1
 70 660 l 1
 240 660 l 1
 240 415 l 1
 690 415 l 1
 690 660 l 1
 860 660 l 1
 860 0 l 1
 690 0 l 1
 690 305 l 1
 240 305 l 1
 240 0 l 1
 70 0 l 1
EndSplineSet
EndChar

StartChar: hcircumflex
Encoding: 293 293 229
Width: 740
GlyphClass: 2
Flags: MW
HStem: 0 21<60 60 60 220 520 520 520 680> 385 95<220 470 220 480> 640 20<60 220 220 220> 730 160<160 430 160 430 310 460 310 580>
VStem: 60 160<0 385 480 660> 520 160<0 355 355 365 0 370>
LayerCount: 2
Fore
SplineSet
160 730 m 1
 310 890 l 1
 430 890 l 1
 580 730 l 1
 460 730 l 1
 370 820 l 1
 280 730 l 1
 160 730 l 1
60 0 m 1
 60 660 l 1
 220 660 l 1
 220 480 l 1
 480 480 l 2
 580 480 680 480 680 365 c 2
 680 0 l 1
 520 0 l 1
 520 355 l 2
 520 385 495 385 470 385 c 2
 220 385 l 1
 220 0 l 1
 60 0 l 1
EndSplineSet
EndChar

StartChar: Hbar
Encoding: 294 294 230
Width: 990
GlyphClass: 2
Flags: MW
HStem: 0 21G<100 270 100 100 720 890 720 720> 305 110<270 720 270 720> 500 95<20 100 20 100 270 720 890 970> 640 20G<100 270 270 270 720 890 890 890>
VStem: 100 170<0 305 415 500 595 660> 720 170<0 305 305 305 415 500 0 500 595 660 0 660>
LayerCount: 2
Fore
SplineSet
20 500 m 1
 20 595 l 1
 100 595 l 1
 100 660 l 1
 270 660 l 1
 270 595 l 1
 720 595 l 1
 720 660 l 1
 890 660 l 1
 890 595 l 1
 970 595 l 1
 970 500 l 1
 890 500 l 1
 890 0 l 1
 720 0 l 1
 720 305 l 1
 270 305 l 1
 270 0 l 1
 100 0 l 1
 100 500 l 1
 20 500 l 1
270 415 m 1
 720 415 l 1
 720 500 l 1
 270 500 l 1
 270 415 l 1
EndSplineSet
EndChar

StartChar: hbar
Encoding: 295 295 231
Width: 760
GlyphClass: 2
Flags: MW
HStem: 0 21G<80 240 80 80 540 700 540 540> 385 95<240 490 240 500> 535 80<20 80 20 80 240 390> 640 20G<80 240 240 240>
VStem: 80 160<0 385 480 535 0 535 0 535 615 660> 540 160<0 355 355 365 0 370>
LayerCount: 2
Fore
SplineSet
20 535 m 1
 20 615 l 1
 80 615 l 1
 80 660 l 1
 240 660 l 1
 240 615 l 1
 390 615 l 1
 390 535 l 1
 240 535 l 1
 240 480 l 1
 500 480 l 2
 600 480 700 480 700 365 c 2
 700 0 l 1
 540 0 l 1
 540 355 l 2
 540 385 515 385 490 385 c 2
 240 385 l 1
 240 0 l 1
 80 0 l 1
 80 535 l 1
 20 535 l 1
EndSplineSet
EndChar

StartChar: Itilde
Encoding: 296 296 232
Width: 340
GlyphClass: 2
Flags: MW
HStem: 0 21<85 85 85 255> 640 20<85 255 255 255> 740 80<235 285> 800 80<55 105>
VStem: -30 90 85 170<0 660 0 660> 280 90
CounterMasks: 1 0e
LayerCount: 2
Fore
SplineSet
75 880 m 0x1a
 100 880 110 880 170 850 c 0
 210 830 230 820 240 820 c 0x2a
 255 820 265 820 280 880 c 1
 380 880 l 1x1a
 355 775 305 740 265 740 c 0x2a
 240 740 230 740 170 770 c 0
 130 790 110 800 100 800 c 0x1a
 85 800 75 800 60 740 c 1
 -40 740 l 1x2a
 -15 845 35 880 75 880 c 0x1a
85 0 m 1xc4
 85 660 l 1
 255 660 l 1
 255 0 l 1
 85 0 l 1xc4
EndSplineSet
EndChar

StartChar: itilde
Encoding: 297 297 233
Width: 340
GlyphClass: 2
Flags: MW
HStem: 0 21<90 90 90 250> 460 20<90 250 250 250> 560 80<235 285> 620 80<55 105>
VStem: -30 90 90 160<0 480 0 480> 280 90
CounterMasks: 1 0e
LayerCount: 2
Fore
SplineSet
75 700 m 0x1a
 100 700 110 700 170 670 c 0
 210 650 230 640 240 640 c 0x2a
 255 640 265 640 280 700 c 1
 380 700 l 1x1a
 355 595 305 560 265 560 c 0x2a
 240 560 230 560 170 590 c 0
 130 610 110 620 100 620 c 0x1a
 85 620 75 620 60 560 c 1
 -40 560 l 1x2a
 -15 665 35 700 75 700 c 0x1a
90 0 m 1xc4
 90 480 l 1
 250 480 l 1
 250 0 l 1
 90 0 l 1xc4
EndSplineSet
EndChar

StartChar: Imacron
Encoding: 298 298 234
Width: 340
GlyphClass: 2
Flags: MW
HStem: 0 21<85 85 85 255> 640 20<85 255 255 255> 755 95<-10 350 -10 350>
VStem: -10 360<755 850 755 850> 85 170<0 660 0 660>
LayerCount: 2
Fore
SplineSet
-10 755 m 1x30
 -10 850 l 1
 350 850 l 1
 350 755 l 1
 -10 755 l 1x30
85 0 m 1xc8
 85 660 l 1
 255 660 l 1
 255 0 l 1
 85 0 l 1xc8
EndSplineSet
EndChar

StartChar: imacron
Encoding: 299 299 235
Width: 340
GlyphClass: 2
Flags: MW
HStem: 0 21<90 90 90 250> 460 20<90 250 250 250> 575 95<-10 350 -10 350>
VStem: -10 360<575 670 575 670> 90 160<0 480 0 480>
LayerCount: 2
Fore
SplineSet
-10 575 m 1x30
 -10 670 l 1
 350 670 l 1
 350 575 l 1
 -10 575 l 1x30
90 0 m 1xc8
 90 480 l 1
 250 480 l 1
 250 0 l 1
 90 0 l 1xc8
EndSplineSet
EndChar

StartChar: Ibreve
Encoding: 300 300 236
Width: 310
GlyphClass: 2
Flags: MW
HStem: 0 21<70 70 70 240> 640 20<70 240 240 240> 730 85<134.5 175.5 134.5 202>
VStem: -15 95<869.5 890 869.5 890> 70 170<0 660 0 660> 230 95<869.5 890>
LayerCount: 2
Fore
SplineSet
-15 890 m 1x34
 80 890 l 1
 80 849 114 815 155 815 c 0
 196 815 230 849 230 890 c 1
 325 890 l 1
 325 802 249 730 155 730 c 0
 61 730 -15 802 -15 890 c 1x34
70 0 m 1xc8
 70 660 l 1
 240 660 l 1
 240 0 l 1
 70 0 l 1xc8
EndSplineSet
EndChar

StartChar: ibreve
Encoding: 301 301 237
Width: 300
GlyphClass: 2
Flags: MW
HStem: 0 21<70 70 70 230> 460 20<70 230 230 230> 550 85<129.5 170.5 129.5 197>
VStem: -20 95<689.5 710 689.5 710> 70 160<0 480 0 480> 225 95<689.5 710>
LayerCount: 2
Fore
SplineSet
-20 710 m 1x34
 75 710 l 1
 75 669 109 635 150 635 c 0
 191 635 225 669 225 710 c 1
 320 710 l 1
 320 622 244 550 150 550 c 0
 56 550 -20 622 -20 710 c 1x34
70 0 m 1xc8
 70 480 l 1
 230 480 l 1
 230 0 l 1
 70 0 l 1xc8
EndSplineSet
EndChar

StartChar: Iogonek
Encoding: 302 302 238
Width: 310
GlyphClass: 2
Flags: MW
HStem: -225 70<155 240 225 240 225 240> -20 20<70 70 70 240 125 240 240 240> 0 21<70 70 70 240 125 240 240 240> 640 20<70 240 240 240>
VStem: 35 120<-130 -115> 70 170<0 660>
LayerCount: 2
Fore
SplineSet
35 -135 m 0xc8
 35 -95 55 -70 125 0 c 1
 240 0 l 1
 165 -75 155 -95 155 -115 c 0
 155 -145 185 -155 225 -155 c 2
 240 -155 l 1
 240 -225 l 1
 195 -225 l 2
 115 -225 35 -215 35 -135 c 0xc8
70 0 m 1x34
 70 660 l 1
 240 660 l 1
 240 0 l 1
 70 0 l 1x34
EndSplineSet
EndChar

StartChar: iogonek
Encoding: 303 303 239
Width: 280
GlyphClass: 2
Flags: MW
HStem: -225 70<135 220 205 220 205 220> -20 20<60 60 60 220 105 220 220 220> 0 21<60 60 60 220 105 220 220 220> 460 20<60 220 220 220> 565 95<60 220 60 220>
VStem: 15 120<-130 -115> 60 160<0 480 565 660>
LayerCount: 2
Fore
SplineSet
15 -135 m 0xc4
 15 -95 35 -70 105 0 c 1
 220 0 l 1
 145 -75 135 -95 135 -115 c 0
 135 -145 165 -155 205 -155 c 2
 220 -155 l 1
 220 -225 l 1
 175 -225 l 2
 95 -225 15 -215 15 -135 c 0xc4
60 0 m 1x3a
 60 480 l 1
 220 480 l 1
 220 0 l 1
 60 0 l 1x3a
60 565 m 1
 60 660 l 1
 220 660 l 1
 220 565 l 1
 60 565 l 1
EndSplineSet
EndChar

StartChar: Idotaccent
Encoding: 304 304 240
Width: 310
GlyphClass: 2
Flags: MW
HStem: 0 21<70 70 70 240> 640 20<70 240 240 240> 755 110<90 220 90 220>
VStem: 70 170<0 660 0 660> 90 130<755 865 755 865>
LayerCount: 2
Fore
SplineSet
90 755 m 1x28
 90 865 l 1
 220 865 l 1
 220 755 l 1
 90 755 l 1x28
70 0 m 1xd0
 70 660 l 1
 240 660 l 1
 240 0 l 1
 70 0 l 1xd0
EndSplineSet
EndChar

StartChar: dotlessi
Encoding: 305 305 241
Width: 280
GlyphClass: 2
Flags: MW
HStem: 0 21G<60 60 60 220> 460 20G<60 220 220 220>
VStem: 60 160<0 480 0 480>
LayerCount: 2
Fore
SplineSet
60 0 m 1
 60 480 l 1
 220 480 l 1
 220 0 l 1
 60 0 l 1
EndSplineSet
EndChar

StartChar: IJ
Encoding: 306 306 242
Width: 1210
GlyphClass: 2
Flags: MW
HStem: 0 21<70 70 70 240 530 590 590 900> 0 110<580 590 590 900> 235 20<350 520 520 520> 640 20<70 240 240 240 970 1140 1140 1140>
VStem: 70 170<0 660 0 660> 350 170<135 145 145 255 127.5 255> 970 170<145 660>
LayerCount: 2
Fore
SplineSet
350 135 m 2x76
 350 255 l 1
 520 255 l 1
 520 145 l 2
 520 110 550 110 580 110 c 2
 910 110 l 2
 940 110 970 110 970 145 c 2
 970 660 l 1
 1140 660 l 1
 1140 135 l 2
 1140 0 1020 0 900 0 c 2
 590 0 l 2
 470 0 350 0 350 135 c 2x76
70 0 m 1x98
 70 660 l 1
 240 660 l 1
 240 0 l 1
 70 0 l 1x98
EndSplineSet
EndChar

StartChar: ij
Encoding: 307 307 243
Width: 540
GlyphClass: 2
Flags: MW
HStem: -225 95<210 210> 0 21<60 60 60 220 320 320 480 480> 460 20<60 220 220 220 320 480 480 480> 565 95<60 220 60 220 320 480>
VStem: 60 160<0 480 0 480 565 660> 210 21<-225 -130 -130 -130> 320 160<0 480 565 660>
LayerCount: 2
Fore
SplineSet
210 -130 m 1xb6
 300 -115 320 -60 320 0 c 2
 320 480 l 1
 480 480 l 1
 480 0 l 2
 480 -205 300 -220 210 -225 c 1
 210 -130 l 1xb6
320 565 m 1
 320 660 l 1
 480 660 l 1
 480 565 l 1
 320 565 l 1
60 0 m 1x78
 60 480 l 1
 220 480 l 1
 220 0 l 1
 60 0 l 1x78
60 565 m 1
 60 660 l 1
 220 660 l 1
 220 565 l 1
 60 565 l 1
EndSplineSet
EndChar

StartChar: Jcircumflex
Encoding: 308 308 244
Width: 930
GlyphClass: 2
Flags: MW
HStem: 0 110<300 310 310 620> 235 20<70 240 240 240> 640 20<690 860 860 860> 730 160<565 835 565 835 715 865 715 985>
VStem: 70 170<135 145 145 255 127.5 255> 690 170<145 660>
LayerCount: 2
Fore
SplineSet
565 730 m 1
 715 890 l 1
 835 890 l 1
 985 730 l 1
 865 730 l 1
 775 820 l 1
 685 730 l 1
 565 730 l 1
70 135 m 2
 70 255 l 1
 240 255 l 1
 240 145 l 2
 240 110 270 110 300 110 c 2
 630 110 l 2
 660 110 690 110 690 145 c 2
 690 660 l 1
 860 660 l 1
 860 135 l 2
 860 0 740 0 620 0 c 2
 310 0 l 2
 190 0 70 0 70 135 c 2
EndSplineSet
EndChar

StartChar: jcircumflex
Encoding: 309 309 245
Width: 340
GlyphClass: 2
Flags: MW
HStem: -225 95<-20 -20> 460 20<90 250 250 250> 550 160<-40 230 -40 230 110 260 110 380>
VStem: -20 21<-225 -130 -130 -130> 90 160<0 480>
LayerCount: 2
Fore
SplineSet
-40 550 m 1
 110 710 l 1
 230 710 l 1
 380 550 l 1
 260 550 l 1
 170 640 l 1
 80 550 l 1
 -40 550 l 1
-20 -130 m 1
 70 -115 90 -60 90 0 c 2
 90 480 l 1
 250 480 l 1
 250 0 l 2
 250 -205 70 -220 -20 -225 c 1
 -20 -130 l 1
EndSplineSet
EndChar

StartChar: Kcommaaccent
Encoding: 310 310 246
Width: 860
GlyphClass: 2
Flags: MW
HStem: -225 155<335 515 375 445> 0 21<70 70 70 240 630 630 630 840> 640 20<70 240 240 240 590 800 800 800>
VStem: 70 170<0 100 310 660> 335 180<-225 -70>
LayerCount: 2
Fore
SplineSet
335 -225 m 1
 375 -70 l 1
 515 -70 l 1
 445 -225 l 1
 335 -225 l 1
70 0 m 1
 70 660 l 1
 240 660 l 1
 240 310 l 1
 590 660 l 1
 800 660 l 1
 490 350 l 1
 840 0 l 1
 630 0 l 1
 385 245 l 1
 240 100 l 1
 240 0 l 1
 70 0 l 1
EndSplineSet
EndChar

StartChar: kcommaaccent
Encoding: 311 311 247
Width: 670
GlyphClass: 2
Flags: MW
HStem: -225 155<240 420 280 350> 0 21<60 60 60 220 460 460 460 650> 460 20<440 630 630 630> 640 20<60 220 220 220>
VStem: 60 160<0 70 260 660> 240 180<-225 -70>
LayerCount: 2
Fore
SplineSet
240 -225 m 1
 280 -70 l 1
 420 -70 l 1
 350 -225 l 1
 240 -225 l 1
60 0 m 1
 60 660 l 1
 220 660 l 1
 220 260 l 1
 440 480 l 1
 630 480 l 1
 400 250 l 1
 650 0 l 1
 460 0 l 1
 305 155 l 1
 220 70 l 1
 220 0 l 1
 60 0 l 1
EndSplineSet
EndChar

StartChar: kgreenlandic
Encoding: 312 312 248
Width: 670
GlyphClass: 2
Flags: MW
HStem: 0 21G<60 60 60 220 460 460 460 650> 460 20G<60 220 220 220 440 630 630 630>
VStem: 60 160<0 70 260 480>
LayerCount: 2
Fore
SplineSet
60 0 m 1
 60 480 l 1
 220 480 l 1
 220 260 l 1
 440 480 l 1
 630 480 l 1
 400 250 l 1
 650 0 l 1
 460 0 l 1
 305 155 l 1
 220 70 l 1
 220 0 l 1
 60 0 l 1
EndSplineSet
EndChar

StartChar: Lacute
Encoding: 313 313 249
Width: 840
GlyphClass: 2
Flags: MW
HStem: 0 110<240 810 240 810> 640 20<70 240 240 240> 730 160<320 590 420 430>
VStem: 70 170<110 660 110 660 110 660> 320 270<730 890> 790 20<0 110 0 0>
LayerCount: 2
Fore
SplineSet
320 730 m 1
 420 890 l 1
 590 890 l 1
 430 730 l 1
 320 730 l 1
70 0 m 1
 70 660 l 1
 240 660 l 1
 240 110 l 1
 810 110 l 1
 810 0 l 1
 70 0 l 1
EndSplineSet
EndChar

StartChar: lacute
Encoding: 314 314 250
Width: 280
GlyphClass: 2
Flags: MW
HStem: 0 21<60 60 60 220> 640 20<60 220 220 220> 730 160<10 280 110 120>
VStem: 10 270<730 890> 60 160<0 660 0 660>
LayerCount: 2
Fore
SplineSet
10 730 m 1x30
 110 890 l 1
 280 890 l 1
 120 730 l 1
 10 730 l 1x30
60 0 m 1xc8
 60 660 l 1
 220 660 l 1
 220 0 l 1
 60 0 l 1xc8
EndSplineSet
EndChar

StartChar: Lcommaaccent
Encoding: 315 315 251
Width: 840
GlyphClass: 2
Flags: MW
HStem: -225 155<325 505 365 435> 0 110<240 810 240 810> 640 20<70 240 240 240>
VStem: 70 170<110 660 110 660 110 660> 325 180<-225 -70> 790 20<0 110 0 0>
LayerCount: 2
Fore
SplineSet
325 -225 m 1
 365 -70 l 1
 505 -70 l 1
 435 -225 l 1
 325 -225 l 1
70 0 m 1
 70 660 l 1
 240 660 l 1
 240 110 l 1
 810 110 l 1
 810 0 l 1
 70 0 l 1
EndSplineSet
EndChar

StartChar: lcommaaccent
Encoding: 316 316 252
Width: 280
GlyphClass: 2
Flags: MW
HStem: -225 155<30 210 70 140> 0 21<60 60 60 220> 640 20<60 220 220 220>
VStem: 30 180<-225 -70> 60 160<0 660 0 660>
LayerCount: 2
Fore
SplineSet
30 -225 m 1x90
 70 -70 l 1
 210 -70 l 1
 140 -225 l 1
 30 -225 l 1x90
60 0 m 1x68
 60 660 l 1
 220 660 l 1
 220 0 l 1
 60 0 l 1x68
EndSplineSet
EndChar

StartChar: Lcaron
Encoding: 317 317 253
Width: 840
GlyphClass: 2
Flags: MW
HStem: 0 110<240 810 240 810> 460 200<510 560> 640 20<70 240 240 240 510 640 640 640>
VStem: 70 170<110 660 110 660 110 660> 460 180 790 20<0 110 0 0>
LayerCount: 2
Fore
SplineSet
460 460 m 1x48
 510 660 l 1
 640 660 l 1
 560 460 l 1
 460 460 l 1x48
70 0 m 1xb4
 70 660 l 1
 240 660 l 1
 240 110 l 1
 810 110 l 1
 810 0 l 1
 70 0 l 1xb4
EndSplineSet
EndChar

StartChar: lcaron
Encoding: 318 318 254
Width: 480
GlyphClass: 2
Flags: MW
HStem: 0 21<60 60 60 220> 460 200<60 280 330 380> 640 20<60 220 220 220 330 460 460 460>
VStem: 60 160<0 660 0 660> 280 180
LayerCount: 2
Fore
SplineSet
280 460 m 1x48
 330 660 l 1
 460 660 l 1
 380 460 l 1
 280 460 l 1x48
60 0 m 1xb0
 60 660 l 1
 220 660 l 1
 220 0 l 1
 60 0 l 1xb0
EndSplineSet
EndChar

StartChar: Ldot
Encoding: 319 319 255
Width: 840
GlyphClass: 2
Flags: MW
HStem: 0 110<240 810 240 810> 290 140<400 570 400 570> 640 20<70 240 240 240>
VStem: 70 170<110 660 110 660 110 660> 400 170<290 430 290 430> 790 20<0 110 0 0>
LayerCount: 2
Fore
SplineSet
400 290 m 1
 400 430 l 1
 570 430 l 1
 570 290 l 1
 400 290 l 1
70 0 m 1
 70 660 l 1
 240 660 l 1
 240 110 l 1
 810 110 l 1
 810 0 l 1
 70 0 l 1
EndSplineSet
EndChar

StartChar: ldot
Encoding: 320 320 256
Width: 550
GlyphClass: 2
Flags: MW
HStem: 0 21<60 60 60 220> 290 140<320 490 320 490> 640 20<60 220 220 220>
VStem: 60 160<0 660 0 660> 320 170<290 430 290 430>
LayerCount: 2
Fore
SplineSet
320 290 m 1
 320 430 l 1
 490 430 l 1
 490 290 l 1
 320 290 l 1
60 0 m 1
 60 660 l 1
 220 660 l 1
 220 0 l 1
 60 0 l 1
EndSplineSet
EndChar

StartChar: Lslash
Encoding: 321 321 257
Width: 890
GlyphClass: 2
Flags: MW
HStem: 0 110<290 860 290 860> 640 20G<120 290 290 290>
VStem: 120 170<110 260 260 260 455 660> 840 20G<0 110 0 0>
LayerCount: 2
Fore
SplineSet
20 210 m 1
 20 320 l 1
 120 370 l 1
 120 660 l 1
 290 660 l 1
 290 455 l 1
 490 555 l 1
 490 445 l 1
 290 345 l 1
 290 110 l 1
 860 110 l 1
 860 0 l 1
 120 0 l 1
 120 260 l 1
 20 210 l 1
EndSplineSet
EndChar

StartChar: lslash
Encoding: 322 322 258
Width: 400
GlyphClass: 2
Flags: MW
HStem: 0 21G<120 280 120 120> 640 20G<120 280 280 280>
VStem: 120 160<0 270 270 270 440 660>
LayerCount: 2
Fore
SplineSet
20 220 m 1
 20 310 l 1
 120 360 l 1
 120 660 l 1
 280 660 l 1
 280 440 l 1
 380 490 l 1
 380 400 l 1
 280 350 l 1
 280 0 l 1
 120 0 l 1
 120 270 l 1
 20 220 l 1
EndSplineSet
EndChar

StartChar: Nacute
Encoding: 323 323 259
Width: 930
GlyphClass: 2
Flags: MW
HStem: 0 21<70 70 70 240 670 670 670 860> 640 20<70 260 260 260 690 860 860 860> 730 160<365 635 465 475>
VStem: 70 170<0 470 0 660> 365 270<730 890> 690 170<190 660 0 660>
LayerCount: 2
Fore
SplineSet
365 730 m 1
 465 890 l 1
 635 890 l 1
 475 730 l 1
 365 730 l 1
70 0 m 1
 70 660 l 1
 260 660 l 1
 690 190 l 1
 690 660 l 1
 860 660 l 1
 860 0 l 1
 670 0 l 1
 240 470 l 1
 240 0 l 1
 70 0 l 1
EndSplineSet
EndChar

StartChar: nacute
Encoding: 324 324 260
Width: 740
GlyphClass: 2
Flags: MW
HStem: 0 21<60 60 60 220 520 520 520 680> 385 95<220 470 220 220> 550 160<270 540 370 380>
VStem: 60 160<0 385 0 480 0 480> 270 270<550 710> 520 160<0 355 355 365 0 370>
LayerCount: 2
Fore
SplineSet
270 550 m 1x28
 370 710 l 1
 540 710 l 1
 380 550 l 1
 270 550 l 1x28
60 0 m 1xd4
 60 480 l 1
 480 480 l 2
 580 480 680 480 680 365 c 2
 680 0 l 1
 520 0 l 1
 520 355 l 2
 520 385 495 385 470 385 c 2
 220 385 l 1
 220 0 l 1
 60 0 l 1xd4
EndSplineSet
EndChar

StartChar: Ncommaaccent
Encoding: 325 325 261
Width: 930
GlyphClass: 2
Flags: MW
HStem: -225 155<370 550 410 480> 0 21<70 70 70 240 670 670 670 860> 640 20<70 260 260 260 690 860 860 860>
VStem: 70 170<0 470 0 660> 370 180<-225 -70> 690 170<190 660 0 660>
LayerCount: 2
Fore
SplineSet
370 -225 m 1
 410 -70 l 1
 550 -70 l 1
 480 -225 l 1
 370 -225 l 1
70 0 m 1
 70 660 l 1
 260 660 l 1
 690 190 l 1
 690 660 l 1
 860 660 l 1
 860 0 l 1
 670 0 l 1
 240 470 l 1
 240 0 l 1
 70 0 l 1
EndSplineSet
EndChar

StartChar: ncommaaccent
Encoding: 326 326 262
Width: 740
GlyphClass: 2
Flags: MW
HStem: -225 155<275 455 315 385> 0 21<60 60 60 220 520 520 520 680> 385 95<220 470 220 220>
VStem: 60 160<0 385 0 480 0 480> 275 180<-225 -70> 520 160<0 355 355 365 0 370>
LayerCount: 2
Fore
SplineSet
275 -225 m 1
 315 -70 l 1
 455 -70 l 1
 385 -225 l 1
 275 -225 l 1
60 0 m 1
 60 480 l 1
 480 480 l 2
 580 480 680 480 680 365 c 2
 680 0 l 1
 520 0 l 1
 520 355 l 2
 520 385 495 385 470 385 c 2
 220 385 l 1
 220 0 l 1
 60 0 l 1
EndSplineSet
EndChar

StartChar: Ncaron
Encoding: 327 327 263
Width: 930
GlyphClass: 2
Flags: MW
HStem: 0 21<70 70 70 240 670 670 670 860> 640 20<70 260 260 260 690 860 860 860> 730 160<255 525 255 405>
VStem: 70 170<0 470 0 660> 690 170<190 660 0 660>
LayerCount: 2
Fore
SplineSet
255 890 m 1
 375 890 l 1
 465 800 l 1
 555 890 l 1
 675 890 l 1
 525 730 l 1
 405 730 l 1
 255 890 l 1
70 0 m 1
 70 660 l 1
 260 660 l 1
 690 190 l 1
 690 660 l 1
 860 660 l 1
 860 0 l 1
 670 0 l 1
 240 470 l 1
 240 0 l 1
 70 0 l 1
EndSplineSet
EndChar

StartChar: ncaron
Encoding: 328 328 264
Width: 740
GlyphClass: 2
Flags: MW
HStem: 0 21<60 60 60 220 520 520 520 680> 385 95<220 470 220 220> 550 160<160 430 160 310>
VStem: 60 160<0 385 0 480 0 480> 520 160<0 355 355 365 0 370>
LayerCount: 2
Fore
SplineSet
160 710 m 1
 280 710 l 1
 370 620 l 1
 460 710 l 1
 580 710 l 1
 430 550 l 1
 310 550 l 1
 160 710 l 1
60 0 m 1
 60 480 l 1
 480 480 l 2
 580 480 680 480 680 365 c 2
 680 0 l 1
 520 0 l 1
 520 355 l 2
 520 385 495 385 470 385 c 2
 220 385 l 1
 220 0 l 1
 60 0 l 1
EndSplineSet
EndChar

StartChar: napostrophe
Encoding: 329 329 265
Width: 880
GlyphClass: 2
Flags: MW
HStem: 0 21<200 200 200 360 660 660 660 820> 385 95<360 610 360 360> 460 200<20 200 70 120>
VStem: 20 180<460 460> 200 160<0 385 0 480 0 480> 660 160<0 355 355 365 0 370>
LayerCount: 2
Fore
SplineSet
200 0 m 1xcc
 200 480 l 1
 620 480 l 2
 720 480 820 480 820 365 c 2
 820 0 l 1
 660 0 l 1
 660 355 l 2
 660 385 635 385 610 385 c 2
 360 385 l 1
 360 0 l 1
 200 0 l 1xcc
20 460 m 1x30
 70 660 l 1
 200 660 l 1
 120 460 l 1
 20 460 l 1x30
EndSplineSet
EndChar

StartChar: Eng
Encoding: 330 330 266
Width: 930
GlyphClass: 2
Flags: MW
HStem: -225 110<540 628> 0 21G<70 70 70 240 670 670 860 860> 640 20G<70 260 260 260 690 860 860 860>
VStem: 70 170<0 470 0 660> 690 170<190 660>
LayerCount: 2
Fore
SplineSet
70 0 m 1
 70 660 l 1
 260 660 l 1
 690 190 l 1
 690 660 l 1
 860 660 l 1
 860 0 l 2
 860 -160 716 -225 540 -225 c 1
 540 -115 l 1
 600 -110 670 -80 670 0 c 1
 240 470 l 1
 240 0 l 1
 70 0 l 1
EndSplineSet
EndChar

StartChar: eng
Encoding: 331 331 267
Width: 740
GlyphClass: 2
Flags: MW
HStem: -225 95<410 410> 0 21G<60 60 60 220 520 520 680 680> 385 95<220 470 220 220>
VStem: 60 160<0 385 0 480 0 480> 520 160<0 355 355 365>
LayerCount: 2
Fore
SplineSet
60 0 m 1
 60 480 l 1
 480 480 l 2
 580 480 680 480 680 365 c 2
 680 0 l 2
 680 -205 500 -220 410 -225 c 1
 410 -130 l 1
 500 -115 520 -60 520 0 c 2
 520 355 l 2
 520 385 495 385 470 385 c 2
 220 385 l 1
 220 0 l 1
 60 0 l 1
EndSplineSet
EndChar

StartChar: Omacron
Encoding: 332 332 268
Width: 930
GlyphClass: 2
Flags: MW
HStem: 0 110<300 310 310 620> 550 110<285 620 310 620 620 630> 755 95<285 645 285 645>
VStem: 70 170<135 145 145 515> 285 360<755 850 755 850> 690 170<145 515 515 525>
CounterMasks: 1 1c
LayerCount: 2
Fore
SplineSet
285 755 m 1
 285 850 l 1
 645 850 l 1
 645 755 l 1
 285 755 l 1
70 135 m 2
 70 525 l 2
 70 660 190 660 310 660 c 2
 620 660 l 2
 740 660 860 660 860 525 c 2
 860 135 l 2
 860 0 740 0 620 0 c 2
 310 0 l 2
 190 0 70 0 70 135 c 2
240 145 m 2
 240 110 270 110 300 110 c 2
 630 110 l 2
 660 110 690 110 690 145 c 2
 690 515 l 2
 690 550 660 550 630 550 c 2
 300 550 l 2
 270 550 240 550 240 515 c 2
 240 145 l 2
EndSplineSet
EndChar

StartChar: omacron
Encoding: 333 333 269
Width: 740
GlyphClass: 2
Flags: MW
HStem: 0 95<210 470 270 470 470 480> 385 95<260 270 270 470> 575 95<190 550 190 550>
VStem: 60 160<115 125 125 355> 190 360<575 670 575 670> 520 160<125 355 355 365>
LayerCount: 2
Fore
SplineSet
190 575 m 1x28
 190 670 l 1
 550 670 l 1
 550 575 l 1
 190 575 l 1x28
60 115 m 2xd4
 60 365 l 2
 60 480 160 480 260 480 c 2
 480 480 l 2
 580 480 680 480 680 365 c 2
 680 115 l 2
 680 0 580 0 480 0 c 2
 260 0 l 2
 160 0 60 0 60 115 c 2xd4
220 125 m 2
 220 95 245 95 270 95 c 2
 470 95 l 2
 495 95 520 95 520 125 c 2
 520 355 l 2
 520 385 495 385 470 385 c 2
 270 385 l 2
 245 385 220 385 220 355 c 2
 220 125 l 2
EndSplineSet
EndChar

StartChar: Obreve
Encoding: 334 334 270
Width: 930
GlyphClass: 2
Flags: MW
HStem: 0 110<300 310 310 620> 550 110<285 620 310 620 620 630> 730 85<444.5 485.5 444.5 512>
VStem: 70 170<135 145 145 515> 295 95<869.5 890 869.5 890> 540 95<869.5 890> 690 170<145 515 515 525>
LayerCount: 2
Fore
SplineSet
295 890 m 1
 390 890 l 1
 390 849 424 815 465 815 c 0
 506 815 540 849 540 890 c 1
 635 890 l 1
 635 802 559 730 465 730 c 0
 371 730 295 802 295 890 c 1
70 135 m 2
 70 525 l 2
 70 660 190 660 310 660 c 2
 620 660 l 2
 740 660 860 660 860 525 c 2
 860 135 l 2
 860 0 740 0 620 0 c 2
 310 0 l 2
 190 0 70 0 70 135 c 2
240 145 m 2
 240 110 270 110 300 110 c 2
 630 110 l 2
 660 110 690 110 690 145 c 2
 690 515 l 2
 690 550 660 550 630 550 c 2
 300 550 l 2
 270 550 240 550 240 515 c 2
 240 145 l 2
EndSplineSet
EndChar

StartChar: obreve
Encoding: 335 335 271
Width: 740
GlyphClass: 2
Flags: MW
HStem: 0 95<210 470 270 470 470 480> 385 95<260 270 270 470> 550 85<349.5 390.5 349.5 417>
VStem: 60 160<115 125 125 355> 200 95<689.5 710 689.5 710> 445 95<689.5 710> 520 160<125 355 355 365>
LayerCount: 2
Fore
SplineSet
200 710 m 1x2c
 295 710 l 1
 295 669 329 635 370 635 c 0
 411 635 445 669 445 710 c 1
 540 710 l 1
 540 622 464 550 370 550 c 0
 276 550 200 622 200 710 c 1x2c
60 115 m 2xd2
 60 365 l 2
 60 480 160 480 260 480 c 2
 480 480 l 2
 580 480 680 480 680 365 c 2
 680 115 l 2
 680 0 580 0 480 0 c 2
 260 0 l 2
 160 0 60 0 60 115 c 2xd2
220 125 m 2
 220 95 245 95 270 95 c 2
 470 95 l 2
 495 95 520 95 520 125 c 2
 520 355 l 2
 520 385 495 385 470 385 c 2
 270 385 l 2
 245 385 220 385 220 355 c 2
 220 125 l 2
EndSplineSet
EndChar

StartChar: Ohungarumlaut
Encoding: 336 336 272
Width: 930
GlyphClass: 2
Flags: MW
HStem: 0 110<300 310 310 620> 550 110<285 620 310 620 620 630> 730 160<265 485 355 365 575 585 355 485>
VStem: 70 170<135 145 145 515> 265 220<730 730> 485 220<730 890 890 890> 690 170<145 515 515 525>
LayerCount: 2
Fore
SplineSet
265 730 m 1x28
 355 890 l 1
 485 890 l 1
 365 730 l 1
 265 730 l 1x28
485 730 m 1
 575 890 l 1
 705 890 l 1
 585 730 l 1
 485 730 l 1
70 135 m 2xd2
 70 525 l 2
 70 660 190 660 310 660 c 2
 620 660 l 2
 740 660 860 660 860 525 c 2
 860 135 l 2
 860 0 740 0 620 0 c 2
 310 0 l 2
 190 0 70 0 70 135 c 2xd2
240 145 m 2
 240 110 270 110 300 110 c 2
 630 110 l 2
 660 110 690 110 690 145 c 2
 690 515 l 2
 690 550 660 550 630 550 c 2
 300 550 l 2
 270 550 240 550 240 515 c 2
 240 145 l 2
EndSplineSet
EndChar

StartChar: ohungarumlaut
Encoding: 337 337 273
Width: 740
GlyphClass: 2
Flags: MW
HStem: 0 95<210 470 270 470 470 480> 385 95<260 270 270 470> 550 160<170 390 260 270 480 490 260 390>
VStem: 60 160<115 125 125 355> 170 220<550 550> 390 220<550 710 710 710> 520 160<125 355 355 365>
LayerCount: 2
Fore
SplineSet
170 550 m 1x28
 260 710 l 1
 390 710 l 1
 270 550 l 1
 170 550 l 1x28
390 550 m 1
 480 710 l 1
 610 710 l 1
 490 550 l 1
 390 550 l 1
60 115 m 2xd2
 60 365 l 2
 60 480 160 480 260 480 c 2
 480 480 l 2
 580 480 680 480 680 365 c 2
 680 115 l 2
 680 0 580 0 480 0 c 2
 260 0 l 2
 160 0 60 0 60 115 c 2xd2
220 125 m 2
 220 95 245 95 270 95 c 2
 470 95 l 2
 495 95 520 95 520 125 c 2
 520 355 l 2
 520 385 495 385 470 385 c 2
 270 385 l 2
 245 385 220 385 220 355 c 2
 220 125 l 2
EndSplineSet
EndChar

StartChar: OE
Encoding: 338 338 274
Width: 1400
GlyphClass: 2
Flags: MW
HStem: 0 110<300 310 310 580 580 595 810 1330> 305 110<810 1280 810 1280> 550 110<285 1330 310 580 810 1330 810 810>
VStem: 70 170<135 145 145 515> 640 170<145 305 415 515 515 532.5>
LayerCount: 2
Fore
SplineSet
70 135 m 2
 70 525 l 2
 70 660 190 660 310 660 c 2
 1330 660 l 1
 1330 550 l 1
 810 550 l 1
 810 415 l 1
 1280 415 l 1
 1280 305 l 1
 810 305 l 1
 810 110 l 1
 1330 110 l 1
 1330 0 l 1
 310 0 l 2
 190 0 70 0 70 135 c 2
240 145 m 2
 240 110 270 110 300 110 c 2
 580 110 l 2
 610 110 640 110 640 145 c 2
 640 515 l 2
 640 550 610 550 580 550 c 2
 300 550 l 2
 270 550 240 550 240 515 c 2
 240 145 l 2
EndSplineSet
EndChar

StartChar: oe
Encoding: 339 339 275
Width: 1200
GlyphClass: 2
Flags: MW
HStem: 0 95<210 470 270 470 470 482.5 730 1120> 205 95<680 980 680 1140 680 980> 385 95<260 270 270 470 717.5 730 730 930>
VStem: 60 160<115 125 125 355> 520 160<125 205 300 355> 980 160<300 355 355 365 205 370>
CounterMasks: 1 1c
LayerCount: 2
Fore
SplineSet
60 115 m 2
 60 365 l 2
 60 480 160 480 260 480 c 2
 940 480 l 2
 1040 480 1140 480 1140 365 c 2
 1140 205 l 1
 680 205 l 1
 680 125 l 2
 680 95 705 95 730 95 c 2
 1120 95 l 1
 1120 0 l 1
 260 0 l 2
 160 0 60 0 60 115 c 2
220 125 m 2
 220 95 245 95 270 95 c 2
 470 95 l 2
 495 95 520 95 520 125 c 2
 520 355 l 2
 520 385 495 385 470 385 c 2
 270 385 l 2
 245 385 220 385 220 355 c 2
 220 125 l 2
680 300 m 1
 980 300 l 1
 980 355 l 2
 980 385 955 385 930 385 c 2
 730 385 l 2
 705 385 680 385 680 355 c 2
 680 300 l 1
EndSplineSet
EndChar

StartChar: Racute
Encoding: 340 340 276
Width: 930
GlyphClass: 2
Flags: MW
HStem: 0 21<70 240 70 70 690 900 690 690> 270 110<240 420 240 630 630 645 240 685> 550 110<240 620 620 630 240 240> 730 160<365 635 465 475>
VStem: 70 170<0 270 380 550> 365 270<730 890> 690 170<415 515 515 525 337.5 532.5>
LayerCount: 2
Fore
SplineSet
365 730 m 1
 465 890 l 1
 635 890 l 1
 475 730 l 1
 365 730 l 1
900 0 m 1
 690 0 l 1
 420 270 l 1
 240 270 l 1
 240 0 l 1
 70 0 l 1
 70 660 l 1
 620 660 l 2
 740 660 860 660 860 525 c 2
 860 405 l 2
 860 270 740 270 630 270 c 1
 900 0 l 1
240 380 m 1
 630 380 l 2
 660 380 690 380 690 415 c 2
 690 515 l 2
 690 550 660 550 630 550 c 2
 240 550 l 1
 240 380 l 1
EndSplineSet
EndChar

StartChar: racute
Encoding: 341 341 277
Width: 480
GlyphClass: 2
Flags: MW
HStem: 0 21<60 60 60 220> 385 95<260 270 270 420> 550 160<140 410 240 250>
VStem: 60 160<0 355 0 365 0 422.5> 140 270<550 710>
LayerCount: 2
Fore
SplineSet
140 550 m 1x28
 240 710 l 1
 410 710 l 1
 250 550 l 1
 140 550 l 1x28
60 0 m 1xd0
 60 365 l 2
 60 480 160 480 260 480 c 2
 420 480 l 1
 420 385 l 1
 270 385 l 2
 245 385 220 385 220 355 c 2
 220 0 l 1
 60 0 l 1xd0
EndSplineSet
EndChar

StartChar: Rcommaaccent
Encoding: 342 342 278
Width: 930
GlyphClass: 2
Flags: MW
HStem: -225 155<370 550 410 480> 0 21<70 240 70 70 690 900 690 690> 270 110<240 420 240 630 630 645 240 685> 550 110<240 620 620 630 240 240>
VStem: 70 170<0 270 380 550> 370 180<-225 -70> 690 170<415 515 515 525 337.5 532.5>
LayerCount: 2
Fore
SplineSet
370 -225 m 1
 410 -70 l 1
 550 -70 l 1
 480 -225 l 1
 370 -225 l 1
900 0 m 1
 690 0 l 1
 420 270 l 1
 240 270 l 1
 240 0 l 1
 70 0 l 1
 70 660 l 1
 620 660 l 2
 740 660 860 660 860 525 c 2
 860 405 l 2
 860 270 740 270 630 270 c 1
 900 0 l 1
240 380 m 1
 630 380 l 2
 660 380 690 380 690 415 c 2
 690 515 l 2
 690 550 660 550 630 550 c 2
 240 550 l 1
 240 380 l 1
EndSplineSet
EndChar

StartChar: rcommaaccent
Encoding: 343 343 279
Width: 480
GlyphClass: 2
Flags: MW
HStem: -225 155<30 210 70 140> 0 21<60 60 60 220> 385 95<260 270 270 420>
VStem: 30 180<-225 -70> 60 160<0 355 0 365 0 422.5>
LayerCount: 2
Fore
SplineSet
30 -225 m 1x90
 70 -70 l 1
 210 -70 l 1
 140 -225 l 1
 30 -225 l 1x90
60 0 m 1x68
 60 365 l 2
 60 480 160 480 260 480 c 2
 420 480 l 1
 420 385 l 1
 270 385 l 2
 245 385 220 385 220 355 c 2
 220 0 l 1
 60 0 l 1x68
EndSplineSet
EndChar

StartChar: Rcaron
Encoding: 344 344 280
Width: 930
GlyphClass: 2
Flags: MW
HStem: 0 21<70 240 70 70 690 900 690 690> 270 110<240 420 240 630 630 645 240 685> 550 110<240 620 620 630 240 240> 730 160<255 525 255 405>
VStem: 70 170<0 270 380 550> 690 170<415 515 515 525 337.5 532.5>
LayerCount: 2
Fore
SplineSet
255 890 m 1
 375 890 l 1
 465 800 l 1
 555 890 l 1
 675 890 l 1
 525 730 l 1
 405 730 l 1
 255 890 l 1
900 0 m 1
 690 0 l 1
 420 270 l 1
 240 270 l 1
 240 0 l 1
 70 0 l 1
 70 660 l 1
 620 660 l 2
 740 660 860 660 860 525 c 2
 860 405 l 2
 860 270 740 270 630 270 c 1
 900 0 l 1
240 380 m 1
 630 380 l 2
 660 380 690 380 690 415 c 2
 690 515 l 2
 690 550 660 550 630 550 c 2
 240 550 l 1
 240 380 l 1
EndSplineSet
EndChar

StartChar: rcaron
Encoding: 345 345 281
Width: 480
GlyphClass: 2
Flags: MW
HStem: 0 21<60 60 60 220> 385 95<260 270 270 420> 550 160<30 300 30 180>
VStem: 60 160<0 355 0 365 0 422.5>
LayerCount: 2
Fore
SplineSet
30 710 m 1
 150 710 l 1
 240 620 l 1
 330 710 l 1
 450 710 l 1
 300 550 l 1
 180 550 l 1
 30 710 l 1
60 0 m 1
 60 365 l 2
 60 480 160 480 260 480 c 2
 420 480 l 1
 420 385 l 1
 270 385 l 2
 245 385 220 385 220 355 c 2
 220 0 l 1
 60 0 l 1
EndSplineSet
EndChar

StartChar: Sacute
Encoding: 346 346 282
Width: 930
GlyphClass: 2
Flags: MW
HStem: 0 110<70 630 70 620> 305 110<300 310 310 620 620 630> 550 110<285 810 310 810 310 810> 730 160<365 635 465 475>
VStem: 70 170<440 450 450 515 432.5 525 432.5 592.5> 365 270<730 890> 690 170<145 270 270 280 67.5 287.5>
LayerCount: 2
Fore
SplineSet
365 730 m 1
 465 890 l 1
 635 890 l 1
 475 730 l 1
 365 730 l 1
70 0 m 1
 70 110 l 1
 630 110 l 2
 660 110 690 110 690 145 c 2
 690 270 l 2
 690 305 660 305 630 305 c 2
 310 305 l 2
 190 305 70 305 70 440 c 2
 70 525 l 2
 70 660 190 660 310 660 c 2
 810 660 l 1
 810 550 l 1
 300 550 l 2
 270 550 240 550 240 515 c 2
 240 450 l 2
 240 415 270 415 300 415 c 2
 620 415 l 2
 740 415 860 415 860 280 c 2
 860 135 l 2
 860 0 740 0 620 0 c 2
 70 0 l 1
EndSplineSet
EndChar

StartChar: sacute
Encoding: 347 347 283
Width: 740
GlyphClass: 2
Flags: MW
HStem: 0 95<60 470 60 470 470 480> 205 95<210 480 270 470> 385 95<260 270 270 640> 550 160<270 540 370 380>
VStem: 60 160<320 330 330 355 315 365 315 422.5> 270 270<550 710> 520 160<125 175 175 185 57.5 190>
LayerCount: 2
Fore
SplineSet
270 550 m 1x14
 370 710 l 1
 540 710 l 1
 380 550 l 1
 270 550 l 1x14
60 0 m 1xea
 60 95 l 1
 470 95 l 2
 495 95 520 95 520 125 c 2
 520 175 l 2
 520 205 495 205 470 205 c 2
 260 205 l 2
 160 205 60 205 60 320 c 2
 60 365 l 2
 60 480 160 480 260 480 c 2
 640 480 l 1
 640 385 l 1
 270 385 l 2
 245 385 220 385 220 355 c 2
 220 330 l 2
 220 300 245 300 270 300 c 2
 480 300 l 2
 580 300 680 300 680 185 c 2
 680 115 l 2
 680 0 580 0 480 0 c 2
 60 0 l 1xea
EndSplineSet
EndChar

StartChar: Scircumflex
Encoding: 348 348 284
Width: 930
GlyphClass: 2
Flags: MW
HStem: 0 110<70 630 70 620> 305 110<300 310 310 620 620 630> 550 110<285 810 310 810 310 810> 730 160<255 525 255 525 405 555 405 675>
VStem: 70 170<440 450 450 515 432.5 525 432.5 592.5> 690 170<145 270 270 280 67.5 287.5>
LayerCount: 2
Fore
SplineSet
255 730 m 1
 405 890 l 1
 525 890 l 1
 675 730 l 1
 555 730 l 1
 465 820 l 1
 375 730 l 1
 255 730 l 1
70 0 m 1
 70 110 l 1
 630 110 l 2
 660 110 690 110 690 145 c 2
 690 270 l 2
 690 305 660 305 630 305 c 2
 310 305 l 2
 190 305 70 305 70 440 c 2
 70 525 l 2
 70 660 190 660 310 660 c 2
 810 660 l 1
 810 550 l 1
 300 550 l 2
 270 550 240 550 240 515 c 2
 240 450 l 2
 240 415 270 415 300 415 c 2
 620 415 l 2
 740 415 860 415 860 280 c 2
 860 135 l 2
 860 0 740 0 620 0 c 2
 70 0 l 1
EndSplineSet
EndChar

StartChar: scircumflex
Encoding: 349 349 285
Width: 740
GlyphClass: 2
Flags: MW
HStem: 0 95<60 470 60 470 470 480> 205 95<210 480 270 470> 385 95<260 270 270 640> 550 160<160 430 160 430 310 460 310 580>
VStem: 60 160<320 330 330 355 315 365 315 422.5> 520 160<125 175 175 185 57.5 190>
LayerCount: 2
Fore
SplineSet
160 550 m 1
 310 710 l 1
 430 710 l 1
 580 550 l 1
 460 550 l 1
 370 640 l 1
 280 550 l 1
 160 550 l 1
60 0 m 1
 60 95 l 1
 470 95 l 2
 495 95 520 95 520 125 c 2
 520 175 l 2
 520 205 495 205 470 205 c 2
 260 205 l 2
 160 205 60 205 60 320 c 2
 60 365 l 2
 60 480 160 480 260 480 c 2
 640 480 l 1
 640 385 l 1
 270 385 l 2
 245 385 220 385 220 355 c 2
 220 330 l 2
 220 300 245 300 270 300 c 2
 480 300 l 2
 580 300 680 300 680 185 c 2
 680 115 l 2
 680 0 580 0 480 0 c 2
 60 0 l 1
EndSplineSet
EndChar

StartChar: Scedilla
Encoding: 350 350 286
Width: 930
GlyphClass: 2
Flags: MW
HStem: -225 70<390 420 420 440 390 450 390 420> -20 20<70 70 70 620 405 520 520 520> 0 110<70 630 70 620 405 520 520 520> 305 110<300 310 310 620 620 630> 550 110<285 810 310 810 310 810>
VStem: 70 170<440 450 450 515 432.5 525 432.5 592.5> 390 21<-225 -155 -155 -155> 490 120<-130 -115 -175 -105> 690 170<145 270 270 280 67.5 287.5>
LayerCount: 2
Fore
SplineSet
390 -155 m 1xc3
 420 -155 l 2
 460 -155 490 -145 490 -115 c 0
 490 -95 480 -75 405 0 c 1
 520 0 l 1
 590 -70 610 -95 610 -135 c 0
 610 -215 530 -225 450 -225 c 2
 390 -225 l 1
 390 -155 l 1xc3
70 0 m 1x3c80
 70 110 l 1
 630 110 l 2
 660 110 690 110 690 145 c 2
 690 270 l 2
 690 305 660 305 630 305 c 2
 310 305 l 2
 190 305 70 305 70 440 c 2
 70 525 l 2
 70 660 190 660 310 660 c 2
 810 660 l 1
 810 550 l 1
 300 550 l 2
 270 550 240 550 240 515 c 2
 240 450 l 2
 240 415 270 415 300 415 c 2
 620 415 l 2
 740 415 860 415 860 280 c 2
 860 135 l 2
 860 0 740 0 620 0 c 2
 70 0 l 1x3c80
EndSplineSet
EndChar

StartChar: scedilla
Encoding: 351 351 287
Width: 740
GlyphClass: 2
Flags: MW
HStem: -225 70<280 310 310 330 280 340 280 310> -20 20<60 60 60 480 295 410 410 410> 0 95<60 470 60 470 470 480 295 410 410 410> 205 95<210 480 270 470> 385 95<260 270 270 640>
VStem: 60 160<320 330 330 355 315 365 315 422.5> 280 21<-225 -155 -155 -155> 380 120<-130 -115 -175 -105> 520 160<125 175 175 185 57.5 190>
LayerCount: 2
Fore
SplineSet
280 -155 m 1xc3
 310 -155 l 2
 350 -155 380 -145 380 -115 c 0
 380 -95 370 -75 295 0 c 1
 410 0 l 1
 480 -70 500 -95 500 -135 c 0
 500 -215 420 -225 340 -225 c 2
 280 -225 l 1
 280 -155 l 1xc3
60 0 m 1x3c80
 60 95 l 1
 470 95 l 2
 495 95 520 95 520 125 c 2
 520 175 l 2
 520 205 495 205 470 205 c 2
 260 205 l 2
 160 205 60 205 60 320 c 2
 60 365 l 2
 60 480 160 480 260 480 c 2
 640 480 l 1
 640 385 l 1
 270 385 l 2
 245 385 220 385 220 355 c 2
 220 330 l 2
 220 300 245 300 270 300 c 2
 480 300 l 2
 580 300 680 300 680 185 c 2
 680 115 l 2
 680 0 580 0 480 0 c 2
 60 0 l 1x3c80
EndSplineSet
EndChar

StartChar: Scaron
Encoding: 352 352 288
Width: 930
GlyphClass: 2
Flags: MW
HStem: 0 110<70 630 70 620> 305 110<300 310 310 620 620 630> 550 110<285 810 310 810 310 810> 730 160<255 525 255 405>
VStem: 70 170<440 450 450 515 432.5 525 432.5 592.5> 690 170<145 270 270 280 67.5 287.5>
LayerCount: 2
Fore
SplineSet
255 890 m 1
 375 890 l 1
 465 800 l 1
 555 890 l 1
 675 890 l 1
 525 730 l 1
 405 730 l 1
 255 890 l 1
70 0 m 1
 70 110 l 1
 630 110 l 2
 660 110 690 110 690 145 c 2
 690 270 l 2
 690 305 660 305 630 305 c 2
 310 305 l 2
 190 305 70 305 70 440 c 2
 70 525 l 2
 70 660 190 660 310 660 c 2
 810 660 l 1
 810 550 l 1
 300 550 l 2
 270 550 240 550 240 515 c 2
 240 450 l 2
 240 415 270 415 300 415 c 2
 620 415 l 2
 740 415 860 415 860 280 c 2
 860 135 l 2
 860 0 740 0 620 0 c 2
 70 0 l 1
EndSplineSet
EndChar

StartChar: scaron
Encoding: 353 353 289
Width: 740
GlyphClass: 2
Flags: MW
HStem: 0 95<60 470 60 470 470 480> 205 95<210 480 270 470> 385 95<260 270 270 640> 550 160<160 430 160 310>
VStem: 60 160<320 330 330 355 315 365 315 422.5> 520 160<125 175 175 185 57.5 190>
LayerCount: 2
Fore
SplineSet
160 710 m 1
 280 710 l 1
 370 620 l 1
 460 710 l 1
 580 710 l 1
 430 550 l 1
 310 550 l 1
 160 710 l 1
60 0 m 1
 60 95 l 1
 470 95 l 2
 495 95 520 95 520 125 c 2
 520 175 l 2
 520 205 495 205 470 205 c 2
 260 205 l 2
 160 205 60 205 60 320 c 2
 60 365 l 2
 60 480 160 480 260 480 c 2
 640 480 l 1
 640 385 l 1
 270 385 l 2
 245 385 220 385 220 355 c 2
 220 330 l 2
 220 300 245 300 270 300 c 2
 480 300 l 2
 580 300 680 300 680 185 c 2
 680 115 l 2
 680 0 580 0 480 0 c 2
 60 0 l 1
EndSplineSet
EndChar

StartChar: Tcommaaccent
Encoding: 354 354 290
Width: 910
GlyphClass: 2
Flags: MW
HStem: -225 70<355 385 385 405 355 415 355 385> -20 20<370 485 370 370 370 540 485 485> 0 21<370 485 370 370 370 540 485 485> 550 110<30 880 30 370 540 540 540 880>
VStem: 355 21<-225 -155 -155 -155> 370 170<0 550 0 550 0 550> 455 120<-130 -115 -175 -105>
LayerCount: 2
Fore
SplineSet
355 -155 m 1xca
 385 -155 l 2
 425 -155 455 -145 455 -115 c 0
 455 -95 445 -75 370 0 c 1
 485 0 l 1
 555 -70 575 -95 575 -135 c 0
 575 -215 495 -225 415 -225 c 2
 355 -225 l 1
 355 -155 l 1xca
30 550 m 1x34
 30 660 l 1
 880 660 l 1
 880 550 l 1
 540 550 l 1
 540 0 l 1
 370 0 l 1
 370 550 l 1
 30 550 l 1x34
EndSplineSet
EndChar

StartChar: tcommaaccent
Encoding: 355 355 291
Width: 480
GlyphClass: 2
Flags: MW
HStem: -225 70<200 230 230 250 200 260 200 230> -20 20<210 260 215 330 260 420 330 330> 0 95<210 420 270 330 270 420 270 420 330 330> 385 95<220 420 220 420> 640 20<60 220 220 220>
VStem: 60 160<115 125 125 385 480 660> 200 21<-225 -155 -155 -155> 300 120<-130 -115 -175 -105>
LayerCount: 2
Fore
SplineSet
200 -155 m 1xc3
 230 -155 l 2
 270 -155 300 -145 300 -115 c 0
 300 -95 290 -75 215 0 c 1
 330 0 l 1
 400 -70 420 -95 420 -135 c 0
 420 -215 340 -225 260 -225 c 2
 200 -225 l 1
 200 -155 l 1xc3
60 115 m 2x3c
 60 660 l 1
 220 660 l 1
 220 480 l 1
 420 480 l 1
 420 385 l 1
 220 385 l 1
 220 125 l 2
 220 95 245 95 270 95 c 2
 420 95 l 1
 420 0 l 1
 260 0 l 2
 160 0 60 0 60 115 c 2x3c
EndSplineSet
EndChar

StartChar: Tcaron
Encoding: 356 356 292
Width: 910
GlyphClass: 2
Flags: MW
HStem: 0 21<370 540 370 370> 550 110<30 880 30 370 540 540 540 880> 730 160<245 515 245 395>
VStem: 370 170<0 550 0 550>
LayerCount: 2
Fore
SplineSet
245 890 m 1
 365 890 l 1
 455 800 l 1
 545 890 l 1
 665 890 l 1
 515 730 l 1
 395 730 l 1
 245 890 l 1
30 550 m 1
 30 660 l 1
 880 660 l 1
 880 550 l 1
 540 550 l 1
 540 0 l 1
 370 0 l 1
 370 550 l 1
 30 550 l 1
EndSplineSet
EndChar

StartChar: tcaron
Encoding: 357 357 293
Width: 680
GlyphClass: 2
Flags: MW
HStem: 0 95<210 420 270 420 270 420> 385 95<220 420 220 420> 460 200<530 580> 640 20<60 220 220 220 530 660 660 660>
VStem: 60 160<115 125 125 385 480 660> 480 180
LayerCount: 2
Fore
SplineSet
480 460 m 1x24
 530 660 l 1
 660 660 l 1
 580 460 l 1
 480 460 l 1x24
60 115 m 2xd8
 60 660 l 1
 220 660 l 1
 220 480 l 1
 420 480 l 1
 420 385 l 1
 220 385 l 1
 220 125 l 2
 220 95 245 95 270 95 c 2
 420 95 l 1
 420 0 l 1
 260 0 l 2
 160 0 60 0 60 115 c 2xd8
EndSplineSet
EndChar

StartChar: Tbar
Encoding: 358 358 294
Width: 910
GlyphClass: 2
Flags: MW
HStem: 0 21G<370 540 370 370> 310 95<170 370 170 370 540 740> 550 110<30 880 30 370 540 540 540 880>
VStem: 370 170<0 310 0 310 405 550>
LayerCount: 2
Fore
SplineSet
30 550 m 1
 30 660 l 1
 880 660 l 1
 880 550 l 1
 540 550 l 1
 540 405 l 1
 740 405 l 1
 740 310 l 1
 540 310 l 1
 540 0 l 1
 370 0 l 1
 370 310 l 1
 170 310 l 1
 170 405 l 1
 370 405 l 1
 370 550 l 1
 30 550 l 1
EndSplineSet
EndChar

StartChar: tbar
Encoding: 359 359 295
Width: 500
GlyphClass: 2
Flags: MW
HStem: 0 95<230 440 290 440 290 440> 220 80<20 80 20 80 240 390> 385 95<240 440 240 440> 640 20G<80 240 240 240>
VStem: 80 160<115 125 125 220 110 220 300 385 480 660>
LayerCount: 2
Fore
SplineSet
20 220 m 1
 20 300 l 1
 80 300 l 1
 80 660 l 1
 240 660 l 1
 240 480 l 1
 440 480 l 1
 440 385 l 1
 240 385 l 1
 240 300 l 1
 390 300 l 1
 390 220 l 1
 240 220 l 1
 240 125 l 2
 240 95 265 95 290 95 c 2
 440 95 l 1
 440 0 l 1
 280 0 l 2
 180 0 80 0 80 115 c 2
 80 220 l 1
 20 220 l 1
EndSplineSet
EndChar

StartChar: Utilde
Encoding: 360 360 296
Width: 930
GlyphClass: 2
Flags: MW
HStem: 0 110<300 310 310 620> 640 20<70 240 240 240 690 860 860 860> 740 80<530 580> 800 80<350 400>
VStem: 70 170<135 145 145 660> 265 90 575 90 690 170<145 660>
LayerCount: 2
Fore
SplineSet
370 880 m 0x16
 395 880 405 880 465 850 c 0
 505 830 525 820 535 820 c 0x26
 550 820 560 820 575 880 c 1
 675 880 l 1x16
 650 775 600 740 560 740 c 0x26
 535 740 525 740 465 770 c 0
 425 790 405 800 395 800 c 0x16
 380 800 370 800 355 740 c 1
 255 740 l 1x26
 280 845 330 880 370 880 c 0x16
70 135 m 2xc9
 70 660 l 1
 240 660 l 1
 240 145 l 2
 240 110 270 110 300 110 c 2
 630 110 l 2
 660 110 690 110 690 145 c 2
 690 660 l 1
 860 660 l 1
 860 135 l 2
 860 0 740 0 620 0 c 2
 310 0 l 2
 190 0 70 0 70 135 c 2xc9
EndSplineSet
EndChar

StartChar: utilde
Encoding: 361 361 297
Width: 740
GlyphClass: 2
Flags: MW
HStem: 0 95<210 470 270 470 470 480> 460 20<60 220 220 220 520 680 680 680> 560 80<435 485> 620 80<255 305>
VStem: 60 160<115 125 125 480> 170 90 480 90 520 160<125 480>
LayerCount: 2
Fore
SplineSet
275 700 m 0x16
 300 700 310 700 370 670 c 0
 410 650 430 640 440 640 c 0x26
 455 640 465 640 480 700 c 1
 580 700 l 1x16
 555 595 505 560 465 560 c 0x26
 440 560 430 560 370 590 c 0
 330 610 310 620 300 620 c 0x16
 285 620 275 620 260 560 c 1
 160 560 l 1x26
 185 665 235 700 275 700 c 0x16
60 115 m 2xc9
 60 480 l 1
 220 480 l 1
 220 125 l 2
 220 95 245 95 270 95 c 2
 470 95 l 2
 495 95 520 95 520 125 c 2
 520 480 l 1
 680 480 l 1
 680 115 l 2
 680 0 580 0 480 0 c 2
 260 0 l 2
 160 0 60 0 60 115 c 2xc9
EndSplineSet
EndChar

StartChar: Umacron
Encoding: 362 362 298
Width: 930
GlyphClass: 2
Flags: MW
HStem: 0 110<300 310 310 620> 640 20<70 240 240 240 690 860 860 860> 755 95<285 645 285 645>
VStem: 70 170<135 145 145 660> 285 360<755 850 755 850> 690 170<145 660>
CounterMasks: 1 1c
LayerCount: 2
Fore
SplineSet
285 755 m 1
 285 850 l 1
 645 850 l 1
 645 755 l 1
 285 755 l 1
70 135 m 2
 70 660 l 1
 240 660 l 1
 240 145 l 2
 240 110 270 110 300 110 c 2
 630 110 l 2
 660 110 690 110 690 145 c 2
 690 660 l 1
 860 660 l 1
 860 135 l 2
 860 0 740 0 620 0 c 2
 310 0 l 2
 190 0 70 0 70 135 c 2
EndSplineSet
EndChar

StartChar: umacron
Encoding: 363 363 299
Width: 740
GlyphClass: 2
Flags: MW
HStem: 0 95<210 470 270 470 470 480> 460 20<60 220 220 220 520 680 680 680> 575 95<190 550 190 550>
VStem: 60 160<115 125 125 480> 190 360<575 670 575 670> 520 160<125 480>
LayerCount: 2
Fore
SplineSet
190 575 m 1x28
 190 670 l 1
 550 670 l 1
 550 575 l 1
 190 575 l 1x28
60 115 m 2xd4
 60 480 l 1
 220 480 l 1
 220 125 l 2
 220 95 245 95 270 95 c 2
 470 95 l 2
 495 95 520 95 520 125 c 2
 520 480 l 1
 680 480 l 1
 680 115 l 2
 680 0 580 0 480 0 c 2
 260 0 l 2
 160 0 60 0 60 115 c 2xd4
EndSplineSet
EndChar

StartChar: Ubreve
Encoding: 364 364 300
Width: 930
GlyphClass: 2
Flags: MW
HStem: 0 110<300 310 310 620> 640 20<70 240 240 240 690 860 860 860> 730 85<444.5 485.5 444.5 512>
VStem: 70 170<135 145 145 660> 295 95<869.5 890 869.5 890> 540 95<869.5 890> 690 170<145 660>
LayerCount: 2
Fore
SplineSet
295 890 m 1
 390 890 l 1
 390 849 424 815 465 815 c 0
 506 815 540 849 540 890 c 1
 635 890 l 1
 635 802 559 730 465 730 c 0
 371 730 295 802 295 890 c 1
70 135 m 2
 70 660 l 1
 240 660 l 1
 240 145 l 2
 240 110 270 110 300 110 c 2
 630 110 l 2
 660 110 690 110 690 145 c 2
 690 660 l 1
 860 660 l 1
 860 135 l 2
 860 0 740 0 620 0 c 2
 310 0 l 2
 190 0 70 0 70 135 c 2
EndSplineSet
EndChar

StartChar: ubreve
Encoding: 365 365 301
Width: 740
GlyphClass: 2
Flags: MW
HStem: 0 95<210 470 270 470 470 480> 460 20<60 220 220 220 520 680 680 680> 550 85<349.5 390.5 349.5 417>
VStem: 60 160<115 125 125 480> 200 95<689.5 710 689.5 710> 445 95<689.5 710> 520 160<125 480>
LayerCount: 2
Fore
SplineSet
200 710 m 1x2c
 295 710 l 1
 295 669 329 635 370 635 c 0
 411 635 445 669 445 710 c 1
 540 710 l 1
 540 622 464 550 370 550 c 0
 276 550 200 622 200 710 c 1x2c
60 115 m 2xd2
 60 480 l 1
 220 480 l 1
 220 125 l 2
 220 95 245 95 270 95 c 2
 470 95 l 2
 495 95 520 95 520 125 c 2
 520 480 l 1
 680 480 l 1
 680 115 l 2
 680 0 580 0 480 0 c 2
 260 0 l 2
 160 0 60 0 60 115 c 2xd2
EndSplineSet
EndChar

StartChar: Uring
Encoding: 366 366 302
Width: 930
GlyphClass: 2
Flags: MW
HStem: 0 110<300 310 310 620> 640 20<70 240 240 240 360 400 400 530 690 860 860 860> 660 65<360 510 420 510 510 520 420 530> 825 65<410 420 420 510>
VStem: 70 170<135 145 145 660> 280 110<745 805 738.5 833.5> 540 110<745 805 716.5 811.5> 690 170<145 660>
LayerCount: 2
Fore
SplineSet
280 745 m 2x36
 280 805 l 2
 280 862 320 890 400 890 c 2
 530 890 l 2
 610 890 650 862 650 805 c 2
 650 745 l 2
 650 688 610 660 530 660 c 2
 400 660 l 2
 320 660 280 688 280 745 c 2x36
390 745 m 2
 390 732 400 725 420 725 c 2
 510 725 l 2
 530 725 540 732 540 745 c 2
 540 805 l 2
 540 818 530 825 510 825 c 2
 420 825 l 2
 400 825 390 818 390 805 c 2
 390 745 l 2
70 135 m 2xc9
 70 660 l 1
 240 660 l 1
 240 145 l 2
 240 110 270 110 300 110 c 2
 630 110 l 2
 660 110 690 110 690 145 c 2
 690 660 l 1
 860 660 l 1
 860 135 l 2
 860 0 740 0 620 0 c 2
 310 0 l 2
 190 0 70 0 70 135 c 2xc9
EndSplineSet
EndChar

StartChar: uring
Encoding: 367 367 303
Width: 740
GlyphClass: 2
Flags: MW
HStem: 0 95<210 470 270 470 470 480> 460 20<60 220 220 220 520 680 680 680> 550 65<265 415 325 415 415 425 325 435> 715 65<315 325 325 415>
VStem: 60 160<115 125 125 480> 185 110<635 695 628.5 723.5> 445 110<635 695 606.5 701.5> 520 160<125 480>
LayerCount: 2
Fore
SplineSet
185 635 m 2x36
 185 695 l 2
 185 752 225 780 305 780 c 2
 435 780 l 2
 515 780 555 752 555 695 c 2
 555 635 l 2
 555 578 515 550 435 550 c 2
 305 550 l 2
 225 550 185 578 185 635 c 2x36
295 635 m 2
 295 622 305 615 325 615 c 2
 415 615 l 2
 435 615 445 622 445 635 c 2
 445 695 l 2
 445 708 435 715 415 715 c 2
 325 715 l 2
 305 715 295 708 295 695 c 2
 295 635 l 2
60 115 m 2xc9
 60 480 l 1
 220 480 l 1
 220 125 l 2
 220 95 245 95 270 95 c 2
 470 95 l 2
 495 95 520 95 520 125 c 2
 520 480 l 1
 680 480 l 1
 680 115 l 2
 680 0 580 0 480 0 c 2
 260 0 l 2
 160 0 60 0 60 115 c 2xc9
EndSplineSet
EndChar

StartChar: Uhungarumlaut
Encoding: 368 368 304
Width: 930
GlyphClass: 2
Flags: MW
HStem: 0 110<300 310 310 620> 640 20<70 240 240 240 690 860 860 860> 730 160<265 485 355 365 575 585 355 485>
VStem: 70 170<135 145 145 660> 265 220<730 730> 485 220<730 890 890 890> 690 170<145 660>
LayerCount: 2
Fore
SplineSet
265 730 m 1x28
 355 890 l 1
 485 890 l 1
 365 730 l 1
 265 730 l 1x28
485 730 m 1
 575 890 l 1
 705 890 l 1
 585 730 l 1
 485 730 l 1
70 135 m 2xd2
 70 660 l 1
 240 660 l 1
 240 145 l 2
 240 110 270 110 300 110 c 2
 630 110 l 2
 660 110 690 110 690 145 c 2
 690 660 l 1
 860 660 l 1
 860 135 l 2
 860 0 740 0 620 0 c 2
 310 0 l 2
 190 0 70 0 70 135 c 2xd2
EndSplineSet
EndChar

StartChar: uhungarumlaut
Encoding: 369 369 305
Width: 740
GlyphClass: 2
Flags: MW
HStem: 0 95<210 470 270 470 470 480> 460 20<60 220 220 220 520 680 680 680> 550 160<170 390 260 270 480 490 260 390>
VStem: 60 160<115 125 125 480> 170 220<550 550> 390 220<550 710 710 710> 520 160<125 480>
LayerCount: 2
Fore
SplineSet
170 550 m 1x28
 260 710 l 1
 390 710 l 1
 270 550 l 1
 170 550 l 1x28
390 550 m 1
 480 710 l 1
 610 710 l 1
 490 550 l 1
 390 550 l 1
60 115 m 2xd2
 60 480 l 1
 220 480 l 1
 220 125 l 2
 220 95 245 95 270 95 c 2
 470 95 l 2
 495 95 520 95 520 125 c 2
 520 480 l 1
 680 480 l 1
 680 115 l 2
 680 0 580 0 480 0 c 2
 260 0 l 2
 160 0 60 0 60 115 c 2xd2
EndSplineSet
EndChar

StartChar: Uogonek
Encoding: 370 370 306
Width: 930
GlyphClass: 2
Flags: MW
HStem: -225 70<535 620 605 620 605 620> -20 20<250 310 310 620 505 620 620 620> 0 110<300 310 310 620 505 620 620 620> 640 20<70 240 240 240 690 860 860 860>
VStem: 70 170<135 145 145 660> 415 120<-130 -115> 690 170<145 660>
LayerCount: 2
Fore
SplineSet
415 -135 m 0xc4
 415 -95 435 -70 505 0 c 1
 620 0 l 1
 545 -75 535 -95 535 -115 c 0
 535 -145 565 -155 605 -155 c 2
 620 -155 l 1
 620 -225 l 1
 575 -225 l 2
 495 -225 415 -215 415 -135 c 0xc4
70 135 m 2x3a
 70 660 l 1
 240 660 l 1
 240 145 l 2
 240 110 270 110 300 110 c 2
 630 110 l 2
 660 110 690 110 690 145 c 2
 690 660 l 1
 860 660 l 1
 860 135 l 2
 860 0 740 0 620 0 c 2
 310 0 l 2
 190 0 70 0 70 135 c 2x3a
EndSplineSet
EndChar

StartChar: uogonek
Encoding: 371 371 307
Width: 740
GlyphClass: 2
Flags: MW
HStem: -225 70<395 480 465 480 465 480> -20 20<210 260 260 480 365 480 480 480> 0 95<210 470 270 470 470 480 365 470 470 480 480 480> 460 20<60 220 220 220 520 680 680 680>
VStem: 60 160<115 125 125 480> 275 120<-130 -115> 520 160<125 480>
LayerCount: 2
Fore
SplineSet
275 -135 m 0xc4
 275 -95 295 -70 365 0 c 1
 480 0 l 1
 405 -75 395 -95 395 -115 c 0
 395 -145 425 -155 465 -155 c 2
 480 -155 l 1
 480 -225 l 1
 435 -225 l 2
 355 -225 275 -215 275 -135 c 0xc4
60 115 m 2x3a
 60 480 l 1
 220 480 l 1
 220 125 l 2
 220 95 245 95 270 95 c 2
 470 95 l 2
 495 95 520 95 520 125 c 2
 520 480 l 1
 680 480 l 1
 680 115 l 2
 680 0 580 0 480 0 c 2
 260 0 l 2
 160 0 60 0 60 115 c 2x3a
EndSplineSet
EndChar

StartChar: Wcircumflex
Encoding: 372 372 308
Width: 1260
GlyphClass: 2
Flags: MW
HStem: 0 21<240 460 240 240 800 1020 800 800> 640 20<20 195 195 195 1065 1240 1240 1240> 730 160<420 690 420 690 570 720 570 840>
LayerCount: 2
Fore
SplineSet
420 730 m 1
 570 890 l 1
 690 890 l 1
 840 730 l 1
 720 730 l 1
 630 820 l 1
 540 730 l 1
 420 730 l 1
20 660 m 1
 195 660 l 1
 360 165 l 1
 515 630 l 1
 745 630 l 1
 900 165 l 1
 1065 660 l 1
 1240 660 l 1
 1020 0 l 1
 800 0 l 1
 630 510 l 1
 460 0 l 1
 240 0 l 1
 20 660 l 1
EndSplineSet
EndChar

StartChar: wcircumflex
Encoding: 373 373 309
Width: 960
GlyphClass: 2
Flags: MW
HStem: 0 21<180 375 180 180 585 780 585 585> 460 20<20 180 180 180 780 940 940 940> 550 160<260 530 260 530 410 560 410 680>
LayerCount: 2
Fore
SplineSet
260 550 m 1
 410 710 l 1
 530 710 l 1
 680 550 l 1
 560 550 l 1
 470 640 l 1
 380 550 l 1
 260 550 l 1
20 480 m 1
 180 480 l 1
 290 150 l 1
 390 450 l 1
 570 450 l 1
 670 150 l 1
 780 480 l 1
 940 480 l 1
 780 0 l 1
 585 0 l 1
 480 315 l 1
 375 0 l 1
 180 0 l 1
 20 480 l 1
EndSplineSet
EndChar

StartChar: Ycircumflex
Encoding: 374 374 310
Width: 910
GlyphClass: 2
Flags: MW
HStem: 0 21<370 540 370 370> 640 20<20 230 230 230 680 890 890 890> 730 160<245 515 245 515 395 545 395 665>
VStem: 370 170<0 310 0 310>
LayerCount: 2
Fore
SplineSet
245 730 m 1
 395 890 l 1
 515 890 l 1
 665 730 l 1
 545 730 l 1
 455 820 l 1
 365 730 l 1
 245 730 l 1
20 660 m 1
 230 660 l 1
 455 435 l 1
 680 660 l 1
 890 660 l 1
 540 310 l 1
 540 0 l 1
 370 0 l 1
 370 310 l 1
 20 660 l 1
EndSplineSet
EndChar

StartChar: ycircumflex
Encoding: 375 375 311
Width: 720
GlyphClass: 2
Flags: MW
HStem: -225 95<80 180 180 202.5 80 250 80 180> 460 20<20 190 190 190 530 700 700 700> 550 160<150 420 150 420 300 450 300 570>
VStem: 80 21<-225 -130 -130 -130>
LayerCount: 2
Fore
SplineSet
150 550 m 1
 300 710 l 1
 420 710 l 1
 570 550 l 1
 450 550 l 1
 360 640 l 1
 270 550 l 1
 150 550 l 1
20 480 m 1
 190 480 l 1
 360 140 l 1
 530 480 l 1
 700 480 l 1
 400 -120 l 2
 370 -180 345 -225 250 -225 c 2
 80 -225 l 1
 80 -130 l 1
 180 -130 l 2
 225 -130 230 -120 245 -90 c 2
 275 -30 l 1
 20 480 l 1
EndSplineSet
EndChar

StartChar: Ydieresis
Encoding: 376 376 312
Width: 910
GlyphClass: 2
Flags: MW
HStem: 0 21<370 540 370 370> 640 20<20 230 230 230 680 890 890 890> 755 110<265 400 265 400 510 645>
VStem: 265 135<755 865 755 865> 370 170<0 310 0 310> 510 135<755 865 755 865>
LayerCount: 2
Fore
SplineSet
265 755 m 1x34
 265 865 l 1
 400 865 l 1
 400 755 l 1
 265 755 l 1x34
510 755 m 1
 510 865 l 1
 645 865 l 1
 645 755 l 1
 510 755 l 1
20 660 m 1xc8
 230 660 l 1
 455 435 l 1
 680 660 l 1
 890 660 l 1
 540 310 l 1
 540 0 l 1
 370 0 l 1
 370 310 l 1
 20 660 l 1xc8
EndSplineSet
EndChar

StartChar: Zacute
Encoding: 377 377 313
Width: 880
GlyphClass: 2
Flags: MW
HStem: 0 110<50 50 285 830> 550 110<70 575 70 810 70 810> 730 160<340 610 440 450>
VStem: 50 760<0 660 110 660> 340 270<730 890>
LayerCount: 2
Fore
SplineSet
340 730 m 1x28
 440 890 l 1
 610 890 l 1
 450 730 l 1
 340 730 l 1x28
50 0 m 1xd0
 50 110 l 1
 575 550 l 1
 70 550 l 1
 70 660 l 1
 810 660 l 1
 810 550 l 1
 285 110 l 1
 830 110 l 1
 830 0 l 1
 50 0 l 1xd0
EndSplineSet
EndChar

StartChar: zacute
Encoding: 378 378 314
Width: 720
GlyphClass: 2
Flags: MW
HStem: 0 95<260 670 260 670> 385 95<70 440 70 650> 550 160<250 520 350 360>
VStem: 50 600<0 480 105 480> 250 270<550 710>
LayerCount: 2
Fore
SplineSet
250 550 m 1x28
 350 710 l 1
 520 710 l 1
 360 550 l 1
 250 550 l 1x28
50 0 m 1xd0
 50 105 l 1
 440 385 l 1
 70 385 l 1
 70 480 l 1
 650 480 l 1
 650 375 l 1
 260 95 l 1
 670 95 l 1
 670 0 l 1
 50 0 l 1xd0
EndSplineSet
EndChar

StartChar: Zdotaccent
Encoding: 379 379 315
Width: 880
GlyphClass: 2
Flags: MW
HStem: 0 110<50 50 285 830> 550 110<70 575 70 810 70 810> 755 110<375 505 375 505>
VStem: 50 760<0 660 110 660> 375 130<755 865 755 865>
LayerCount: 2
Fore
SplineSet
375 755 m 1x28
 375 865 l 1
 505 865 l 1
 505 755 l 1
 375 755 l 1x28
50 0 m 1xd0
 50 110 l 1
 575 550 l 1
 70 550 l 1
 70 660 l 1
 810 660 l 1
 810 550 l 1
 285 110 l 1
 830 110 l 1
 830 0 l 1
 50 0 l 1xd0
EndSplineSet
EndChar

StartChar: zdotaccent
Encoding: 380 380 316
Width: 720
GlyphClass: 2
Flags: MW
HStem: 0 95<260 670 260 670> 385 95<70 440 70 650> 575 110<285 415 285 415>
VStem: 50 600<0 480 105 480> 285 130<575 685 575 685>
LayerCount: 2
Fore
SplineSet
285 575 m 1x28
 285 685 l 1
 415 685 l 1
 415 575 l 1
 285 575 l 1x28
50 0 m 1xd0
 50 105 l 1
 440 385 l 1
 70 385 l 1
 70 480 l 1
 650 480 l 1
 650 375 l 1
 260 95 l 1
 670 95 l 1
 670 0 l 1
 50 0 l 1xd0
EndSplineSet
EndChar

StartChar: Zcaron
Encoding: 381 381 317
Width: 880
GlyphClass: 2
Flags: MW
HStem: 0 110<50 50 285 830> 550 110<70 575 70 810 70 810> 730 160<230 500 230 380>
VStem: 50 760<0 660 110 660>
LayerCount: 2
Fore
SplineSet
230 890 m 1
 350 890 l 1
 440 800 l 1
 530 890 l 1
 650 890 l 1
 500 730 l 1
 380 730 l 1
 230 890 l 1
50 0 m 1
 50 110 l 1
 575 550 l 1
 70 550 l 1
 70 660 l 1
 810 660 l 1
 810 550 l 1
 285 110 l 1
 830 110 l 1
 830 0 l 1
 50 0 l 1
EndSplineSet
EndChar

StartChar: zcaron
Encoding: 382 382 318
Width: 720
GlyphClass: 2
Flags: MW
HStem: 0 95<260 670 260 670> 385 95<70 440 70 650> 550 160<140 410 140 290>
VStem: 50 600<0 480 105 480>
LayerCount: 2
Fore
SplineSet
140 710 m 1
 260 710 l 1
 350 620 l 1
 440 710 l 1
 560 710 l 1
 410 550 l 1
 290 550 l 1
 140 710 l 1
50 0 m 1
 50 105 l 1
 440 385 l 1
 70 385 l 1
 70 480 l 1
 650 480 l 1
 650 375 l 1
 260 95 l 1
 670 95 l 1
 670 0 l 1
 50 0 l 1
EndSplineSet
EndChar

StartChar: longs
Encoding: 383 383 319
Width: 580
GlyphClass: 2
Flags: MW
HStem: 0 21G<160 320 160 160> 385 95<60 160 60 160> 565 95<360 370 370 520>
VStem: 160 160<0 385 385 385 480 535 0 545 0 602.5>
LayerCount: 2
Fore
SplineSet
60 385 m 1
 60 480 l 1
 160 480 l 1
 160 545 l 2
 160 660 260 660 360 660 c 2
 520 660 l 1
 520 565 l 1
 370 565 l 2
 345 565 320 565 320 535 c 2
 320 0 l 1
 160 0 l 1
 160 385 l 1
 60 385 l 1
EndSplineSet
EndChar

StartChar: florin
Encoding: 402 402 320
Width: 580
GlyphClass: 2
Flags: MW
HStem: -225 95<20 110 110 120 20 110> 385 95<60 160 60 160 320 520> 565 95<360 370 370 520>
VStem: 160 160<-100 385 480 535>
LayerCount: 2
Fore
SplineSet
20 -130 m 1
 110 -130 l 2
 135 -130 160 -130 160 -100 c 2
 160 385 l 1
 60 385 l 1
 60 480 l 1
 160 480 l 1
 160 545 l 2
 160 660 260 660 360 660 c 2
 520 660 l 1
 520 565 l 1
 370 565 l 2
 345 565 320 565 320 535 c 2
 320 480 l 1
 520 480 l 1
 520 385 l 1
 320 385 l 1
 320 -110 l 2
 320 -225 220 -225 120 -225 c 2
 20 -225 l 1
 20 -130 l 1
EndSplineSet
EndChar

StartChar: Aringacute
Encoding: 506 506 321
Width: 930
GlyphClass: 2
Flags: MW
HStem: 0 21<20 20 20 200 730 730 730 910> 190 110<350 580 350 635 295 580> 640 20<350 580 360 400 400 530 580 580> 660 65<420 510 510 520 420 580 360 510 420 510 510 520 420 530> 730 160<400 670 770 780> 825 65<410 420 420 510>
VStem: 280 110<745 805 738.5 833.5> 540 110<745 805 716.5 811.5> 670 270<730 890>
LayerCount: 2
Fore
SplineSet
280 745 m 2x17
 280 805 l 2
 280 862 320 890 400 890 c 2
 530 890 l 2
 610 890 650 862 650 805 c 2
 650 745 l 2
 650 688 610 660 530 660 c 2
 400 660 l 2
 320 660 280 688 280 745 c 2x17
390 745 m 2
 390 732 400 725 420 725 c 2
 510 725 l 2
 530 725 540 732 540 745 c 2
 540 805 l 2
 540 818 530 825 510 825 c 2
 420 825 l 2
 400 825 390 818 390 805 c 2
 390 745 l 2
20 0 m 1xe0
 350 660 l 1
 580 660 l 1
 910 0 l 1
 730 0 l 1
 635 190 l 1
 295 190 l 1
 200 0 l 1
 20 0 l 1xe0
350 300 m 1
 580 300 l 1
 465 530 l 1
 350 300 l 1
670 730 m 1x0880
 770 890 l 1
 940 890 l 1
 780 730 l 1
 670 730 l 1x0880
EndSplineSet
EndChar

StartChar: aringacute
Encoding: 507 507 322
Width: 805
GlyphClass: 2
Flags: MW
HStem: 0 95<210 520 270 520 270 680> 205 95<260 270 270 520> 385 95<100 470 100 480> 550 65<265 415 325 415 415 425 325 435> 715 65<315 325 325 415> 730 160<575 845 675 685>
VStem: 60 160<115 125 125 175 110 185 110 242.5> 185 110<635 695 628.5 723.5> 445 110<635 695 606.5 701.5> 520 160<95 205 205 205 300 355 355 365 0 370> 575 270<730 890>
LayerCount: 2
Fore
SplineSet
185 635 m 2x1980
 185 695 l 2
 185 752 225 780 305 780 c 2
 435 780 l 2
 515 780 555 752 555 695 c 2
 555 635 l 2
 555 578 515 550 435 550 c 2
 305 550 l 2
 225 550 185 578 185 635 c 2x1980
295 635 m 2
 295 622 305 615 325 615 c 2
 415 615 l 2
 435 615 445 622 445 635 c 2
 445 695 l 2
 445 708 435 715 415 715 c 2
 325 715 l 2
 305 715 295 708 295 695 c 2
 295 635 l 2
60 115 m 2xe240
 60 185 l 2
 60 300 160 300 260 300 c 2
 520 300 l 1
 520 355 l 2
 520 385 495 385 470 385 c 2
 100 385 l 1
 100 480 l 1
 480 480 l 2
 580 480 680 480 680 365 c 2
 680 0 l 1
 260 0 l 2
 160 0 60 0 60 115 c 2xe240
220 125 m 2
 220 95 245 95 270 95 c 2
 520 95 l 1
 520 205 l 1
 270 205 l 2
 245 205 220 205 220 175 c 2
 220 125 l 2
575 730 m 1x0420
 675 890 l 1
 845 890 l 1
 685 730 l 1
 575 730 l 1x0420
EndSplineSet
EndChar

StartChar: AEacute
Encoding: 508 508 323
Width: 1350
GlyphClass: 2
Flags: MW
HStem: 0 110<760 1280 760 1280> 190 110<340 590 340 590 285 590> 305 110<760 1230 760 1230> 550 110<465 590 465 465 760 1280 760 760> 730 160<575 845 675 685>
VStem: 575 270<730 890> 590 170<110 190 190 190 300 305 415 550>
LayerCount: 2
Fore
SplineSet
575 730 m 1x0c
 675 890 l 1
 845 890 l 1
 685 730 l 1
 575 730 l 1x0c
20 0 m 1xf2
 350 660 l 1
 1280 660 l 1
 1280 550 l 1
 760 550 l 1
 760 415 l 1
 1230 415 l 1
 1230 305 l 1
 760 305 l 1
 760 110 l 1
 1280 110 l 1
 1280 0 l 1
 590 0 l 1
 590 190 l 1
 285 190 l 1
 190 0 l 1
 20 0 l 1xf2
340 300 m 1
 590 300 l 1
 590 550 l 1
 465 550 l 1
 340 300 l 1
EndSplineSet
EndChar

StartChar: aeacute
Encoding: 509 509 324
Width: 1200
GlyphClass: 2
Flags: MW
HStem: 0 95<210 520 270 520 730 1120> 205 95<260 270 270 520 680 980> 385 95<100 470 100 940 717.5 730 730 930> 550 160<500 770 600 610>
VStem: 60 160<115 125 125 175 110 185 110 242.5> 500 270<550 710> 520 160<110 125 125 205 110 205 300 355> 980 160<300 355 355 365 205 370>
LayerCount: 2
Fore
SplineSet
500 550 m 1x14
 600 710 l 1
 770 710 l 1
 610 550 l 1
 500 550 l 1x14
60 115 m 2xeb
 60 185 l 2
 60 300 160 300 260 300 c 2
 520 300 l 1
 520 355 l 2
 520 385 495 385 470 385 c 2
 100 385 l 1
 100 480 l 1
 940 480 l 2
 1040 480 1140 480 1140 365 c 2
 1140 205 l 1
 680 205 l 1
 680 125 l 2
 680 95 705 95 730 95 c 2
 1120 95 l 1
 1120 0 l 1
 260 0 l 2
 160 0 60 0 60 115 c 2xeb
220 125 m 2
 220 95 245 95 270 95 c 2
 520 95 l 1
 520 205 l 1
 270 205 l 2
 245 205 220 205 220 175 c 2
 220 125 l 2
680 300 m 1
 980 300 l 1
 980 355 l 2
 980 385 955 385 930 385 c 2
 730 385 l 2
 705 385 680 385 680 355 c 2
 680 300 l 1
EndSplineSet
EndChar

StartChar: Oslashacute
Encoding: 510 510 325
Width: 1030
GlyphClass: 2
Flags: MW
HStem: 0 110<350 360 360 670> 550 110<335 670 360 670 670 680> 730 160<415 685 515 525>
VStem: 120 170<127.5 135 302 515> 415 270<730 890> 740 170<145 357 357 357 525 532.5>
LayerCount: 2
Fore
SplineSet
415 730 m 1
 515 890 l 1
 685 890 l 1
 525 730 l 1
 415 730 l 1
20 100 m 1
 20 205 l 1
 120 240 l 1
 120 525 l 2
 120 660 240 660 360 660 c 2
 670 660 l 2
 790 660 910 660 910 525 c 1
 1010 560 l 1
 1010 455 l 1
 910 420 l 1
 910 135 l 2
 910 0 790 0 670 0 c 2
 360 0 l 2
 240 0 120 0 120 135 c 1
 20 100 l 1
290 145 m 2
 290 110 320 110 350 110 c 2
 680 110 l 2
 710 110 740 110 740 145 c 2
 740 357 l 1
 290 197 l 1
 290 145 l 2
290 302 m 1
 740 462 l 1
 740 515 l 2
 740 550 710 550 680 550 c 2
 350 550 l 2
 320 550 290 550 290 515 c 2
 290 302 l 1
EndSplineSet
EndChar

StartChar: oslashacute
Encoding: 511 511 326
Width: 820
GlyphClass: 2
Flags: MW
HStem: 0 95<250 510 310 510 510 520> 385 95<300 310 310 510> 550 160<310 580 410 420>
VStem: 100 160<110 115 243 355> 310 270<550 710> 560 160<125 237 237 237 365 370>
LayerCount: 2
Fore
SplineSet
310 550 m 1x28
 410 710 l 1
 580 710 l 1
 420 550 l 1
 310 550 l 1x28
20 94 m 1xd4
 20 179 l 1
 100 200 l 1
 100 365 l 2
 100 480 200 480 300 480 c 2
 520 480 l 2
 620 480 720 480 720 365 c 1
 800 386 l 1
 800 301 l 1
 720 280 l 1
 720 115 l 2
 720 0 620 0 520 0 c 2
 300 0 l 2
 200 0 100 0 100 115 c 1
 20 94 l 1xd4
260 125 m 2
 260 95 285 95 310 95 c 2
 510 95 l 2
 535 95 560 95 560 125 c 2
 560 237 l 1
 260 158 l 1
 260 125 l 2
260 243 m 1
 560 322 l 1
 560 355 l 2
 560 385 535 385 510 385 c 2
 310 385 l 2
 285 385 260 385 260 355 c 2
 260 243 l 1
EndSplineSet
EndChar

StartChar: Scommaaccent
Encoding: 536 536 327
Width: 930
GlyphClass: 2
Flags: MW
HStem: -225 155<370 550 410 480> 0 110<70 630 70 620> 305 110<300 310 310 620 620 630> 550 110<285 810 310 810 310 810>
VStem: 70 170<440 450 450 515 432.5 525 432.5 592.5> 370 180<-225 -70> 690 170<145 270 270 280 67.5 287.5>
LayerCount: 2
Fore
SplineSet
370 -225 m 1
 410 -70 l 1
 550 -70 l 1
 480 -225 l 1
 370 -225 l 1
70 0 m 1
 70 110 l 1
 630 110 l 2
 660 110 690 110 690 145 c 2
 690 270 l 2
 690 305 660 305 630 305 c 2
 310 305 l 2
 190 305 70 305 70 440 c 2
 70 525 l 2
 70 660 190 660 310 660 c 2
 810 660 l 1
 810 550 l 1
 300 550 l 2
 270 550 240 550 240 515 c 2
 240 450 l 2
 240 415 270 415 300 415 c 2
 620 415 l 2
 740 415 860 415 860 280 c 2
 860 135 l 2
 860 0 740 0 620 0 c 2
 70 0 l 1
EndSplineSet
EndChar

StartChar: scommaaccent
Encoding: 537 537 328
Width: 740
GlyphClass: 2
Flags: MW
HStem: -225 155<275 455 315 385> 0 95<60 470 60 470 470 480> 205 95<210 480 270 470> 385 95<260 270 270 640>
VStem: 60 160<320 330 330 355 315 365 315 422.5> 275 180<-225 -70> 520 160<125 175 175 185 57.5 190>
LayerCount: 2
Fore
SplineSet
275 -225 m 1
 315 -70 l 1
 455 -70 l 1
 385 -225 l 1
 275 -225 l 1
60 0 m 1
 60 95 l 1
 470 95 l 2
 495 95 520 95 520 125 c 2
 520 175 l 2
 520 205 495 205 470 205 c 2
 260 205 l 2
 160 205 60 205 60 320 c 2
 60 365 l 2
 60 480 160 480 260 480 c 2
 640 480 l 1
 640 385 l 1
 270 385 l 2
 245 385 220 385 220 355 c 2
 220 330 l 2
 220 300 245 300 270 300 c 2
 480 300 l 2
 580 300 680 300 680 185 c 2
 680 115 l 2
 680 0 580 0 480 0 c 2
 60 0 l 1
EndSplineSet
EndChar

StartChar: uni021A
Encoding: 538 538 329
Width: 910
GlyphClass: 2
Flags: MW
HStem: -225 155<345 525 385 455> 0 21<370 540 370 370> 550 110<30 880 30 370 540 540 540 880>
VStem: 345 180<-225 -70> 370 170<0 550 0 550>
LayerCount: 2
Fore
SplineSet
345 -225 m 1x90
 385 -70 l 1
 525 -70 l 1
 455 -225 l 1
 345 -225 l 1x90
30 550 m 1x68
 30 660 l 1
 880 660 l 1
 880 550 l 1
 540 550 l 1
 540 0 l 1
 370 0 l 1
 370 550 l 1
 30 550 l 1x68
EndSplineSet
EndChar

StartChar: uni021B
Encoding: 539 539 330
Width: 480
GlyphClass: 2
Flags: MW
HStem: -225 155<145 325 185 255> 0 95<210 420 270 420 270 420> 385 95<220 420 220 420> 640 20<60 220 220 220>
VStem: 60 160<115 125 125 385 480 660> 145 180<-225 -70>
LayerCount: 2
Fore
SplineSet
145 -225 m 1x84
 185 -70 l 1
 325 -70 l 1
 255 -225 l 1
 145 -225 l 1x84
60 115 m 2x78
 60 660 l 1
 220 660 l 1
 220 480 l 1
 420 480 l 1
 420 385 l 1
 220 385 l 1
 220 125 l 2
 220 95 245 95 270 95 c 2
 420 95 l 1
 420 0 l 1
 260 0 l 2
 160 0 60 0 60 115 c 2x78
EndSplineSet
EndChar

StartChar: uni0237
Encoding: 567 567 331
Width: 280
GlyphClass: 2
Flags: MW
HStem: -225 95<-50 -50> 460 20G<60 220 220 220>
VStem: -50 21G<-225 -130 -130 -130> 60 160<0 480>
LayerCount: 2
Fore
SplineSet
-50 -130 m 1
 40 -115 60 -60 60 0 c 2
 60 480 l 1
 220 480 l 1
 220 0 l 2
 220 -205 40 -220 -50 -225 c 1
 -50 -130 l 1
EndSplineSet
EndChar

StartChar: afii57929
Encoding: 700 700 332
Width: 330
GlyphClass: 2
Flags: MW
HStem: 460 200<75 255 125 175>
VStem: 75 180
LayerCount: 2
Fore
SplineSet
75 460 m 1
 125 660 l 1
 255 660 l 1
 175 460 l 1
 75 460 l 1
EndSplineSet
EndChar

StartChar: circumflex
Encoding: 710 710 333
Width: 500
GlyphClass: 2
Flags: MW
HStem: 550 160<40 310 40 310 190 340 190 460>
LayerCount: 2
Fore
SplineSet
40 550 m 1
 190 710 l 1
 310 710 l 1
 460 550 l 1
 340 550 l 1
 250 640 l 1
 160 550 l 1
 40 550 l 1
EndSplineSet
EndChar

StartChar: caron
Encoding: 711 711 334
Width: 500
GlyphClass: 2
Flags: MW
HStem: 550 160<40 310 40 190>
LayerCount: 2
Fore
SplineSet
40 710 m 1
 160 710 l 1
 250 620 l 1
 340 710 l 1
 460 710 l 1
 310 550 l 1
 190 550 l 1
 40 710 l 1
EndSplineSet
EndChar

StartChar: uni02C9
Encoding: 713 713 335
Width: 500
GlyphClass: 2
Flags: MW
HStem: 575 95<70 430 70 430>
VStem: 70 360<575 670 575 670>
LayerCount: 2
Fore
SplineSet
70 575 m 1
 70 670 l 1
 430 670 l 1
 430 575 l 1
 70 575 l 1
EndSplineSet
EndChar

StartChar: breve
Encoding: 728 728 336
Width: 500
GlyphClass: 2
Flags: MW
HStem: 550 85<229.5 270.5 229.5 297>
VStem: 80 95<689.5 710 689.5 710> 325 95<689.5 710>
LayerCount: 2
Fore
SplineSet
80 710 m 1
 175 710 l 1
 175 669 209 635 250 635 c 0
 291 635 325 669 325 710 c 1
 420 710 l 1
 420 622 344 550 250 550 c 0
 156 550 80 622 80 710 c 1
EndSplineSet
EndChar

StartChar: dotaccent
Encoding: 729 729 337
Width: 500
GlyphClass: 2
Flags: MW
HStem: 575 110<185 315 185 315>
VStem: 185 130<575 685 575 685>
LayerCount: 2
Fore
SplineSet
185 575 m 1
 185 685 l 1
 315 685 l 1
 315 575 l 1
 185 575 l 1
EndSplineSet
EndChar

StartChar: ring
Encoding: 730 730 338
Width: 500
GlyphClass: 2
Flags: MW
HStem: 550 65<145 295 205 295 295 305 205 315> 715 65<195 205 205 295>
VStem: 65 110<635 695 628.5 723.5> 325 110<635 695 606.5 701.5>
LayerCount: 2
Fore
SplineSet
65 635 m 2
 65 695 l 2
 65 752 105 780 185 780 c 2
 315 780 l 2
 395 780 435 752 435 695 c 2
 435 635 l 2
 435 578 395 550 315 550 c 2
 185 550 l 2
 105 550 65 578 65 635 c 2
175 635 m 2
 175 622 185 615 205 615 c 2
 295 615 l 2
 315 615 325 622 325 635 c 2
 325 695 l 2
 325 708 315 715 295 715 c 2
 205 715 l 2
 185 715 175 708 175 695 c 2
 175 635 l 2
EndSplineSet
EndChar

StartChar: ogonek
Encoding: 731 731 339
Width: 500
GlyphClass: 2
Flags: MW
HStem: -225 70<250 335 320 335 320 335> -20 20G<220 335 335 335>
VStem: 130 120<-130 -115>
LayerCount: 2
Fore
SplineSet
130 -135 m 0
 130 -95 150 -70 220 0 c 1
 335 0 l 1
 260 -75 250 -95 250 -115 c 0
 250 -145 280 -155 320 -155 c 2
 335 -155 l 1
 335 -225 l 1
 290 -225 l 2
 210 -225 130 -215 130 -135 c 0
EndSplineSet
EndChar

StartChar: tilde
Encoding: 732 732 340
Width: 500
GlyphClass: 2
Flags: MW
HStem: 560 80<315 365> 620 80<135 185>
VStem: 50 90 360 90
LayerCount: 2
Fore
SplineSet
155 700 m 0x70
 180 700 190 700 250 670 c 0
 290 650 310 640 320 640 c 0xb0
 335 640 345 640 360 700 c 1
 460 700 l 1x70
 435 595 385 560 345 560 c 0xb0
 320 560 310 560 250 590 c 0
 210 610 190 620 180 620 c 0x70
 165 620 155 620 140 560 c 1
 40 560 l 1xb0
 65 665 115 700 155 700 c 0x70
EndSplineSet
EndChar

StartChar: hungarumlaut
Encoding: 733 733 341
Width: 500
GlyphClass: 2
Flags: MW
HStem: 550 160<50 270 140 150 360 370 140 270>
VStem: 50 220<550 550> 270 220<550 710 710 710>
LayerCount: 2
Fore
SplineSet
50 550 m 1xc0
 140 710 l 1
 270 710 l 1
 150 550 l 1
 50 550 l 1xc0
270 550 m 1
 360 710 l 1
 490 710 l 1
 370 550 l 1
 270 550 l 1
EndSplineSet
EndChar

StartChar: uni0312
Encoding: 786 786 342
Width: 0
GlyphClass: 2
Flags: MW
HStem: 550 250<-440 -240 -340 -290>
VStem: -440 200
LayerCount: 2
Fore
SplineSet
-440 550 m 1
 -340 800 l 1
 -240 800 l 1
 -290 550 l 1
 -440 550 l 1
EndSplineSet
EndChar

StartChar: uni0326
Encoding: 806 806 343
Width: 0
GlyphClass: 2
Flags: MW
HStem: -225 155<-465 -285 -425 -355>
VStem: -465 180<-225 -70>
LayerCount: 2
Fore
SplineSet
-465 -225 m 1
 -425 -70 l 1
 -285 -70 l 1
 -355 -225 l 1
 -465 -225 l 1
EndSplineSet
EndChar

StartChar: uni037A
Encoding: 890 890 344
Width: 500
GlyphClass: 2
Flags: MW
HStem: -225 65<320 340 320 340>
VStem: 170 110<-130 -50 -147.5 -50>
LayerCount: 2
Fore
SplineSet
170 -50 m 1
 280 -50 l 1
 280 -135 l 2
 280 -160 300 -160 320 -160 c 2
 340 -160 l 1
 340 -225 l 1
 255 -225 170 -225 170 -130 c 2
 170 -50 l 1
EndSplineSet
EndChar

StartChar: uni037E
Encoding: 894 894 345
Width: 350
GlyphClass: 2
Flags: MW
HStem: -150 270<45 275 105 155> 340 140<105 275 105 275>
VStem: 105 170<120 120 340 480>
LayerCount: 2
Fore
SplineSet
45 -150 m 1
 105 120 l 1
 275 120 l 1
 155 -150 l 1
 45 -150 l 1
105 340 m 1
 105 480 l 1
 275 480 l 1
 275 340 l 1
 105 340 l 1
EndSplineSet
EndChar

StartChar: tonos
Encoding: 900 900 346
Width: 500
GlyphClass: 2
Flags: MW
HStem: 550 160<160 370 230 270>
VStem: 160 210<550 710>
LayerCount: 2
Fore
SplineSet
160 550 m 1
 230 710 l 1
 370 710 l 1
 270 550 l 1
 160 550 l 1
EndSplineSet
EndChar

